<mxfile host="app.diagrams.net" modified="2021-08-21T13:06:38.068Z" agent="5.0 (Macintosh)" etag="-qlTKWIWYNA9brKzFDwn" version="14.9.8" type="github">
  <diagram id="aKge4oQrfLS_nLz2_YlU" name="Page-1">
    <mxGraphModel dx="13029" dy="7730" grid="1" gridSize="10" guides="1" tooltips="1" connect="1" arrows="1" fold="1" page="1" pageScale="1" pageWidth="1169" pageHeight="827" math="0" shadow="0">
      <root>
        <mxCell id="0" />
        <mxCell id="1" parent="0" />
        <mxCell id="YWYVbX-TZwlWx46NHFRt-1" value="" style="shape=image;imageAspect=0;aspect=fixed;verticalLabelPosition=bottom;verticalAlign=top;image=data:image/jpeg,/9j/4AAQSkZJRgABAQAAAQABAAD/2wCEAAkGBw8NDQ4ODg4NEBAPEA8WEA8QDQ8OEBAPFRUWFhYVFhUYHTQgGBslGxYVITIhJykrLy4wFx8zODMsOCgtLi8BCgoKDg0OGBAQGi0mICYtLSswLS0tKy8tKy0rLS0tLSstLS0tKy0tKy0tKy0tLS0rLS8tLS0tKy8tLS0rKy0tLf/AABEIAOEA4QMBIgACEQEDEQH/xAAcAAEAAgMBAQEAAAAAAAAAAAAAAQIDBgcFBAj/xABCEAACAQIBCAcEBgkEAwAAAAAAAQIDEQQFBhIhMUFRYRMiUnGBkaEHFDJiI0JykrGyFTNTc4KiwdHSNENjwoOT8f/EABsBAAIDAQEBAAAAAAAAAAAAAAAEAQMFAgYH/8QANBEAAgEBBQUHAwQCAwAAAAAAAAECAwQREiExBRNBkdFRYXGBocHwIjLhIzRCsRRyFWKC/9oADAMBAAIRAxEAPwDuIAAAAAAAAAAPmxmMp0IdJVnGEVvk7a+C4vkaflfPjbHCw1ftai1/wx/v5HSi3oMWeyVa7+hefDn0N0r1Y04uU5RjFbZSkopd7Z4WOztwtK6jKdV/8cer952Xlc57i8fVxEtKtUnN7tJ3S7lsXgfPc73bNqjsams6sm+5ZLnr/Rt+Jz6qv9VRpRXz6dR+lkeVXzmxtS968kuEEoW8Ur+p4ty1zl0zTp2Szw+2C5X+rvZ9k8p4iWqVfES+1Xm/xZgdWT2yk+9tmIm5W6YysK0RljUa2Nrudj6qWUq8fhr1491aa/Bnw3FyuVMlxi9T2aGcOLhsr1H9q1T8yZ6mFzzrL9ZTpTXK8JeetehqikWUitqS0YvUsVCf3QXK71Vz9ToODzsw1Symp0nxfWj5x1+h7uHrwqRvTnCceMJKS9DkakZ8PiZ05aVOcoS4xk4v0IVacdczMrbFpPOm2vVdTrYNJyZnfNWjiI6a7cEozXetj9Da8DjqWIjp0pqS3rfF8GtqLoVIy0MW0WOrQ+9Zdq0+eJ9YALBUAAAAAAAAAAAAAAAAAa1nDnVSwmlTp2q1ltV+pB/M1tfyr0PIzpzu1yoYSXFTrRet8VTf/by4mktjdKzN5y5GxY9nX3TrcuvTifZlDKFbEz06tSUpbr7IrhFbEj5blbi41ujcTSVy0LFrmO5NyN2dYi1yblLk3ON2TiL3FylybnDpnWIyXJuY7k3KpUzpSMlyyZiuWuUypnakZEyykYkyyZRKmdamZSM+FxU6U1OnOUJLY4uz7ua5HyKRZSFp0jmUE1mb5kTOeNW1OvaE9inspzfPsv0/A2c5ApGy5u5yOlo0q7cqeyM9sof3j+Hod06zWU+ZgW7ZWs6C/wDPTpy7DegUpzUkmmmmk007pp70y40YAAAAAAAAAAAOf56Zz6TnhMPLVrVWafxPfTi+HF79nG/pZ8Zw+603h6UrVqkes1tpU3qvyk9aXi+BzW5pWOy4rqkvLr0NbZ9lT/Vn5L36Fri5W5FzS3ZsYi9xcrcXDdhiLXJuY7k3Od2TiL3JuUuLnLpk4jJctcx3FyqVM6xGW4uY7lrlUqZ2pF0yUzGmWTKZUztSMqZKZiTLJlEqZYpGRMsmYky6YvKmdqRkUjLGR86ZdSFp0yWrzaM2Mv8AQSVGq/opPU3/ALTe/wCzx4beJvpx2Mjc8z8s6VsNVetL6Jvel9Tw3cu5EUpYXhZgbVsGTrwWfHv7+pt4AGTzwAAAD4cr5QhhKFSvU2QWpbHKT1Riubdkfcc09o+V+krRwkH1aNpT51WnZeEX/M+AzZKG/qqHDV+H50L7PS3tRR4cfA1bHYyeIqzrVHeU5Nye7klySslyR89ytyLnqFSuyR6C+7JF7i5S4udbsMRe4uUuTcjdhiL3JuY7i5zuycRkuTcx3JucumTiMlxcrcm5VKmdKRa5a5jTJTKpQO8RlTJTMSZZMolTLFIyJkplEyUxeUCxSMiZZMxpkpi8qZYpGVMlMxplkxaUCxSMyZkpVXGSlFtSi001tTWtMwJlkxWcDrU6nkLKKxWHjU1KS6s0t01t8Hqfiemc4zPyl0GJVOT6la0Xyn9R+bt4nRzuEr1meN2hZf8AHrNLR5rp5P0uAAOxE+TKWLjh6NSvP4aUJSa42WpLm9nicOxNeVWc6knec5SlJ8ZSd36s6T7Tcf0eEhRT11qmtcacNb/mcDl9z02xrPdRdR/yfovzfyNSwxwwcu3+l+by9yLkA2cCHMRNxcoCcCIxF7k3MZYjAicRNyblLk3I3YYi1yblbjXwOHSO1Ivcm5juTcqlTOlIyXLJmNMlMplTO1IyJk3KJkplEqZYpGRMsmYkyyYvKmWKRkTLJlIs2bIOaFbExVSrLoab+G8LzkuKjfUub8hWqowV8gnXhSjim7ka8mWTPVzhzfqYCUOsqlOV9Gajo9ZfVa3Px16zyExZpSV6LaVWNSKlF3pmRMumY0yUxacBiMjLGVjqmQcb7zhqdV/E1aX246n52v4nKUzdPZ9jL9Nh2/8Akiv5Zf8AQXSwyM7bFHeWfGtY5+Tyfs/I3QAHZ5M5T7TMV0mOjTT1UqUFbhOV5P0cDUz1c663S5RxcuFacfCHUX5Tyj3dkp7uhCHYl/WfqatN3Qiu4AgF5OMkAARjAAAnGC1CjKpONOEXKc2lGK2yk9iRU6F7NshWTx1WOuV40E1sjslPx2LlfiLWu0xs9J1JeS7XwXzgczrYFefXm/mJQoxjPFJVqr1une9GPK313zerkbL+hcJbR91wuj2fdqWj5WPQB4+ra69WWKUn7LwRnSqTk72zT8u5i4evFyw6VCpuSv0Mnwcfq968mc3yjgK2FqOlWg4SW57JLtRexrmd4PNyxkihjaXR14OS16MlqnCXGMtz9HvuO2Pas6Tw1b5R9V18H5XDFG1yhlLNeqOIXJTPbzkzXr5PlpfrKLfVqxWpX2Ka+q/R+h4SZ6SLhVipwd6fE1YVFJXpmRMlMomSmVSplqkZEzNh6U6s406cZTlJ2jGKu2z6siZFr42poUo6lbTqS1Qgub48lr/E6jkHN+jgYWprSqSXXrSS0pcl2Y8l67TMtdohRy1l2dfl/cVV7ZGirtX2dTyM2szoUNGrilGpV1OMPihB8+1L0XPabiDy84MqRwWGnWdnLZTi/r1HsXdtb5JmFKc6s882zFnUqV5q/NvJGq+0TKkZSp4SNm4SU5vsycWox77Sb8UaYmKtaVScpzk5Ocm5Se1ybu2QmaKo4IqJ6ey01RpqC+Nl0yyZjTLJlE4jkWZUz2s0cT0WOou+qd4PnpKy/m0Twkz6cHX6OrSqdicJfdaf9BOpE6nHeQlB8U1zyOyAi/MFd54PM4LlCenXrS7VWo/OTZgJe1kH0JZIfxAAkk5xkAkARjIBJKTdkk23sSV23wSAnGenmzkeWOxUKSuoLrVZL6tNbdfF7F38jtFGlGnGMIJRjBJRilZKKVkkeJmfkRYDCpSS6araVZ8Huh3RTt3tvebAeO2na/8AIq3R+2OS7+1+fDuF6k8TAAM4rAAADFVpRnFwnGMoyTUoySkmntTT2o57nXmM46VfBJyWtyobZR/d8V8u3hfYdHAzZbXUs08UH4rg/nbqWUqsqbvifn2zV7q1r33WaNszWzPqYzRrVtKnQ2pW0alRfKnsj8z8OJ0mrkvDTn0k8Ph5VO3KjTlPzaufaado21jhdSjc+153eHV8hqduk43QVx8uCwdLD040qUIwjHZGK9XxfNn1AGI2272IvPNg5Jnhlz33ENQf0NK8afCXan4/glzNp9oGXOgo+605fSV4vTa2wo7H4y1ruT5HNUzY2fZbo72XHTr7czW2dRu/Ul5dfbmZEzImY0yUxqcDYjIypkpmNMyJilSJdFl0yy2GNMshOcS6MjeP07LtIGn9LIC27M//AAKZ5GKho1KkezOS8m0Yz0c4aWhjsXHhXrW7nNtejR5x7yDvin4HmcYBIOjnGQSABzjIN09nWQumq++VY/R0nakmvirdruj+LXA1jJGTZ4zEU8PT+Kb1ytdQgtcpPuX9FvO1YDBww1GnRpK0KcUorf3vi29bfMyNrW3dU91H7pei/OnMnFefUADypAIuaJnTnwoaVDAtSnrUq+pwjyhuk+ezv3c/liajqdK5zdS9+kc5dJfjpbbmxZtj1KscVR4exXXv+1d8yOkrzvgOe5r58/DQxz4KOIt5Kp/l572b/TmpJSi000mmndNPY0xC02WpZ5YZrwfB/OZDVxcACxAAAAD4srZQp4ShUr1H1aavbVeUtiiuberxPtOV+0HL3vFf3anK9KhJ6TWydbWm+6Otfe5DlhsjtNVR4at93V6IuoUt5O7hxNdyjjp4mtUr1XedSV3wW5RXJKy8DAmY0yyZ6uUEskb0XdkjImWTMaZZMUnEuizImXTMaZZMTqRLosyoumYkZKUXKUYrbJpLveoTnEug+02H9EvgyTonuNPgDO3h53/lJHLfaFhejyjUlurQpzXloP1g/M1o6H7UcFeGHxCXwydOXdJaUfLRl9454ex2dV3lmg+xXcsvYxpSuYBIHSvGQSDY8xcjLF4rSqJOlh9Gcl2pNvQj3XTb+zbeVVqsaMHUlovnrp4gpXu43DMLIXuuH6apG1auk7Na4UtsY8m9r8FuNsB4ecOcdDAQ670qrXUoxfWfOXZjz8rni5yq2qs2lfJ/OS/Ixkkejj8dSw1OVWtNQhHa3vfBLa3yRzHOjO+rjNKlS0qWH7N7Tqr52t3yrxueRlrLFfHVekrTva+hBaoU1wiv67WeeejsOy4ULpzzl6Lw7X38it1L3kSVJBrHUZEGwZs511sA1B3q4dvXTb1x4um9z5bHy2ngEFdWlCrFwmr0WqV53PJWVKOMpKrQmpR3rZKEuzJbmfccJyXlKthKqq0JuElt3xnHsyW9HTc3s8cNi4qNWUaFbfGckoSfGEnq8Hr79p5e27KnR+qn9UfVeN2q715g0bSCE7niZbzmw2Ci9Oop1N1Gm1KbfPsrm/UzadOdSWGCvfcQlfofJnvl33HDaMJWr17xp22wX1p+F9XNrmcjbPuy1lWrja8q9V65aoxXwwgtkVy/q2z4j2Wz7IrNSw/yeb8ezwXV8TSs8cEe8hFkypKY3OOQ7FmRMujEmWQnUiXRZkRdFEShOpEuizImetmxQ6XHYaK3VISfdDrv8p5CNx9nGF0sRVrPZTp6K+1J/wBovzM+0ZQkyLRU3dGcu7+8l6s6KADHPKHl5x5P97wdegvilC8P3ketH1S8zirO/HI8+sle7Yycor6PEXqR4KTfXj56+6SN7YloScqL45r39M/Ji9dXJSNcBIPRCmIHt5qZfeT60m4udKokqkY20tV3GUb71d6uZ4gK6tKNWDhNXpgqjTvRv+WfaDF09HB05qb/ANyrGKUPsxu7vv1d5oVarKpOU5ylKcneUpNuUnxbKgqs9kpWdXU11fmTKtKWpAJAySpEEEgktjIgEkAXRkQCSAL4yJUmk4ptJ7VfU/AgEE3sZjIAAC+MgAQA1GRZFkURZFFSJfFmVEoxoyISqRL4sumdWzKyf7vgqbeqVZupL+K2ivuqPmznebmTXi8XSpWejfSm+FOPxeepd8kdjStqW4xNoTuugvHoZ20630qmvF+3zwLAAzDHB4WdmR/fsJKEbdLDr0n86+r3NXXk9x7oO6VSVOanHVZkSSkrmcCaa1NNNbU1Zp8GSbp7Qc3+jm8ZRj1Kj+mSXwVHsn3S38+80s9tZ7RGvTVSPH0fYY1VOEnFgAFxVjBUsAJUyoLAksUioAAtjIggsQSXxkQAAGIyIBJADMWQCSCRqDAAAZiwSipZHMlkMxZZGRMxI2nMfIHvdbpakfoaTTlfZOptUOa2N+C3mfaJxpxc5aIslUjTi5SNszEyN7th+mqK1SvZ2e2NL6q5N3u+9LcbWAeSq1HUm5PiefqVHUm5PiAAcHAAAAYq1KNSEoTipRkmpRaunF6mmckzrzengK3VvKhUb6Oe3R36Mn2l6rXxt2A+THYOniKUqNWKlCSs0/Rrg1xHbDbJWad+sXqvfxQvaKCqx71ozh5B7ec+btTAVE7udGbehU3rfoy4P8dvFLxT19OpCpFTg70zAnihJxlqCCQdkKZAJIAsjIFSwAYjIqQSCRiLIIJIJGYsEEkAMwYIJIJG4MAEAMwJCB6eb+Qq2Pq6FNWjG3SVWnoQX9Xwjv5LWc1JxhFyk7ktWMqSir2WzeyLVx9dU4aoqzq1LXUIcebe5b+5M7Dk7BU8NShRpR0YQVkt74tve29bfMxZHyVRwVGNKjGyWuUn8U5b5Se9/wDw9E8db7a7TPL7Vp1fzLxvM20Wh1XlotOoAAgLAAAAAAAAAAHgZ60VPJ2ITWyMZLk4yT/uvE5IdlzoV8Biv3U/TWcaPTbEf6El/wBvZGBtfKrF93uCCQbJmKRAAAvjIgEkAMxZUFipIzFkAkgBqBAAJGoEAAkagCD1Mj5AxWNf0NJuN9dWXUpL+Lf3K7Og5v5kYfDaM69q9Va1pRXRQfyx3vm/JCVq2hRs/wBzvfYtfPsGN7GOpqObOZtbGaNWtpUqF09JrRqVF8iexfM/C51DJ+ApYWnGlQgoQjsS3ve29rfNn1g8tbLdUtL+rJLRLT8sWqVZT1AAEysAAAAAAAAAAAAAPPy8r4LFfuKv5WcVO54rDqrTqU5bKkJRfdJNP8TjGU8nVcLVlSqxcZRep26so7nF70z0GxKkcM4cb7/K48/tuMk4T4ZrzPjBnwmDqV56FGnOpLsxi5PvfBc2bdkjMCpK0sXNU1+zhac/GWxeFzWr2qlQV9SV3dx5e+hm2az1az+iPnw5+yzNKjFtpJNtuySV23wS3nuYbNDHzjpKhop7FOcISf8AC3deNjpeS8i4fCRtQpRi98/im++T1+Gw9Mxq2223dSj5vonlzNuhstJX1JZ93Xj6HFMZkPF0P1uGrLmoOcfvRuvU85W5HfD5cRgaNb9bRo1Pt04T/FHVPbl33w5P2fUtezrvtlzXujhpU7HWzVwE9uEpL7GlT/K0YHmXk79hJf8Anr/5DMdt2fipcl1JVjmuK9ehyMg64sycnfsJf++v/kZ6OaeAhswtN/blOp+Zsl7bs/BS5LqXRoSRxxn2YLJGJxFuhw9aaeySpy0PvPV6nZ8Pk3D0v1WHoU+cKMIP0R9gvU26v4Q5v2S9y+MLjluTvZ9i6lnWnSorg30s14R1fzG15KzIweHtKcHXmt9azj4QWrzubODOr7TtNXLFcuxZeuvqW3lYRSSSSSWxJWSRYAzyAAAAAAAAAAAAAAAAAAAAAav7Qv8ARfxIAasX7mn4i1s/b1P9WXzB/wBEu9mygEWz9xU8SbJ+3p/6oAAWGAAAAAAAAAAAAAAAAAAAAAAAAAAAAAAAAAA//9k=;base64,iVBORw0KGgoAAAANSUhEUgAAARgAAAEYCAYAAACHjumMAAAXsUlEQVR4nOzdf2xV533H8W/WyvYfBpsUYQuEY0KTOlpTe1KcVrGlmLgKFBrhGKn5seEYrdPASIOsSvCaSYkrkZB2EWkqCJHaQYCGVVuooyhNIUtDMohSPKm+gylEDStxBrMr1tjgagSt2vR9/Bz7+HJt33vPee4995z3S7J97/X98fjH+dzv8+Oc80cCAI4QMACcIWAAOEPAAHCGgAHgDAEDwBkCBoAzBAwAZwgYAM4QMACcIWAAOEPAAHCGgAHgDAEDwBkCBoAzBAwAZwgYAM4QMACcIWAAOEPAAHCGgAHgzGeL3QDkpT7tq+eKiAz7ro+LyMUCtguYhoApDbUislFE7hSRtoDPNSoigxlufzvt+qC9r985+wFk5bpiNwBz6haRp2zIGJXzqmR5w61SOX/iq+fsmVMyfmls8vrw+SEZuTDkun2ZAkuvj6XdlimcZgo7xAQBE11NIrLTq1hWdjwojc0t0tjcKjVL6vJ+UhNCl6dv+xpKZz84Pe221MnjWT3WgWMZbssUWJkqrEyPRRERMNHUbcOlWquVx/7uR9Lc2l7sNmU0cn5Ihn1VUqawkgzVlXnshSFTZTmWHkSjtpIaS7stUyVFYAVEwESPhstevdDSvkYe2b7LdImSQKsjDaJ0qYET19z2fmpArn766eT1AoVVpiDS21IZ7pseTpkqrtgjYAqrQkQaZhl3mAyXzvWbpKf3ycK2LoZSA9O7er+7OCIj5z+Wq1d94XT+2nCaKexC5h+X8oKqP07jUgRM4VSLyCER+aWIPJHh+/Ui8iu9H+ESTZkGzSe6iB9Pu810E9PCKT3o5qBhs09E+kq96iFg3NNg2SoiW+zlvhkC5i0RaWtsbpVn9r1ahGai0PyD5nr57JnTJoh81ZRWMitKOWQIGHfSg0XKysq1NM8UMG02YOTHR1OBZolQ+jRkjvYfkiP9L4kNlw2261RyPlPsBsRUt+0OdYhIRe2SOjNYe3Hkv7TEfjvDAOBOEWnQrtGK1Z1FajKiQv9fWtrXmMupgRMVInK/iHxUimMz7IsULq1EfmMHauv1H+XR7bvk4NHU5D9MBtU2iGTd+o0FbSyirWtzr1n/ZO21b1wlhV0FwlFv/wHMorjKeVXStXmbmQnKgnnM8oZb6RrhGlr5Kttd2mtnnUpmfQ4Bk78mEVkrIqtE5CtLl91kFsNppXLLl26TsvKKbJ/nPv309W9scNpYlC4Nmdta2+X7fX8t45fHfioiD4jIz4vdrmwQMPn5soj0arhUzququKN9tTS3flWaW9rN/kE5atBPdctuctJQxEPLXavN4sLDB/Zol3qbiLxXCrNLBEzuntA/sAZLZ9cm6erZFvT5tBKSxttbQ2kc4kkr4p7ep7yp7DY7Q5lpuUOkMMibvSa7EO7xmsV1FS+8/E4Y4QLkpHNqImBLcVuSHQImO1vtOpWmynlV8tQL/8iALIqipX2Nmcb2zz5GGQEzu2obLGbPZv3jHnwjJXU33lzsdiHB7rhrcsnDncVtydwImJl5a1ratGp5dPsu6XvuYGL2bEZ0NTa3eBebituSuTHIm9lWW7WY9SkaLv4jxwHF5JsQCHr4VOeoYK611wuXlR0Pmh0PCRdEiVbRvko60lUMATPFG28xy7F7ep9M1MGeUFp8b3rVxW3J7OgiTfDCxbwbaJfo7ql9QADkiYCZsNebgqZLBISHLtLEeItZT9D3g4OECxCipAdMvZ0xMt2ixmaW6wNhSnoX6U/LysrNaUFmOV4LgDwlvYJpuqWxObLnHAJKXdIDZmHj7a25HLsFQA6SHjAAHCJgADhDwABwhoAB4AwBA8AZAgaAMwQMAGcIGADOEDAAnCFgADhDwABwhoAB4AwBA8AZAgaAMwQMAGcIGADOEDAAnCFgADhDwABwhoAB4AwBA8AZAgaAMwQMAGeSfmZHzGHk/JB8eOaUnP3g9LTbK+fNN+fxTsLpdscvj8nZM6ckNXBi2u2NzS3md1A5r6pobYs6AgbXGL80Jvt3Py3v/uI1GT4/NOf9W9rXSFfPNrOxxYWGytH+l+RI/yETLrPRn3tlxwNyd8eDhE2axAeMbkyY8tbrh+Uffvhs+kZ1TETeTrvrDSLSpB8n3nxNUiePS0v7anlk++7CNjhkGiyHD+yRw/ufN5d99Hfwnoh8aq9X2Z+/TX9Xu3eckv27npbOrk0mbDEh6QHTf/jA820j5z+STb1PSe2SumK3p2gGjr8pR/pfkn85+sr4H/7wh0ER+aGI/FJEzszx0Grd0MYvj913pP/QVwdPnvj8PfdtkLs7HpDrF9YUqPXBaUjoz3+0/5AGyxUR+bn98H4HV2Z4aIWINIjIneOXx9r279qx6tWf/H3Fiq91yte/sUHqbry5wD9JtFxX7AZEwF4R6dbS9uAbKacl7re675HUwPE+EXnCd/P/6ad//vdPnL3uXL732GazcVmrRORInk9VKyKva+Do7/GZfa+WRLdJu0LffWyzd1UrlXtFZDTPp9PA/alWNnql77mDpgsZNvu/pBdX2DZHErNIIhtEZFDLYS1xk2ZinGEyXDYECBc1bP/hze9TN9q0bkbkaOXiC5d9tv35hovYx66wz2XC+3cXR0JpaykiYCY8rJ8OH3jezJokxcTYwbe9q33eRhGQt4Gd0+f/3tTGGzkafo//1Z95V/ttwIZFn+uYvsaJN38W4tOWliQFTLctXd+yH1tt/1lsiWnKzP27k1PFaLjYCuNYWrctqFHbzRAzADxRykfO4QN7vFmycyGHi8d0tY69ftjBU5eGJARMtQ2UvSLSYfvG+rFTRJ7y3U/fwU13IQlVjG70vg3fxcY1KCLP6oUodj31b7x/1w7v6sMBu0Uz0ed8+P3UQOS7iq7EPWC8cGmrnFclXZt7zcDjo9t3eTNGG+1Uo/irmCOvHCpqowtB372tZ+07uAsa2qNpYRYJvr/xMds9cmXf1aufDh+dGudKlLgHjIZL0/KGW02wdPVsMytP7+54UPa8/I4sWLiowt6n2t7/RbEDn3E2MS7wmnf1+w5fatTbeI/2Ryu0fX/jFwvwcu8didjPXyhxDpgnvOlSrVjSp0v19vu/uVVsuOy1N+vGMKr98rlWb5ayd6fCZdBh9eIxG3CUKpjxS2P+FcphDGzP5Yz+PyWxmxTXgKkXkS16oaf3yRnXYqz4Wqd30RubmXzHjfM7zodnJvcreqUAL2e6nbpBR2UDG7kwGS6FWj9iFiumTkYnZAslrgHzuFYmXndoJtcvrJGVU99/3H41S+Kj9I4bNl91NliglzyW9rpF5Qu69N0fXBnWT+k7jCZBHAOm2lYk0rV57n1CfPuNtNkBX1PBJKSkdTFzgmt9WuwGFEscA6ZbQybbQwnULKnzVzEP2Y3OvLMnsaRNAt/4i+vxp8SLY8BoSMi69RuzfsAdd632Lnbbr6akTz/+B+LBt1NrfXFbEn9xC5hV2s1ZuuwmaZsawJ1TS/saueVLt4ntXmnI/ETsKtQ4WrBwkXexUBuYeZ2oHCulrKzcu3hDgV7yc/ppwecWFejloiNuAfOX+ume+zZIWXlFTg+0U9ZiK6D3tKs0ciGe09W3t7Z7F7cU4OWaNGC0aojKntU1UxVMR4Fe0rx7+X7viRG3gDG7yOdzGMfG21unPYc3DhPHgV7f76epAFXMQ5Ln38SV6xfWeN2k6gKFTIOGa00CjzcUp4DRjaVay/B83in1cb6+edvkQG8Mx2H0H923wXc7fCmvy2kOQBUlvuULBaniVkbs5y+UuAVMoDLc91h9LlO6xPWQmr4p/C0Oqxjtd1bXTg+0SFi5dnKDb/NVrS50lJWV18+2HivO4hQwZiPxdXVy5guYG6K2OCxsusHbjb7a7lketiZv8eKmbU86ePpgtIrrXL/Ju7rXtz9amMzv9pbG5sgMcBdanALmTv1Uu3hp3k+w/Atf9C42hdSmSOvpndzwO2y1EZbJ/bta2tc4OWRkGLSKs93iekchq7+D+uYEDu564hQw5h0oyEBa5fwq/3PZMZj4LrbTis0XMjtDGo/xDpFhdjR9ZPuuEJ7SjbT2dft2eg2Dd/yhyI0/FVKcAsZUHUH6+mmzK4lYRq/dBN9K5r0BxyOmhcsz+16NfNdA/+aPXhsyQbpL3kG/TVjrc5fS2RXCFqeAQZ70XTwtZPKZWfmKfWxJnVFA7IxSWsj8Ks+gbbOPNZWLPmdSB3c9cQkYM8Abxj+07x23ydtXJQmH0NSQ0Q2irKy83h7lbm+WY1HeVPTrumHp3+CFl98pmXDxaBD4Kq5637Gbs1kn0+G7v1lUqL+DpIeLxO3Ea2GU47ph2HGXahsw9cMXhhKxSEo3iPFLY/LygT0ycmGo2wbHOTselfLtCOq9u9/pXS4rK5fm1nbp+8GPi/tDBKDdpYNvpMwxhA8feF58U9ijdlbxl3aVd5P9/2i035/sUmmXs2vztsh3DQslVgGD4Dq7Nknb6k750c7vmH2xxi+P1dt39Bnfyb3BYrs/V0nTYNCfZd36jSZo7fm5vRW/GX8HWrFoOK9c+0Ai3ohyQcDgGtcvrDFdJv3Qam7i2DiXJr5eGjOBUjm/ykzrfz6mS+D1Z9Kg0Q/9ufXjwzOnzVcNFP1+7eKl5ndRat3BQopLwNTqp6U33lTsdsSOb0FeYnkhcnexG1KC4jLIa3adTvJ0IBBFcQmYK5KQ2R6glMQlYMxBlYcJGCBS4hIwoUk7/otZX1O7OH6DmEAhEDBpfHtPH/MCJo6zJEAhxCpg4nj0OaCUxSVgJk5sFfDYLb5B4tGoHagaKEVxCZgrYTzJ8NQpRQfD3L8JSKq4BIx4OyYGOX6LrwIadXSEMyBRYhcwQY6hO3z+Y+9iavL4MgEOwQkkXZwCxpzIPMgJxtNOCm9OylU5b344rQMSKE4BM9FFCnA+aV/3ijEYIARxChhzDN18Z5LSxl/Oecc5IWCA/MUtYAbHL4/ldU7pI/0veRf32XNcy9JlNzFNDQQQp4BRL+qno68cyulBGkqHD+zxrn5fRO7TCytWrwu/hUCCxC1g+vWTPRJb1g96d6riGfR3jxqbW9y0EkiIuAWMd/xYOTrV5ZnTkf7JiudFO7g7cZbIhB9oCQgqbgEjtovj7/LM6uyZU/7Zo31T1QvhAgQVx4DRbtLo8PmhrKqY/buf9i7uszNIa8Wc8nS142YC8RfHgBn1qhhfeGSkIeSbceqzuweYI8dTwQDBxTFgxJ44zFQxs4XMsdcP++9/zguX2iV1rH8BQhDXgNEqZoNe2L9rR8au0vjlMXl54uRa52z1Il73iDPyAeGIa8CIHYvZpxe++9hmU8l4U9epgePyre575JOLv70iIvf6jv9iKpiVax8octOBeIjLeZFmssF+7dZKRj/S7PGmte1pUs3YC4fIBMIR5wrGs8FWKYO+20ZtdeN1japFZIuYcwtvLE4rgRiKewXj6fdW+c5gq4ZM7ZI6aWlfU8BmAfGWhApmLg+JyLYFCxdJ33MHi90WIFaSHjALRaRXRCpWdjzI1DQQsqR0kWbymIg0dG3ula6ebcVuCxA7Sa9gmhqbWwkXwJGkBwwH9QYcSnzAAHCHgAHgDAEDwBkCBoAzBAwAZwgYAM4QMACcIWAAOEPAAHCGgAHgDAEDwBkCBoAzBAwAZwgYAM4QMACcIWAAOEPAAHCGgAHgDAEDwBkCBoAzBAwAZwgYAM4QMACcIWAAOEPAAHCGgAHgDAEDwBkCBoAzny12A5IiNXBcfndxZMbv79/99KyPb2xuyfq1KudVyfKGW3NqH+ACAROykfND8uGZU3L2g9NyVr+eOSXD54fmfNz+XTsK0r50uYRR7ZI6qVlSl9V9l3/hi1I5vyqr+y5YuEjqlt2c1X1RWgiYALQqmQiUqTAZvzw2090HReQ9EdmXdntfFi9VLiJfyaFp9fZjTtpe/TmykRrIoQUONTa3Zn/f27O7b+W8+dkH7eLsgzbpCJgs6YaoAZIaOCGpk8fn2iiP2UD5yH49Nst9nwi/tTnJOoxEpElEqrO8752O2pB1IOZ6X1c0uLRSzPq+WVR+IxfmroqjgIDJYLJrc+FjEyazVCbnbICk7NdBe1spOZdDm2cLykKptkGXjVyC6wZHQWv+f7IVhUAMU+IDRrs4hw88L2fPnJ4YO5n9n+GY3RiPiMjPRWS0cC2FNRqRoMuFdm8rsrxvW5b3q7JBF+n/weuK3YAie2uGP+iorUbe9lUlg0VoH1DSEl/B+Lo2H/nGTiL9rgCgNGRbtgLIQ1wrmFoRaRSRBjtwV2s/JG0g74qIDPu+5mo0YLXjvXaQx39axNcvtQFtFFjcxmAa7PRok/3Q69U1i+vM1F/lvCopKy83C7vU+KUx+f3lS2aGSC/n6pOLI3L1apDtO5SAKebjgwZMkMdrsOf+R5vwvyLynwFeO983pMSJS8BoV+d1b8BWg6SlfY3ccddq8zWqgk5JpgZOBHv8yfxf31sXhLyMBpw0OGfHDIM8Ptdwz+cxsQgY7fpsE5GtGiydXZukc/3GrBc2oTiCBtTQf/xaPvnv3+b32peCvfbIhaGsdv+IKW/h6IvZhGShA6bat0gpfbHUsG85fS52isjG5Q23VnznuYMs4UbkjZwfkuEAK3EnFn5eCvb4HIcEZlhsqkFz72zjkC4Dptp2WZp84yLZrH7st/vnZFNC1ovI+xouz+x7laoFcMjst3byuLz7i5/Jkf6XvJtn3V5dBMwqEVmrVUWmb3r7ZaTvc6Elpzbet4/FwyLy7Byv9daChYva7v/mVlm3flOIPwKA2WgVtvvpb8uJN18TGzL3ZrpfmAHTLSIP+VfG1i6pM3u+Nja3mECZa29VLdu+97ebvUbLHCGjr7f3/j/fKhow2R4aAEB4vtV9jzdZca8NmmmCBox2ebbaYDHrSxYsXCTNre3yUE9v3uMhR/tfku8+ttm7+iczlF+/0dfUrlEuu+8DCM/A8TfNsYze/7d/HRWRZenjMZ8J8NzddmpYu0TV2u25/y8elr/Z8YKsWL0uUEWhlc7ZD07Lx7/5tdi1LC+m3aXNmzXq6X1SPvPZuK4XBKJtSd2NcuV/fq9BU2EXfU7bETWfY/I2icivtHuiwaLdoEe375L+985JV8+20Loqj2zf5Q3atmWYcVqrn1ra10hZOav9gWK6raXdu7gl/Xu5BsxWGy5NuvF3be6Vg0dTcnfHg6E01M9bLGd1pH3bjPPccdfq0F8XQG7qbrzZjLfaIZNp22q2AaMP/Kldc2I2/BdefsdULC75AiT96Gimosn2cIgA3LrjrsliYNq2mk3AVNvjpphk6ul9UvoKtKDt81OzTv5jtpjLmpisewGiwXfWi2nDGbONjur3viwi/1RWVl779fs2mOng6xfWOG2o32whVrOYFbtAVPiWoEw7OP1sFcwfi8jGYoULgNJRO1UMTJt1ma2C2VFWVr7qB4fe4CReAPIyUwWj/ahVza3thAuAvM0UMDuXLrtJ2lavK3BzAMRJpoDpFpG2FV/rlBbWmQAIIFPAPC52jQmrZAEEkR4wHSJSXzmvSm750m1FahKAuEgPmIf0U2fXJqoXAIH5A2ZyP4KVax8oXosAxIY/YEy4tLSv4bi2AELhDxhzCATfPgUAEEh6F4mFdQBCk88BpwAgKwQMAGcIGADOEDAAnCFgADhDwABwhoAB4AwBA8AZAgaAMwQMAGcIGADOEDAAnCFgADhDwABwhoAB4AwBA8AZAgaAMwQMAGcIGADOEDAAnCFgADhDwABwhoAB4AwBA8AZAgaAMwQMAGcIGADOEDAAnCFgADhDwABwhoAB4AwBA8AZAgaAMwQMAGcIGADOEDAAnCFgADhDwABwhoAB4AwBA8AZAgaAMwQMAGcIGADOEDAAnCFgADhDwABwhoAB4AwBA8AZAgaAMwQMAGcIGADOEDAAnCFgADhDwABwhoAB4AwBA8AZAgaAMwQMAGcIGADOEDAAnCFgADhDwABwhoAB4AwBA8CZ63yX3xKRtiK2ZS5eW9tsWwFE02SuUMEAAIDSQwUDwBkCBoAzBAwAZwgYAM4QMACcIWAAOEPAAHCGgAHgDAEDwBkCBoAzBAwAZwgYAM78fwAAAP//bI6Ckhv7aLcAAAAASUVORK5CYII=;base64,iVBORw0KGgoAAAANSUhEUgAAAOEAAADhCAMAAAAJbSJIAAAA8FBMVEX///9DmTRFpThGoDdAlDNPqkFKpzxXrkdgsk+2tZipqohbr09XrUtVrEhesVJis1HCwac/ozFmtVg1oCXOzbfz+fJAnjA2kCfb2sc5mydcqk88litmsVlSrT75/PhtuF5PpEGo0qM1lCK32rHV6NJJqTXk8OLe7ty+3bqx1KxNnj+Pxoiex5c+ly693bl4u3CBv3osjRpcnk7t7eWWy4xzumWWxo97uHLJ4sVrsWE8pCp3tm4tkherzqZbpk90sWqEuHygx5t6sXORvoxooVmJsnV0pGOXsX2ntY16q2ShtIhkplq6waPF0beio37f39LVdvCnAAAKW0lEQVR4nO2cCXvaOBCGwY4P8EEMAQqlDjkKKdmmSbPJptkuzZ7tdo/8/3+zPrAtyZIss+HRWM33C/Q+M5pvNGNotZ71rGc9SzUtZB9g5/peecTLI9kn2LVurKHsI+xWC8v8TvYZdqsjyxspHcShZfuTW9mn2KW+t+zD0UThcnr3yrZv9JG6QTy1bNs+1PWBqjdxGQPaPV0fPcg+ym6URDDSXNcnS9mH2YXuNoC9aRTED7JPswNdvLILQn2iXu92kgGmhPrkVPaJnlgF4IZQ19WqpwhgRjiahrJP9YQ6QgDzGI5m6iBigDmhPlGmoOKAds/RM8QfZR/taUQA2j1XVwuRBEx6mhzxB9nH+/86s3scQgUQF6+sPkno6Shiw19SYd+wDklCV8cQmz22OX9lWX0yTR0dR3wj+5T/QxevrUhkEH2dQLyTfc6ttUgASxexr5OITX0thraVEvYqCEfzhnbh8SW0KGk6Iwmb+iA+eW2JEuqTc9mn3ULLHNCy8Zt4WCbUByeyz1tboYWomrCB1ebSQAgPqwkb9yB+8xqNod+vJNQnD7LPXEunGCARxBsqoT64kH3qOjrEAfGLyCDUJw1yxYv7PkHYEyBskisapkME8abyHupNGhMfBYZrsy8ik1BvymJxaEQi0hQ1fTZhU/L09nWZEA0im1CfNKKeLoI4hkZvG8Jm1NNLzeCnKY9w1IAWfHmfABo+M01L70MsiPB3UjdmSmiRlihGCL/Y3KW3sBzEojflEuqTM9kIFZqZGSFp+nmakpMoMoqyEfg6y0NoeITp5zHs8QlhdzahZRQiLmIvR+QT6qC/ezsKEEJmNa0ghDzoDzUE0PBYpl9BCHnFf4Imadn0DwUJAa8yZprDIcxrTWUMwfZuy8B0eEEUJ4QaxO8C08UIiVqTVdNKQqieGDqa6bkcwk2t6c0rCYFu3E4Hpmn6WDUlENNxjQDhaCobhqrzICLE05S4iGlvKkAIc6cY3keApuGhhNTeVIRwBPE7lLOEEK+mZG8qTAhyKHWjJYQ+L00TwxAjhNe6LQLTLCPSqmlfhBCgYRxlhFzTFyeEV2v62oaQa/pxbyoYQ2jjjNP7DaBpOBVpKkYIrjk9z5K0otZEpi9KCKuvGXpaTuhZHMLI9PtuNR68ND0LvJwQN323lKaChMAs8TxwTHqaWsRLv9/rT6vpEsKfZFOhCrQihny/sPt9p5pOn07nU0id23KgGSzEUm/KJZzrbsS2bsf6CChN3ww0zWEFkRxIMbJ0Pp+vp6v1qp3rGFCavgs4hCVLJN1iHkVt2l4hbKnermVzFTK0SC6j1pS67znCNp2vS2S5PoIx/eU9QYgF0SQRvfi6zfPrxtYxmC3N2YAgxE2fTNPZdDVlBw5N00+yyTKdBzEhUk0NrP0mq+lchC7RCsrHbh8SQo1p+kSaToUJj4FshIdaKs/ICV1ebypO+BLIaHgxSAmNghCvNcT3Q+KEUC7ixYaQaYnetoTtNgy/uA3KhLxHYg3CjzAu4ruMEDEMjTOQqkEIpHHztDIhL4g1CF8+yIaLFQ5ohBzTr0H4diWbLtayIDQLRM5Aqk6l+QjB8+8KQrE0rUMIwvPfIISI6Xsei3BWhxBC852bBa83dbckBNHVvEMImZaIfnpShxBEV+MhgFhvyrqItQghFFM0hJrpMYLo2FsRtl/KxoteFvcoIfOlb21JeCy/M10MMELkIrLStB6h/JHiKU7IrDX+loTyDfGOIKw2/XqE8jelZwQh0/T9phIe4ZUGraYG/QupeoTy14i3AU6o+VVpWo/wZ9mAm1EiIqOqN63nh/LbthKhydpCZQOpeoTyP6y5JAmZpu8pQ8jcQvW3IXyQDVjOUvZAylGQkLpKbBphyS3wgZQChKTjEzeRsixtGuHJoEzI702bVkvJzjsWfyBVj/BX2YBUQmZv6jSxpyHfh4lYvanl1+5L5W8uljRC7rK0HqH8gemCRsgdSDXtfRhS3II/kGraFKNVdnyN35vWIwTw90oujRBBLC1L+7UI5c/a8Kk+LU1J06+ze2ofy8Zr0ds23PSJZalfh7AtG6+FfIqBV1PWstSxa+0tIHztTbV83ocZdbIUQOON7fFRMQdSZq0dsPyWJpJPLTWo6eMbjFqE8g2/RX3lE2mKW2KdewjjW296MdVc4wkIAawPW4zeW2NbYg3Ct3/Jhks0NCoJnS0JAbx/E9G7GpTQ3ZYQRKFhXkTWO1iIcL1erVd7e/J33ImWDEKG6VcQRmTr93uJxhC+NUnk0QkZps8gXK2iwO3Fgcs1lr9a26i8u0jEGEiVHX+9igK3QtlSXQF4/qaizdvYFxEljFNyXSLLBeQaRmIQogMpDyNMUnK1LocNFZxrKJKmiCVO2/zAFYTyd/i5yA8yMlFNf8qPHHINQTSlqUJ6DOmmPxME3IPwvs/FeF9QB1KiIRzLH+gjYjz0qd13WzRJAQwSETn0IFK2UJZoDCF8WoqI1ZuW38GihHAamlRD4d7UEyUEVEkTMSwR+bZ9k6auGCEku0/FqDVl03dFzD6qM0CehohmggMpQcI92TxlMdrv0rJULEuh1ZlE9LlpqdaIVZorOM+KQozmlOxNhQjHQEZQhOhBRL+QSqqpUAihWUUqRhDJNBUJ4S+yWRjyqjbeMaEnEkIw4wtCdE9EBlLxuMYRCCE4t89FnQ2beK3xGxxC1goD/6VQ9QN4DGNbQRf1JexhvWk1IbCHIa7QpAWxIIxe+tPKEEItpKmo3y1gF7HS8ME9mwjRGnCE0PCrhhhA25lCC9pTGBl+m5UxhPATfK6O+J9FmxWPpyv5n1tW6kM5T5EnlMEnBO0UmWhfnDqiMYReZlJR6mlOqH14z81RQKsKnspTqXwgpf3yGy+CcBtSXKHL/Mme9vsfPEKIL3uqypt9V4QQ4HyNqdIvabJqGnxmE4L3ekznJOImiMEXJmEjjAIR2b1lhJ3fxyzExlzCVENipOFlhF8ZhKDfTFQtiSCmvanR/UInbFKVyXRK+U8Qbdb99y0VEMTHwHWFF9RkIKV96nZpTc1Vo8poIfyZEdca7U8q4fhB9lG31e2ASNOY8I/SRQQ+t+DqEkGMe9Pgc7f7mSQcfwL/6OUIRYwJv3a7X0nAhjk9KQTRjVuabrezUgoQRYx6U6cb6TccsMkpmqpA9CM77OIXUQVApAt341La7eyrlKKpMtPwtM8xYdF8N+ZNX6ns/zH9LwlhJ+tkHmQf7Ol0N0j68HknAeykpt/MXpSlpREhBn+mIez8vRrvjffgbgm30tAPtCC9hp39/f33V3817MFbrfDdINgkaUR4oFSGZrqN3XB/Qyj7MLvRP0UIr2WfZTcK/80IX8g+yq6Ux1DRELZaB5tKuq9CM0rVdUfpOhMpVP0atlr7aQgVJjxICR9ln2N3eqE84WMCqKrfx7pWnjBMAFUmbB0khMoafuubIVTYDiO7iEOoPOELpQkflSe8PvgGCF88EzZbCaHCjXdMGIXwWmXHjwkflSZsPUaEj0oTtsLra8UJI4XKEz7rWc/6xvQfB0dYePp+cmsAAAAASUVORK5CYII=;base64,iVBORw0KGgoAAAANSUhEUgAAAL4AAAC+CAYAAACLdLWdAAAn7UlEQVR42u19W3TUVtbmd46kklTlK2CuNhhssAHfMISQKwlJhySQkAshJOn06jUz/8PM/KtfZs3T//KvNS8za83jzNOsmenuSXc6TbiEW9Ih3enudEjAgO8GAgZsjLlffKmLqko681DGtqSqkqpKZVeVpSeoKh/tc/Tp07e3zt6bXP/PJYyAQXcQxD1Igs+nvmdJvrQ4BUlzXBt2TR/baq6p2fX4Xyzpee2MOfURy+gaxD8vszinjblO/iPFuca9BtM/ZzbOaffaM9t20djPDR8nsIUlxx8YS2IhszgFS3NcG3ZNH9tqrqnZZXFlmP0xmfFKpXkN4p+XWJzTxlwn/5HiXONeg+mfExvntHvtiW27qF1AOAJ+5Cj4kaPgh5Pgh3PgT+WcOQp+qv8+y+BnOcr8GduVJfAzJ5mfOMf8jOQ981Pz967scWVP4cseGn8RXNnjyp7Clj008SK4sseVPYUre2jyhXeZ32X+wmR+ar3wLvO7zF94zE9ha+Fdh9d1eAvL4aV2n1+u7HFlTyHJHppwkVzZ48qeApY9NOkiuczvMn+BMj+1XCSX+V3mL0Dmp7YWyWV+l/kLjPmp7UVymd9l/gJifprSIrmhTgftyiLzu6FOS/DTlAHhyh5X9hSA7KFpLZIre1zZk+eyh6YNCJf5XebPY+anGQHCZX6X+fOU+WnGgHCZ32X+PGR+6gggXOZ3mT/PmJ86Bgg31OmgXVlkfjfUOZF66CQgXNnjyp48kT3UcUC4sseVPXkge2hWAOEyv8v8Oc78NBEzuczvMn8hMz+1xZyuw+s6vAXm8NKsA8KVPa7syUHZQ5kNueDKHlf2FJrs4R9/aJc7GSNJy3YzlqCUdZyTMBB92e4EhiQcM5lNhIArr4awZD1AOf1Xdh8TxMZvid2h4pcnZ2oE6u0eqCODIMx6LfTrQRIjmsQZIu41ePwRSYpCq2uQ8LxJz2ljrlZLnGiucQaY/hs+qTFIBMTcB7+wpAklO/8bPCu2mICfU4cWQWToDMaP/ydEb3baB0S2wM9YkuueKvjJtD/MEPyPWZ8wR8BPU9JV+SJ7CIG07nV4lm/ObdADABUgVG2GtOEXruafQc1PZ0UHZxn8hPeCm7cK4ATkxUE4eFb/DFxFvav5Z0jzU9thtnxyeAkFaJ6AfuLgyqohNb4HIsi5xfwFGurkE2msfHd44x3qw0FE711OgYmTfcwyA3pFHbiSZVOToBzEdW9D6TuE6K3u1HWw6/CmpPn5ZCPmu8NrPEI9hzB6/F8SAnsmG9LJm/8til75LyBiydTjt7wa4vp3EL3dCzAtd8BfgA6vZdHYfHd4UzlmMs4fvvwtoncu6m8W3gPP6lfAlS3PwC7X4bUje2wVjc13zZ90YWbpJZc6ch2h9v8HFg3pHjH8wvXw1O8E4Ty5B/4Ccnip3dvJZX6H56pGEP7pBNR7lwziX4C47i0Q38IM7XKZP9k5ac5t9spqqDO3mF8dHYJy/iiYGtZ9zi9qgFi/M8ZL7vaGrDC/dZWFQgt15tKNzhiUrn1Q7/6k1/piMaTmD0BLljlgVxaZP49DndQRQOSY7EEe7epUHw1A6T0IGFl/STM8K54GCHXALlf2GH9gv8pCHjE/y+SGnGHZw6IKlN5DUB9eM2v9lg9B5DKH7HJlz/QfpFZlId+YP0ObZgr80fv9CF86Yfodv7QVnlUvJg2Uu8yfHvOnXmUhzzR/XjC/FkWw41NoI0P6i+Mth9TyEYi3wkG7XOZPCHyX+Wfe4VXvXIBy6QSgqdPdXAjLt4Bf1uqmMTrs8NK8iYAUuOxh0RCUngNQx26aIjzyho9BBNlNY3RQ9tCsh/9c2WN7rpHBUwhf/FI/eUIhrHweQvWzACFuGqNDsofaMSYvZU+arDObzM8iQSg9B6EF7uvZSS6HWL8TxFNsa64u81vLHuoIIHKV+Z0Gf9aZnyFy4xwi174D2DStTwjENa9CWNYaf64u86cMfuoYG+YU85PsgT/LzK8p4wh1fQ4t+EjP+sWLYokqnGT7RneZP/GQ1FFA5IjDa/+Gy03mD1/9B8KX/2zwxnh4al8Cv2i9W7rEAeanjgIiR2QPS+F+yMUbXQs+QKj7AFhoVH+xSishrnszlp7oVmzLCPx0VgAxQ7IHMwH+bMgexhC59j0iw+dMA4jr3gS3oM40tit7UpsrzRogcsThtX/O3JI9WvAhgm2/BgsHdJ9z5dWQN3wEwovJwe/KnqQfULAssmGuMn+e1OoMD/6AyI1z+g85AZ7abaBlVXHHdpnf3lypHbDkJfOzGQZ/FphfG7uFUPd+MGVcj/0FqyGtf0e/Zdll/pTAn7C8SDxjUq5fmWDsGSldEucQqlpRtPVXtn6bdEymIXr3IsL9fzfkzFpO3aJKgmGumorwheOItnwAYfmT04yjEBveRqjrM6gPB+KObapUkZFdhVe6hNct0GyCPxVApAl+cdWzEFc9i4wPxqAF7mPsT/+KQNtv4lOMQ3NVx24h2PEphKpNAJkqh8jNr4VnzXYE2/4PoEWtwZ+xXYVVuoTGfTQWkuzJxkEIqG8BvFv+CVzJ0uyGOpmG8OW/IHrngt4EQYbU8iG40sqk53ZDnfHNoAl1YT47vGoELPgo63cDX7EGnrrtAOWz6vCqjwah9B0Bi+hlFb9oHTx1r1mezHV4zR8ZqiUXBvOzqIJg31eI3r+SVfATQYbcvBu0eGl2HV4timDnH6Deu2hm/ab3QIsXpwZ+1+EFb9beOaL5M3R4lct/x8iRf4FU/wrAJy8ga/e8fEUNhKpNumJPnmUtEGu3InDmE8uygplofm3kBpSLfwK/uHFaNIeAX7gWnhVPI9T3hSGJxXV4kzm8pP+fy+M+cXQLRDKIgMCiziSxAUKSxrjJ7CLxPmKWvxGWNqJ87/+GsKhedzXCV7/Hw09/CXXsTmZztajVyS9uQNneT8AtqNV9F750AqOH/iO00WFb57aaa2p2WTwiiP0xiZG6SXp4i39evcObeMtCIWl+W49c62SW6N1+hHqP6r8kBEJlK4QVWwBCs7q3J3rnApSLX5lLkVRuiiWq2BTyrsNr0fUwpzR/DoCfRYIInT8O9dENPbl4vJCb3gX1ltuyKe25qipCvYegjt/VfU6lUkgN74CIpemDf445vJZdDws61Jky+BnCQx0Inf9KHzsHINZuhVj74uQFy9Yb3sitHig9ByfLiMcwQuFZ9QKE6mfArFoXuw7vVF0d67f7ruyZPLQoAh37oI7d0bOuXAa56R1QqcS2TemAjCkBBHsOQh27pX/qiEWQmvaACF63D68N2UPtMqzL/NO0/q1ehC58ZWbdmucgVLXqvC/nmZ8hMnQO4ct/Mf3As/LZya0Nbh/e5OdNqeuhy/wTpB8aQ7D7MDT/PZPWlpt3T20Zzhbza1GEug+aNq9RXwWkxt0gnqLMwD8HmD/lroeuwzuh9a+eROinb02/F9e8DE/1U6YL5TTzRwZPQfnpa/1Th3IQ1+6AsLTFPiDmKPOn1fXQlT2xAlCBs78DU8Z0X3HFiyE3vQMi+rJ6o2uhEQQ7PjM/deRySM17dFuWM2L+Ag110nTlhSt7gMjNbijXfjAUgCIQ17wMYWF9WjalArLIwI/mRBVC4Kl5EfzihtQAMcdkD82EYec682vj9xE48ztTASiuZAm8T/wi4eY1p2SPFhpBoO3XYGFDokr5Csgte0E8PmfAX4CyJ+Ouh3Od+ZXLf0d4oM3AuhRi7YsQljSkbZMtkDEtVnZw8LSp7KBYvwPcvJWps+EcYX5Huh7OZebXAg8ROPMJWCRoYN0qSOt2TnYqzxbza/57UHoOginmUiRS43sA5ZwDfwExv2NdD+cs8zMN4YE2RIY69D8kFNL6neDmr8rIJjsgUy79GZGb3fqHDi9CXPs6+Hk16engAmf+5NWS3VCnLfCr47cRaP8MWkgf4eEX1EBu2WOZqJIp86ujNxE89wlYJGA4/2qIa3eY3iu4zG+nWvIclD0gPKhUCuot14MmEfgZQ6jvS0QG20ysK6/fCX5BbXbnqkah/PQNorf6DFeXh9jwNmi89EQnmD+PQ510alNVBuAvINlDBBly45uY9/GvseCfDqLouf8A6ptvCX7Vfw/BvuNgUUXPuvNXwlOzFYQTslq3Rxu/i9D5o2BRw5blijqIa3cm7J44V2UP96sn5H+d/uOkm/xTShoh+u8zSmYhDtqVbFwCed0rKN/1X+FZ1gyuZAnElU+BhUYRGTqnz3Ayjsc0aCPDEGueA1e6VKf1ueKFUC7/FVrgYRbnyqCN3Yan+ildAjzhPOB8FQhf+jNY6FEG1yDJtbVzDSyTWYjlee0nsxDL81LjL+Yy81OpCN4Nu8GVLNbJFW/zu+DKl1ueJDp2G8GuQ6Yty3zFGkjr35gsD5It5tceXUeo54s4ndLXQ1jxFCwqRs4p5qfx7pe5qfkJhKWNkFa/YAoB8ovr4W3ZbZYLzDyBYM8RRG726lfV44W3+R1wZcsyn2sSx5KpESh9R6De7zdcZQ5y68cgvorMy7QUiMNLEz0s5hrzg/PA27oH1DvPvCKcB3LDG+DKKi3PqY7cmND6xk7lDZBqtxq2LDs/1+j9Kwj1Hjb9QFjWDLHuVev0yDni8NJkomouhTo9Va2Q6l5OOCy/sBbSmm0AFZIDIRpGsOsgogbWJZSHvPFD043luOxhGkLdh6A+HNSfXyyB1PAWqG+BrXELXfYkqZY8d2QP8fjga30P/DQpYo5wSvBu+ig+6xtOErl7GYH2ffotw4iVIpHX7zBJKadlj3rvEpQLXwJqRH/+6qfhWfms7ZuqkGWPRbXkuSF7hIoaSHXbkob8AEBYshbyuu2JGe7xSTQVoYsnoI4MG7S+D9La1+PKKSeZX4sqCHUfhGooN0IEL+SW93Wb1+Yk87PpyeZzlfkpD9+mveANURumhs0N2MRieFvfB19eZfmGN3r7IoK9x8EMrCuueg5S7YvOzjUOw4ZvtJu1PiEQqp+Bp+YFe+mRhcr8MCabz0HmFypWQ177ikl+hAfOwN++31SdTFjaEKu4TLmk4GdRBcGOz6EZWV/0Qd6wB0Qsdn6u038XCSF0/hi0wAP9zSuVQKp/DUQsSWncQmN+c7J5tpk/h8BPeBHyuu3g5+u377JoGOM//BrjP/xfRO9fM0V4vBvfn1ZDJ/E5w8PdCHR/AePmNU/1Foirnk94MZ1hfobIjQ6EL/3FcPMSiHXb4Zleb38OMn/8ZPM5Inv4+SvhazVu3Z2ondP/HSLDPQj0HDU7qVUbIK97bVIuJLKLhQMIdh+BOnrbxLpy01ugcll22hI9BkLYj8DZT6AZC1D5KiBv2Bt3y/RcCXUmTjYvdNlDKOTmN8FX1JjAGug8NAnWQPt+RA1yhYolsTe8RRWWdkVu9kDp/84kmcTarfCs2Jx0zk7InshwB5Sr3xlieRyEFU/FeubGAdJckD3Jk80LmPn5+dXwNe8CESS9tr/egWD3kUmWj9y+iED7fv02AEIgrnwaUt1LlnaxcAD+07+FOqZnfa64At5NP58qQJWlnlxa8GEsKd2g9bnSSsgte0A83rRuqnyXPdbJ5gXI/ITykGqeAV+x2hDJiSDQcwzqyO1pel9BoOsw1JGb+jH4iTe9UrGlXZHhbiiX/mYwgoO48inwi9Yi08oByW90hvC1k4hcP2MaSKx7dYL1MbPgzwHmt5dsXmDMz5UuRdGTPwfhPXqA3r6AYM/xGLtPsytyqw/Bvj+ZDPJUboBY87wp/m+0Sws+QqDjc2h+fVI6LVoIb+seEI9sOedMmJ+FxmJJ6YZEFa60EnLTbhBOnHnwzzLz2082LxTmJxTehtchLNEzHdOiCHQdRfTBQBy5EkKg4wDUMYOT6C2Dt/ntmJOazC7GoFw9ifDAadPvpPrtEJY02lqgTJg/MnQmtrVah3wBYv2rsfTIbGSt5TDzU5YKUAsg1MkVV0BuegNULNL9Jnp/AIGuw2AsnqEM4aFOBM9/Dabbckwg1W2DuOppS7tYOAD/qd+Ahf0G1l0G78YPAaPWdhj86uhtBNp/DxbSJ6Vz5dWQm3bHIluzAf5ZYv7E1ZILUvYQSGu2QqzebNb2nYcQvXcloV0sHIT/9O+gPjJEeLzl8G3+GFQqtbRLGTgNpf8fBrHJQVr3KoSF9baaU6QNfqZB6fsS4aGzhstGIK7fBa5suQ2QFU6ocyr1MFfAn0XZQ6QS+DbtBeH0OyzVB4MIdH6hSxtkcUOTvQhd/LNJOokrNsOzfGPCFKbHdmmBhwj2HIEWNLBu8SLIjbtiW4azCH4t+AihvqOm0Co3bwXEta8Bj9dlDsgeqgNsITM/IZDrXoK4fKPpZP7OQ4gM91napYXGYjF+0wuhefC2vKurjR/XLqYh2PclwgOnTDeP3LQLwuK1ttgwbfAzFcr5LxEZ7tQNSngJ3tafg59XbRNk+S97pr3AKmzmp3IZvE07TOBUx+/FIjmPtXsyuxiDcu0MwldPmd7mSmtegLC02dIuzf8QgY79pkQVrnw5pPrtk1UdsgV+deQGQr2HwcKGAlgLVpt75hYw81P9nVa4zC/VPgO5fpt+V6IWRbD3K4Rv9tm2i4X9GP/xN5OJ45PAKVkC3+aPJ2vTJ7RLU6Fc/g6RGwbWpTy8ze+An7fCtg5OC/xMQ7DrAKL3LumvliBCatgFWrJ49sE/A8yfOPWwgJifikUoemIvqFxqYL+b8Ld9ZmI/K7uUgTYEL3xjclLl+pcgLGu2ZLDoyDCCXYfAFEMBqIWrITe9o785swB+bXQYoa4Dps1rwpJGeFa/bC6AVYAOb4IXWDnI/OmCHwSeymaIKzaZXjSFLv4VylB3ynZpwREEzu2H5jds+fXNh2/jXhBetnybGug+gsjNHv1K8RLkhp3gy6sTz9cB8LOogtD5Y3FYX4a3ZS9o8aKZqU43i7In/gusApI9VCqBb9MecCWLTNp+/Nzn0JSx1Lc0MwblykkoxirJAOT6l+BZ1mgJCPXRDfjPfGpKVOEX1UNasw3EkNvrNPijdy8h1HfM5GsIy1og1m4D4vVALyDZY9EbMv9lj6eyCfLal4xCG8qVHxEeODdpUKrg1xQ//Gf/CBYJ6Re0eCHkxjcmt/wmGpdpUYT6v0P07mX9KnEC5Oa3QYsXJZ9vpuBnGkJ9R6GNGfYgiSWQGt+eyjcoUOanSVPo8pz5CS+iePMH4A0Om+p/gLEffgvN0DwtNfAzhC79LfZCatqECCfA2/I2PEvXW44bvXcFgc4DprKDnsoNkJt2JXggOwf+6K0+BDv+aKgQR+BZ+Qw8NVsnpWEhMj+1ZUyeMr+wuA5S7TOmtELl6imEhzpSv3DGGjr+B/C374cWHNHLlZIl8La8Y+hDFf9tarDHvD+IiD7I63fE9vun0YHdLsi0cBChni+gjhg6tQuxTu26pPQCY35qaUyeOrxEkFC0cTf48ir9xQ48wnjbZ1DH76d34Qybz4Lnv4FyzbD5jHKQ178+qfWTjRu9dwXB7sOGsoMEnuUbIa56JnbzZBH84Zu9UPr/ZhrAs3wLxJXPQV+ds3CYn9oyJg9lj2fJevia3jBtIwhda0PwwrdgmmY7/JfMLjXwAP4Os1zh5y2H3LDDlN5nHJdFQgi07zOzPi/B9+QvpnZ+Zgv8mhrr4xVny7Tc+qFp52nOMH+G4KcpG5MPsocT4G14FVzZUv13agT+9oOT2t6RNEZNRejS3xEe0r+QAqGQG3aAn7/CctzIncsI9hwz/U6o3BCr3vZYMmUJ/JGb3VAunjBpfbH2BQhLmjKUF7kpe2hKxuQJ8wsLV8O38V1DogmDMnAWwYt/TSv8l8wudWQY/jN/gBbSO8tCRS18G/cm6EM1bVwtikD7PlOWF5XL4N2wG9Q3L+nFzBT8TBlDoONz0x4kIpVA2rA39kKL5SD4M5A9NG1jcpj5fc07IczTF4jSFD/87QdNFQ+cAn/w/AlEhs19qOR1r4JP0Adr+riRe/0IXfrWtHPSs3ILPFWtlpPPFPyRwdOIDJ42XRexZmvCPUj5zPw0LWNymPn5ecvh27DLXCDqeif8HV+YNpc5Bf7oyDDGT30CFtZvQxAWroa3+a2E6X2Tb1MVP/xtv0PUEGGhUhl8T/7S3CndYfBryij8p39tilBxpcsgb/ggVgArY8cyd5ifWvF6PjE/4Xh4174MYcFKkwPn7zgMLUkkJ2PwqypCl/6GiOGFFCgHb9Ob4EoXW44bHupA6MI3hiUhEKufhGf5JhvUlgH4GUNk6Kw5KZ1QSHXbwS+odSikmBvMT+0Ukc+XUCc/rwrFm983RVLCN/sQOP8NmBrNavWG6KNhBM9/Y070KF0CYfE6S0AwxY9g1xfQAo/0945vPuTGt0Di7fd3EPxa8BGCXfuhhfSsT0uX6rs3FgDzU1uhkryQPQS+ljfhqTTEzsMBjJ89iMi9AduhoXTBTzhPrNQ4MYcsJ+vaWLSkVAba4mh9EnsvULXRJrWlCX7GELrwNcLXfjDNS1q3M3bzOhZSnN1Qp41qyfkhe7ii+ZDX/QxE0GvpyIPrCPR8CTAt66VLPMsaIdU+a9oFqlw7hciti7BzaEoAgfbPoRr3+xctgHfDewAvZRX8WuA+gl0HzZ3ay6omujd6HAspzqbssVktObeZn1Ae3nUvQ1qxAbpdeJqK8bZ9OrbPFviJxwdv85v6joeI5dn6234P1VDdIBnzh/q/N+f2Uh5S3UvwJNvv7wT4NRXK5W8RGe6CMd/A2/qhuVN7nsoec7J5HjI/LZqPok3vmrR95P4AAt1fmnZQZgP8wsJayA2v62UOYwjf6EL4esfEE8feoQVHEez90tQpnSteBGltLD0xnQ7sdsGvjd+Jsb4xPXJ+DaSGXXHfS+Qb89MpliZ5yvwE3rXbIK3QRz2YGoG/4wjCt3+KywBOgh9UQNHmj3RpgzEAj2C87fdQp20HsNWNkWkI/fRtrAAV0zd28Da/BWFJg82gQ5rgZwyhvmOIDLXrV1qQITW8NVWKJI+Zn5r/KL+Yn/OVo6hlF6hsSCIfvQ1/5xFThCUbzM8vqIFU96KpbIly7RRCF75Nqxvj45vGpLXLl8PX+t5UUnqWwK+ODMeS0o17kBbVxxJVCJdSxC3XHF5D0VgHZc9MhDoJgbTqSUirn9ZLDE2Fv/MYwrd+ynrFNsJ74G141fTugEWCCHQenmL7NAChXDkJZfCsIcIiQKr/Gfj51SlcgzTAr0YQ6j2G6F1DeiLlIbfuBS1aBLtHLsoe3vRHj5sdPP4zBqsm0WAsQS2laQCNjRhnKMOHk/9NeN6JsRjAScUoefpjcznAh0MYO/2Hqc1oxqGY7j4CA5kSehbzNc6VX7AKvo17DAnaLFZuvO9r/RMn0VwT2KWO3kbg3D54qlpAp7UO4hfUQG5+C5Fv/vvk+EmvATGDnxgf83H+NvLgGoLtn8XCmNMiVcLSZpTt/p9QR2/aRL6K6M1uhLr2TVWnSLLOjBEQwlLHW5z5mK7txPryyf8ImYPfCFgHwS+u2ABxeYvp2+DlHxAePm91/RODwS74CYVc/5JpByZTo7HS4uP3LIGY9FRMQ/D81/Bt/ghitb51j7dxFwJnP9O1KnIc/IwhdPEEfE/9O3DlK3RaX1zzMpAC5zNlDOA9CPzjf9iafNbAP/FdkqKxue3wUm8Zird8CK5koSF8+AhjP/4+FpHIct0efl4VijbtATXso4ncPI9A74kkOsK+XerYHfhP/Tb21nn6o3rhGnhb3jWVOnda9kTvXkaw+7C+MUbKB4nl8q7dmTOyx1bR2Fx0eMXKJnjXGnrTMg2Bi3+DMtRlH2TpOryEQFrzoi63FoiV7vB3Hkb0waAzfXiZhlD/SURvXzRpfXndq+BKlqThd9kHP1PDCHbuh/pwCBkfE85/LoCfJj13jjq8hBNQsuV9cL5yfSRn7C7GfvidqShrNur2ULkMRZveM8W0I3f64T/3+WTZkIz78AKIPhxEoPOgeefn0ibIjW/EfeY7Cf7Ird7Yzs3QqM2YVO47vLylDs5Bh1esaoS85jnT1oBg/48IXTllqfkydngJhXf9dlNObaxQ1FGoD2/Y16t27FJV+DsOQm54Xbc3nwgSvBveixWyfTSU2jVIQfOzqAL/D/8L6oOr4MqXgxDrpnP8glp4N//SEo/EpiPmtObnbTlbOeTwUo8PRRt2gS/VP+K10BjG2j6HGvIncRZTcCyTgJ8rXoCije+a+l9FHwwi0HXU0DzCAfADUB9eR6DzEDyVLfoIy+J6SDXPwd/+x7jvLBwDf9iPYPcX05Ve0kNas80S+LMJfmpbb+aIw+upbESRMdGEaQheOongT9/HtgZkuW6PVPM0xFVbTFo40H0c4VsX0ntkW9jFomEE+75G5G6/njp4Cd5NH4ArXpSB9Ewjzs8yve6zK3uobUDkgMNLKAdf43ZwpYZIjuKHv/PYhLbPbt0e6vGhqHU3qKF1jzp6G/7uY2DRiMVapA/+yJ1LCJ0/YSo76KlsNrUezQXw57LmpykDYhaZ37OkDkUtOydf1z8+QlfaEDj/F5NQd5z5CYW0+llIqw1bjxmDv/MolMEOm2yYJvg1FeNtv0f03lW9oy2VwrtxL2jx4vwB/ywzP02LDWeB+Qkvwtf0GoSKagPbBzB25nOoo3fij+Ug8xOpGN6mneZy42N3EOg8rIu6ZAv80XtXEOw9rs8dJgRi1QZ4qlrBLLJJXeZPBPyUmX9mQp18eSWKN75tiOQwhIe6EOg5ARZ3M5qzFduk6k2x5hIGFg5dPjnx7oClqINTBz8LBxDoOoLoI0PZP48Pvk0fgEql6QNiDjE/zYgNZ0j2EMqj+Il3ICyoNjl8Y2cOQB1/kPXqDUSQUfTE++DjlBsfi1NdIZvgDw91INj3lWlwqeZZSHWxri95BX7MPPgpy8SYGZI9/PzKmLb3GJLIh8/D3/ftDJQuIfAsroNU85TphVXwp+8QntD26c41ZfBrKgLn9uv2+QMTDaebdk22Hs1F8FvZNFPgp5Y4nW3mJxS+lp0Ql+kTnbVwAKOnPkP0/qDNmy598BNBQtGmPeDLK/U2BB7Cf+4A1MCjrFZviGdXeLgnVopEp/UppDUvwFPVkrkOng3wz6DsoWAEzoHfeebnvOUoanrN9JY2em8Q/p5vdC+LsgV+YdFqeBteMf00NNiO4OV/TIFvBsGvKX4EOg6YdoBSuQS+1vd1STEu85vtmniBRQBGco/5CYeiltchVhm3BmgYO3MA0XsDWa/eQHgPilrfNrE9iyoY+/430ELjWa/eEH9shlD/SXMBKhBI9dvgWbHZmQhIBuC3vu6zx/w0hfFmnPn50kUoeTLOtt+7VzHefmQqkpNF8AsVNfC1vGHa/qsMtEO5diY+GGYI/FrYj/Gz++J0Sl8Ib+MOU9nBvAJ/lh1ewwssJ2VP5qFOb91zEJc3m5m24xjCd6/YsytD8Pta3oAwXx9N0kJjGD+zD9GR24nBMBPgZwzhG51Qrv1oqAlKIDfsgMdYACofwZ8l2RPnBVZuyB7OV46SJ98zbQ2I3L+OsTOHTIkZ2QA/X14JX9MOgOqXKXzzAvxdEy+Rsli9wQ74Nf8DjLd9CtXQepQrWwbf5p+bnlSu7EkE/ByQPSAUcu1TsQJRhjo1/q4/IXKn39Y5MwE/4QT4GrfDs2i1watU4W8/ZAolzibzK/3fQ7l2yrCEPKTVW8EvXONI+K/QmD9x0dhZZH7qm4eSpz8E9ZYa2H4Qo237oSl+ZLt0CV9eieItH4EIkm4k5UYPxruOmZ84s8j86vi9WPJL2G94YlXB27ADJEHZwayCP8Hf5Uqo01bR2JlmfmlFC6SVG01MG+w/hfDwhRkpXSKveQ7CIn1pbBZREOg7geiDIVvENmPg1zQo/d8jfKMHprJ/Tbt0pUhmHfw5Euq0Lho7ww4vlYpR+sxH4Ivm6z6Pjt3F6MlPp8raZRH8XPEiFG1+H9QTJ5p0Tt9cItt1e+wCQh29EytAZdg6wVfUwLfpA1On9LwFv0PMb69o7EzJHkIgr9oEX/3zeoeSMYx3HEdooCPBIjgIfspDrnve7F9oKsbPfI7InctZr96QLviDfV9DGTAUoOJFyA2vxVg/aYnyPGP+DMFPU3U+syl7qCCjuPVNk7aPjt7B2JkvTM3V4kqVDMHPectR1PKmQdtPlBvvOwEWUezPdYaZXxu7i0D3MVORXGHBqliiikWxVyfBjxyXPTQlNswy80srW+Fbv8304+DlHxG80gbGmMXjL0PwEwLv2hchr3lG/1s1ikDv1zH/IlXWmUHmZ1qskFX4Zq/pKeZ74oOpZtczxPz2ozkzL3sSv7mdYeYnohfFm94CV6bf9qspAYye3j+p7bNZt4fKpSja+JY50WT0NsbPHIibRJ5rzK+O3kag/YCpyZ2wcDXkddvtlfjOJvhzZG8Pn+gPk1ZSeOzwEpZZRYNppUvEygYUb9gJQvUmEcph3iv/jLKt/0b/OUlzhZOFUT1yrJWQ7t2BBn/nMSg3epOfyqnSJXEAQUhyQOgqDzANwd4/oeipX0JYOPUOgni8KHnxV7Ea/tO7uhPn1k+3ltN781qsV9pzTbC+Ca/B9JqnCY2AvTIizGrtbJYuKW55HZwhkgPEtgTLNZsxW4c6dhfjncegKYHkN5xDpUucAH/0wQCCPcfBP//vdW9uubJl4MqWIScOp8Fv5xRW5UVS0vwOyB7CCZBrn7RD4zN+BM5/i9DVNnuP5CxUbEtHCjA1gvEznyF6rx85fczifn5qacRMOLyaZi77lwOHpoxj9Mc/TEVyslW9IQvgj969jPEznyVtjDHj6xl8NDP7+VPqepgJ+DN0eJmmYuTkHxB5cMPZlP1MLlJoHGOn90G53hnfec5S3R6nwM+iYQS7jiLU/32GlY6dYHYG9dEQAmc/Nc93lhxe0v3LCmbycUiyeImFeCUWry9I/P8SToBYtR7CvGUT2VZM/xu7c7Th9BIbf6eFxhAe7IIaeJB0KZOqM2LDNDL9n8z2PIjl97Gx+PkrICxeG3eXZsJTkfTXN+7XTIM6MoTIzR5dMSyTTiCZzTUlvD0GvmPgnzAiHfCbP2T2bzirRSIGwKZil0XkIyPwm753HvxO2GV7XFvXADMHfhL/o8mcW9PjYDY1/+SH+dyNMbc0f6Z2pSIx8iGBnU6PzjgG/gw1f7wPC6UD+2xpfifsylvwxxmT6pjaaeZH7qQxmk+Sg8yfi+BnBQT+uMDPFvhd2ePKnhyUPTQRU7uyx5U9hSx7aDKZ4jK/y/wFyfxIWjTWZX6X+QuX+S2KxroOr+vwFqbDa6NorCt7XNlTeLKHTt8Z68oeV/bMFdmj25bsMr/L/HOF+U3bkl3md5l/LjB/3K6HLvO7zF/ozJ+w66HL/C7zFzLzJ+166IY64YY6M7QrV8Fv2fXQlT2u7ClE2UPtLLwre1zZU2iyh9pdeJf5XeYvJOanthbAZX6X+QuM+en0pESX+V3mnyvMT6cvusv8LvPPFeanxkXPWeaHG+pMiWFzEfw5FOqk8RbdlT2u7Cl02UMTLbore1zZU8iyh1p1s3CZ32X+QmT+JNWSXeZ3mb9wmd+i66Hr8LoOb2E6vDa6Hrqyx5U9hSd7bHY9dGWPK3sKS/ak0PXQlT2u7Ckc2fP/AQ++O/mYZZP8AAAAAElFTkSuQmCC;base64,iVBORw0KGgoAAAANSUhEUgAAAOEAAADhCAMAAAAJbSJIAAABKVBMVEX///8xr0HHycirbUYyrkIxsUH3/Pj9//3KzMspszstsz8mrTjMzs3w+fEqsDwzsUPE5sjz+/Sy3rfk8+YesjQ0uEZlxXHi8uTG58ouuEGv37VXv2Tc8d/U7deDzoul2KpAuk+b2KKIzpBDt1JPwF2Z2KHU1tV1y4BNult4x4DX7tnw8fFsw3aQz5e747+By4qhZEDl5uUPripsyXetbELGmoGoaDuARC55PSrKqJOwd1OPUzZuxHeWWjvp39vd3t6XmZtHSVVhY2xxc3mBg4q3uLvav6/m1s3RurHCknWvjIGkWyC3hmt8OyKnYy95MhTCp57Enoq3mI2WZFSfUADg0s6IUT7dxbeedWdzKACjdlqhkImtr6+QTilBLzo0OUmThoVVV2CNjpgACZmYAAAXoklEQVR4nNVdCXfayJYGt0qiJFQSSAKMQEiAwxZEgrN12i+7Oy/dWXp7nX4zeZNJ//8fMVUCjKq0oBU8X87JObZB0lXd5bv31lKplAtelrW+2r2wJi1zOrIVDv+zR1OzNbEuumpfk2W+5CcoBYL3f6PXaTpWa2wgSYIiBgDVDQAgP0JJQsa4ZTnNTq/h+97/E/S7w9bYFiUJy6Uo1XAoCpYVf8Qet4bd/qkfOTF4ue+YSNchiJArDADqOjKd/u3WWaJjQs+1xgiKoMqlkI+AqwIRorHl9oTK7dVXrXt3bEggzeAxQwkkY3y3q51akFDw7e4Ya1pm4fbAGj7utm+busodawTFAsTbQIQjqyOfWqgdsMk0LlpYOQuTjwCra8tp3A6D5PszKZXfTCykLs3mp1dWXrUgBGkdZ1IZoWipJ5axc2mg5OO3exFcFAUIyoiMy87pxONVM5HzBBgISQhhqmYYBv7f+4n8OsG3kW6eahz71iHvSaI4pp+ElU2spTPoNl2CZnfgLDEVJ6wOE9aD7ECE1ikonTyzUbyyIcLExhPH7Wma3OAFv1sUBL4ha1rPdSZjwvDiVUFB9uzYsUO7gDDmkbBSYm6y7Lb3UrFu3/eXdneJuRCKNWgInWMyHb5jxsQHzC/ty4Ha2xiPEB/Rtn/me+rg0saJSPRVodk5mjnKlhGpoDhJQJeulkWn5LZ7iWJSEmRYx1FV3tWjFBQTkemqk4eGCJ2VGUmPOKi7RxjGnhWuSgoHoD1T8xtLW53ZURwCiFavABli0RlFRAiki06vmDfM9xwxKtCKo3IJgLbSw98tMmZqoXdSZ1FkSV+V5lSFSs+EYR5GgcpQFYrMA8jF1KEScTezV1bKoY5DVQfqk1LyVb59Ge7T0LhYfbm5oaWHqI2CjGF5obg9DI1LQLcKf6VCRbP0kHuJaFau5aszFOLaFN3SitbUtikGHTjQ7dJ5Bt+xw7ybaLYLvY3QXwffpCKNB4XeJQqDsRRUH1EvNN9oKgETxAF+Vnr03aI3C6EAQGkWd4dBiIBQOQaD2oJ3FRgiYlEqJFysgxYIJsfNu/mJEfTk64tCvI1wcR40glGBGpIQzRC+eF6IiEMjcGF9fIq6uzYOOlVjmPuywlBnDQAA5zR1WsEJlK44fZjzWYQLgxUQGeqpCtGCarC8kTNyKqrD2iAnjU/ZyuyPJfaNn1/kueCA9aIKPHrRi4Y8CyQc60H2UWyyF1Pg6tSNBH4VEDFr6Bcq/UCg15enFhCLuGRdKlD62Wh4O5Atnbu3oNslVFzWOQA9Ew3XTCbCAqNb9NNmRJflN6KZIUDzFkshzm+LgFhEdhTF1CmxULEYbQfnJ+xyBdA5Z0ZRt9IakLpmPNatUdENugyXVPSUtZvemHlHt0hFN2AVFYxTZauaSbMjRT9+LnEILlM3Qqm8zUqiBYS5mFFJuGBCv7RK/t0O/Xo4zGROHwdZCJjdUBxV0RP7wt6IVnFpdnomEwZ+RqtadZTQFNlIiEa3ZnYSA3lEu4ukUdGlBQTG7Z352WfIjegm+ZbM0FFQTpOgGKh0WAR6AnUTLLobop+oZJEMgkNTL2gdftoOXbYQx7dZQCzimLIpzjjoT5lYD0a3czbrHtqIMqrDcZ8Ooxy4fVyGRZdSOgU68R+XqckeHJwd5ylzYUIFfgDjnc2McjMA3M5QT6NBV1HjR6Vj+z+rwNuvowRNkSKZdkz85i3Kzdwmtvbsx+8fPvz1x2dhf2PYG4phNirlZlJmXOVh8ezhd48eePj49G3IB+hsVoHRHIWuPenH6fAexOeH3z34bocHD/4Z8pEBFfdFM+pSHepzwC7voVPg7bsHe/kI7oWJaFPOJiqN4i/9Vqig21B5Wrz7SMuH8Y8QY+xQk1LQZbgl0iwW3QI3I/z4dCvfx497Cf/zU/CT/IzykUaYJQqMIz1M8EqH8G43fj+/f//zXk0/hHy2Qw+PFVaUmFOzKmH+5mpefL5xMB+xXr7dD+Knf4V8eujnKoo4D/kIlTUB/eSM+/sbA/z4K/n54aPdzx9+Cfl4m6otQSv4iQY1Mxdelvz8h7B4uPcwH9+R37zbSxhiiJXKFTVCUiPwAcffrwdKsXOqUuPt0xt5iBn+8mzx697XhEvY9vcCOT2QYsgt/xDGEZ9j4C0TIj4+fboX8F64hLSnBC02xaB9Uai3PR5+ZEMgHQ8//Bb6LTrasbGAp6rcaHbK0sXi3aNYCR+H+lIcXKiYKDH9+DZVC9ATFeVKwrN3ARZD4YcnjyO+6fpZJ11/ESpNyhGJx5AkAp+fxgt478mnsGDhgY7oTaqjOPVnFdA5Xbv+e8+jPHj0KELOe0/C/UyFjJPjHydx6v+j5g+XwD5ZXrj41RPs0dPvv38aaoz3Hj/5PTQL9tDzpxgKRVq6fg0+XWr/bKOhD55iIZ6FSYhH8NP96O9T/JvTfU1d4crvhYxT+ZnP20zw0ffkp19/Dgj4w5MPvy/irkAFDHS1t7Xe2PeH6vREfOaGiD56T8QIqCnW0E8/xQpYaU/9gviqMK5fdJiilVogtia4EfHhs2cPWQH/gQUMD/U+rPy+Zq+MvOUP92knNRQDmog++uMPRkA8gB9+D4/0fqiUQ7kJ+rK/VAXQKSLF2wfxURAP4IcDGupB8C8HA+aOm879FVXxFHlTPBH1LPDPwwNI0PIF9l0eLFQu/MoLj+9JF+9jieg97EL/PGiBW7g+WZQb6uKXG9hHT+7fvo/V0H88wS402QBitP1BX2xtf+unc+Dy2NMSCBF98Mcf0Qb46c+wCmkE5Eu/MGDzy77f/6BjF7oJEX30/vPnUE0lHvTPSKIdigEVFzZNmq6/fnHk3PeZV44hEf7Z01ADfPxbNA0NhT+274gbVYc7bjdmQ0Q/bljaR0bAHx5/+HcMzY4Axc82NdGGv0KD7h6Tde+I6NP7wTHEDubDX4kdzB78XR/HBi1ScgsR+kjwEVHWDkmE//2fCUJ8EEGV9Pd9qYyjZCx8zJPJeImD+fRLJvkYt2KTelTTn97rRzPDt+Ep7s6B/pZRPqyT/tAgkj6943OvQDoSKRU+R0V5z4H+lNrB+C7tL95LDlNIFUfFCRGJxf3nd86CsWHrQJ98+HcWB+ODf52iZPF0sVuclFmDWty//7x+dla/U6/Vr9nYsJXvyeOc8gmViU9CsSXTqVNZVbYFHrfnd+pntXq9duah/t9BM8zhQPegEwkwliuaf4qmVEJisbh/BwNLV9sKt8VfjCWSFOlxXvkIXL9jMbRK39cBD28sZodncTUsXQhq1//FBojEKVI8/OmugvoV1beav8DUieglFu1GK0NE/LLXU8+B/pLDgfqh+RIoRVIrXf+YFrSC2VNMLF6kdIwpYvk+/VWQfGRFtN/uurRdBppu6bEg/jJcMQPwRPTGrzj5mFYovKj4J+ajSbA3nAqe4dWTiYdxjb0NSXH/SpHiHkZj4o/wFhU9widpJMXi+Z07tbN4zaRR+/KfohzoHvS0GRzh/UUaaZlZwMXzFGN3I+H1/zxOU6JIBmHpcy1ii5qthw7MII7CguhmmsHbov7i6/8WaIBbCI5/DM3K1J//ZirSYOVMpZu+MXz98rpo+TAG/hx4WvG1tzkxfXZ4H49eJukIrr+9ulOChF1/dXRU4fzEO+Ws50Uu+c5qL16+KdTJbEFlvFjCalYJsfXVsmnnTsI3L1+UICAtIUdJmKY3urhTyzF8Hq6/vXxehoRUs5CrKJkkzKeeG9RfvHxVhoC0hNVMY7jA3jM/6q9efilfQi6DHS5ymt9OwC9fX5XhZ4J2mNaX3k/PXcLxuhw/E/ClKePhoij5al9evqqXI2HXtz0gjoepOM3ieUHynZEh/LscAVlOQ/PSeOZdkAUS1L+8LCdUBHlpmtzifnEjiB3pm3IEDOQWqfLDhLl7AgFffH0VM30rl4Bsfpgqx8dqWoyE16++5YyFWuTMLTbHT1enKUhPa3+/zBkL+WHk1qJsnSZlra2QQcSR4mXOtEk2I9eKsrW2tPXSIuJh7VXuSNFWwLQb7jTYemnamvf9/AIW4WZciasaV6FGRde85+n7FrmDPtbRbznZjFCxIMdxCDRDph2wfQu693RxuPe0yK2mRRDSKVAkwOFgwLrUYO9J9of8RP3DnP70zpsC0kJ+vXYGEI+jNGbULtg/zNADzuVPSdJUQKzXXL6irQw8jLop06PC9oAz9PEXWWqjW9Suv30roILY6chE29wWHkZxRKVEPNvHzzIXI4+eFpIVyq3zTSordBUOO1X/ts3BuRgZ5tMImfW0/vprEYS7b1dn3YvhpGW2RtincnC030chOJ8my5yorHpae/H1dRGVC9fgJAmSE7JELB8eGTS9WaoWnBOVaV5btriPk8JXhSSFjsR5IIdKQV2SEIdG2wcPmdfGCJ2wk58l7pNQX4iAJHtAkmjYZmu27Ha03pXE7bRvHqKS9PzSpAXF9BLWzgpxoxXCPMWp5TTVfnub7clTUN1uLqSGzC+d+7dDTtx+yjCIhXWa2qN1x5+rC4Sp2RtLpOYIr7caCTLN807tT4tspTWYs8A0W9lISCWHu3nezFz9pKueUvrT+usiK9zsibo9ZTu7OWyuPrMwMfl6i1RxH2dML4oST76YXQ2bvoKLUOmuJRIFBCqx2K+3oNfMtCKuG0QaPX3ztTAVVQFE5OTBpS9d1wbmhuSErZkhFQFq3VPimd7J9bT+orgKfm+ENrEQTv1NCNkbUz583RO9VD3F2rXnyVW0OBvEuW8VQsRVOXAe6LPQa9eGN4OVef1hspCBuVqBExJEAMylc9dGVY47Z51GxPrD7GtIE8X9+t8FBXoPODlSNHIK8RAqHFv+bFOC+NaOMOuAUyybSTCI2AYLnVIC4GbrbgGnfWzpLHIdME3cUJpDcg770zeFdmBcawqX23BIMgzKEvlJ1FruHOvxD/nT+ptCp8zIOKkHU3kT7ntjji4OxqzHz7GnQrye1t4Uky7toJK0CZibWjDOg0XfYMTuqZBnX4wYPa2dvX5dgFg+jESgYBF12MXjuJQYFs3ui+GHln1vk2g9rZ29epFbJgqqDsYjCYcJAM1mU+HovfBj9jYhrZzs+9NExf36dZFRwkNzbffbFqmTcsCwOXTl94nM/jRDxl/m2WMo3BTrX0qYiSCTgdFWNlK8AtSgQU7W20aM+D2Gcu0TFRr36y/eFN2n3yvWfGkQSsOhlts09A0JO7RPVK69vkIGsf53KdMOd0IK85m+1dXqevOsPWoD5OBeX/n2a2OdTe3sTeFTY7WB1fU7D2220dUtxalcHtqvjd5zT0l3+g7jT+vXbwqfGetOIZTo4477QxFwypaf0HvuoZA99ypzahvolMtlqXy//uXvwqfKdM4BUUr6UEeh3wLS9mi5w/smBva+TLdsfR/3a2dfip+8TVoPInYuVd2/NanAz9A2gVAT7H2Zb//SGz3FAp7lkSUU/BXCVG1pYP8pTXzGKJvr5eYDCfYvzbsH7fOdCV4X7kPJZmsc6b24pA0jmr3KYEu6hLa1kTfZHrTsPsJGuucgIaNWuy5+ACuEcEJyIFp/VMXWCEBLXzODRJ9zEX2Qbq69oHHcr5/VSpjKJZD0lTQ2e1NoXmERq6KXQG3/SJB0L+ic+3k/v3NWxuqJCqGjQLpqVFrSuteYIRLn6UFi9/OOtq+ce7I/L4PF8C5WyLmJE/aBjnBC5EAFKbQIKfZkJzkl9TJOv69+ewLJCUDagJy8QeYkDOFqyZhPEybeV58hNlUAcq5HzI8W5LZ1o46tkIXZpjQQ6DFiz0YIozN7yIj+9KS8Zz8M7EX6aw5UJS/mqQYHbGcqBWLdhB4VeGBUqFJHlTNOqqfN/gCCKyCuieec29jF4AFgy7nMKXqHzijBLIE5Z+aEWyYP4BTbntY0XC8mLHWS9bJpUZs9Z+Zg/5M9K2h0qq1MtRnJWJGvErO0RWQzGYFgpz0rKHjeU/aVs7mAXQrJ/kTCZXZP0O8OGD/JL+mnhasET3tLzuySdR1JVQ6YsY5DZZ41yZldt+DcNUHuuXJljmO8yHHIjBmVbOeuBc7OA8c9O0/oD02w4cTCUAy6Fh/kESNg0gJa8PzDsgN/Q76ZQSkMbQlw2/Yt9uxcVYlyHo2s5x8e9wxLuTkbI0naldkbNuSAaFThhpnJAEtr97VhsKiS5wxLpuhBCOqyCGFCIHRNSQSKwm23AuAnmKVNByo837IpF+f1YDqW1sGnXzLnkKYqLcnHOkt2JuIxghDulusQaobZZ6Xrbmyf9JNwQqjorYCFNZmzZKVWqo1ZjnQeMClDK61lc2Ar3kwlfiUpqEf39nBCWDWCyXjO84BJlyd4pnPhttiecpxEeg+V4XpE6n/yJVKYVS1aq4rsoIrmPtNZqKyOcC53x+bI1DP85mRVI++PdE9EaiyEJYTTYEAOnsu9Sj0AxzhbHVtdVfJTe95CHNqdIT73qrp9exkMcqyKcmKC0zkDoBZieKNY+OHjfZIQTR1X7fe2pGKAOAVqHhXlW6K3IqYffPYuQ2W8ZRUZoDEEtUrmIBVqi7JJioNItO1xa+UZAZF5W4vGbjY0ExIqTVZFM55sJODbMVfCiUax25tif8ZtZ2zDtdeAGJJ1MGZHU03IhUdwfsl4iCqIr8zEwWX8KQ79q2IJnKNAAKobIb21EbKBhxUhGwEuPII3VjDwVNn30RO6a44VcVYkDRcq8+UISboOyewDb2KF12TCJKeqs414D/KMFZBbR6xDTAaHcVpVTsquEhHAyVJngC1S2TSe+y1RkpBhhsa3vi0x77xqZNz6aXf3C4O9IjDcEvYa7uFECG2afrLrLAdqqJNRWR9T5YyLnM5PGOoBEUGRhQ3BC/ACmcV7E+uF8FcoLEVWQKzL+Z9laLBXreqJp7sfgjyRvC41v5QCUylZtG3WiWIVLWJnZ8ER2VGsiqNc1r2/Nj+RwHLed3Eue2DfEaE7YkkW/koxx6ILzpq9NDbGvBsQbtHFJGZsG4jj9NiJWI0Jy2Mw1oWd+95VgleHoauMU4OQGBwdgGTHJdl8E8DAEwClOBYpuAF2Q2YwzgrYGls2oSRJhunExaDeLOhiMJNxi6SQfT1gBFVFity4IQVcZ9DttGN9zGAssTQGm2B0KzsbNDbT8F6jbqhl78PPqwabARCI6WoWhyFUZIvN+j0Z0SxvSVyI1TV1gkLkU3SrhBouv1qH3QsZw/LaU+2VgcLeazhnzQ91HHa7KtQv22XckO9d6kEPSl7quKRWilDptQKZi3dLqFiqUCkwOyYXUy0l4m6tXvFFsR3kYZA4eWqDjCu3UpSM5CrulRFmgFXCRMtto3SC3GkDpIsXvWJ4TqN3Ieoo/DbiqPTTtHtWSPTdDCS0J6rndbIOpfe9njqxYdQtROsIXXfe1WGAit8o63iVK3vk3dU4Sj2rHNTLSE1DIGMfHv4MVeJZ0aUbz1GiLtt2L1Go99wAGaujNTKFjhmlR54qSXZroM63rzteZbd/5efqoGXDKAMgV4Vm55gzCjQHRr9sUgbA+np32J3vlYp9uv3PfK87vEt0M1o8rBrQOfaBcLJlh8Z/n1ZBXZdGE6fZ1zS5wVNNVoHnG7Km9ZvOZERKbdFaT6AguwyWdhB9C0ZEjh04rLEilJA9bk2sJU4imi5BsztwltakNbaRBEWsmRGOawcRWseeLLEF3zGjwhY9BABrLZIkstuKYRj4f/ID1koQrwQbIN3snPCk9/7dUGocgZuxSvwVTOzvnmj8duBVCyJwQM0ygjRtrNIT0AQyzi0pLEfNCQXnSJI1P718nttvOC1DKlZIIBktp1FkvpITjc5wLImHnGJCcJgzjIedk89PZsBrrqkncq2HgHTddLXboJ5ByM2rMVbX5M6VhYKVc3zVPEV0Twqh5w5NMY5fRgPg75lDt3drTC8KvNxzWmB9iIntQYwXM7w1aDk9+XYqZxjmhE3bmLyIMdSFkB0RUx0bs/RmsQeilYyNnjV6naZjeeyT0E9MQEF1o71YLpEQVo+xWk6zsy1/3Hr9DAMvy9pc7V5gom1ORzanVBWOG01NTMUvuupck0vXy/8DSN0/3gvPCDcAAAAASUVORK5CYII=;base64,iVBORw0KGgoAAAANSUhEUgAAAlgAAAE7CAMAAAA2MA+HAAAABGdBTUEAALGPC/xhBQAAACBjSFJNAAB6JgAAgIQAAPoAAACA6AAAdTAAAOpgAAA6mAAAF3CculE8AAABHVBMVEX///8AAAAUMuAUMuAUMuAUMuAUMuAUMuAUMuAUMuAUMuAUMuAUMuAUMuAUMuAUMuAUMuAUMuA+V+VTaehofOt8ju2RoPCxvPS7xfUeO+FdcumcqfEzTuQpROOHl+4KHNESLd17iuoNItQHFcwLHdITMN5yhewlO9sPJ9cOJdYKG9ANItUNI9YLH9IPJ9gQKNkCCsUDDccMIdSms/IRKtoHFMwFEsplduYQKtkTL94HFsqwu/MaMdkeOuAED8gCCL9QYuI6T9+Qnu4RK9qmsfFFWOAJGc4DDMYJGc+bp+8MINNwgOgJGs8DC8FIYOcNI9UiNdcvRd2FlOxabORwgegIGM4LHtMFEcoRK9sGE8sOJNUmP95SaOebqPD///8gWcxZAAAAEXRSTlMAABBAgJ+/z2AgUN9wrzDvjzTYm2IAAAABYktHRACIBR1IAAAAB3RJTUUH4wUCDgg5o6+rfQAAHtNJREFUeNrtnWljI8dxhj24CBAkQZxDnA6tiIQiJaKMxHRCRiYZbuyNEiS7Spz7//+NADMApu/u6gON2dTzSbta4qh6WVVdXd3zi18gCIIgCIIgCIIgCIL8fyA5MSrVA5XYn4Ultq9KRWxnJZmWarV6o3HWFXDWaNRrtdNQWWxflYqonqo2a2I5iSVWa1ZRWGUhko9a57VG21RSJO1G7byFwjp9IvinenFppSlCXZcXMWJXbF+ViiP75qrWcNNUQaN2hcI6XY7ol1bzsuNLVTmdy+Yx02JsX5WKYznl6sK4SodxdnG0wBXbV6XiOKq6diyq1LSvj6Ot2L4qFeHd0QoVq+i4dYScGNtXpSK0M5reinUdjSYK64QI6onWtedqXU3nOmzYiu2rUhHQD8cLVkcKW7F9VSpCOaFSC1qvy2nXgm0rxvZVqQjjAnAO7PX6g8FwtCG92ZFu/zQcDPq9Huy1gmXE2L4qFUFkVTcWwbg3GYymN1qmo8GkNzZ+2XoQacX2VamIJ6tZf1CEJzPS0aA/iyet2L4qFXFk1QNrilKXUW70L63YvioVfk1fuTYSla2mCozEde25jI/tq1Lh1fI1Xck+7y+sIxUXuRb9uebtOjUUViw82v1c02CYTwyqdBjTiUZb7XMUVhy8Wf2qcWxVmWmr4W+DOravSoUnm6uLq3HfQ1klZ9RXNiK8lVqxfVUq/JhcmQVnQ291lYx0OPvlnwTPh7F9VSp8GLxyqQpWgVIgw+2vvvrTr6Wf4tJL0Irtq1Lhwd7n8rXg/C54sNpxv1x+82ffktL6jvxDx0fQiu2rUuFsbVW4GhxJVZuAtcz48784vPf3Dz/82nPQiu2rUhEwXHW7q6MJ636545u/3L33Xz08PPzme69BK7avSoVjuFJu4MyPpqvHZcFv/zpLhA8Zf0Pmw7pj0Irtq1LhZOkr9TT75Fi6enpekvz2b7vdH3Nh/Y7Kh2duPa3YvioVLoa+6KpZhJHRy+ubImBl/N23DzthPTxQbYgLFNaRsDdzRTvHEGZF+L4Rzod3RcDK+Pvf74T1B/ozuaTD2L4qFdZWvtIe6uoFCliZcF4IaT0uBXzzVS4stm/qkA5j+6pU2BpZshqcjRaT/ShemGbDx51wnh+f9iHseSnkHzZ11u/+wH1E+9VhbF+VCksb14SyGt9lnl4Ns827MC3314Nwnn8iQ5iIf/z9P4k2emyHaWL7qlRYWVhSXq2JvtX0LkwmfCOFc397k9dcMv75X4Qf1LLQiu2rUmGlK2F5NQ6wCLxVBKyMT29EwLp/Z4PX89NCOPhwZqWs2L4qFRb2vRKOMqwDrAFv85gkC1gZhNI2//aNFt7jzU26Fn3atk0JH9tXpcJCV6KyfTz0L6t8o4ZuWr0u5dzn0vtEBqzt3wxFQatjoazYvioVYOs2RbqaBdkV/GkXk4rOwmeFrpb74HZ72Dh8zP9iJToy1oEfxo/tq1IB1pUosYRpLBR9z0PT6l6hq0/FTz4+EyFsy0D0qcHKiu2rUuFBV+NAc8dk3zNvWt2qAhaZMp8yaRH12WjsQVmxfVUq3HU1CzTLR2/UZP3QImB94pqir/RPbxaI9+Sf05m7smL7qlSALCtqX/X9yOjnQyNdFLCyxHZLBKz3J/Z/sxvTN+/M3/QFH76OwgqFq648rQbfi0a6MGAxvOQxSR6wRAxdlRXbV6XCTVdjX9s2r3lMIv7mRaGrZV7MfySaD28GbzIduykrtq9KhblZBfWVty7Dvu/56aAP1UbNvo1A9ENfjN5G1HcA1FmxfVUqnHTlrWwvQs/rR33AeibKsV3T6t3sfVInZcX2Valw0JWnsv2G2ajJmlZmASuX1rNpwNrSd1BWbF+VilPQFbtR8/MTubN8y3ZFn5n149Pjs2HAclRWbF+VCjOTCvYH7/zpituoeSYS4e2hkS4OWGDuuK9ium8Y21elwlZXjm0GKuhoN2qeSGndP9m95YGhrbJi+6pUmBhUMH/lqKvbZyLsmGzUEE2rW7u3VCrLbD4rtq9KhYlBvetqG6OKppUqYBV9z/cPu4DlrCuhslBYnjGwZ927rvJ5mPs8GhnvLOdNK/eAJVSWSaM0tq9Khd6cF951ddit2Q7xPRUB61kRsDI+33sJWEJlGRxlje2rUqG15rl3XZHbyy/vxB/e314VASvj9rMfYQmUpT8VFttXpUJnzBa3IHSe6mPmYag2At20+uBJRSK42b+O9l742L4qFRpb8gtC976oZLdm1/f8iZAdoO8Jh+uUapeGsX1VKjS2rPvXlWy3Zt+AKJpW5hs1fpSlK+Bj+6pUqE3J7eTMPDj08VkRsDJpvRwhYG3gdqSbKCxvKC3Jddz9zDM8PSoCVkbWDw0csASzDpoOfGxflQqlJdkCy9tcH3dkmdtZfnuF7Cxbwk3+naGwfKEyJPdQAI/Hcd6ZzgLf9wyvq5ubEfsNr1FYnlDYseq9gUVBNa089T3BcO2sKgrLD3IzVtgCy+MAVs7ne0XAOhLs0rBTQWF5QW5G9v72EOcHb5/jBixBAX+JwvKC1IrsVs44yPUMu6ZVtIB1c7NiC/hzFJYPjBNhoCuQb55+NjoUGI6FcTKM7atSITMi13IP9/iS9xeTQ4HhmDDftI7C8oDEhtyKsNvtHet5S0eHLbOqKCx3JDYUXdoX6laZ6LB90jYKyx2xCcWXIh/xaV7HhT24U0NhOSO0YEv2SK8vNR32mPq9hcJyRWhB+SMIQ1yNfAKwWzuXKCxXDCv3gqM90uuY9NhvWUVhOWJauReEucg2KvwAfBuF5YjAfs2umi8uHaaCe7OaKCw3ePNVOl0dX1g6FF0iKeq/x/ZVqTBuNXy56XAk/Io1FJYTNgHrVNPhyO5TzYXfUBCyYvuqVFgFrCwdnlxL685udnog+YI1FJYLuoA1XcuUNQvzPEJb0qxSgg+NrWTfjw9ZsX1VKjQBayC6qGyfDq1HlaeDfm/gd9B5uttJBo+59mRfjw9ZsX1VKtQBa7wNANO5zPR9q3SY9vzXacVjCYE3DQ67UriQFdtXpUIdsHIvpV7TITFL4G2KnqyTYDMY466cGgrLHmXAmu/NfyezPzwdpmT885MOUyqdjUFhdCQNx3zIiu2rUqEMWIXfpzOZ9aHpkFqEwUQggU3VwGsAZKtCPmTF9lWpoE1H7xLOCfOnfZn1gemQVoGHkMU/QBWYYVfS+r2NwrKGshyzSzjUOHAfdiD1MrO6d6+yVoKPBZVr8dWYwNxEYdlCWY6+q2HOmF+eDgEPGmf2T3rOwhKt68B90n08Hqd0QD1DYdlCGo6ZwxrKzM8zN/akf2Fxp2y2nwdcu+VF/IKVaRWFZQlpOPrI11xgfmk6NG8f0T/mZYpeEEktBDvIf4oOWXUUliVkr8FAKu7pkK6UvWwLieapLBS7Wm9nNpiNhgoKyw5pr0HWCRAkHlA6pHKhj0y4YSr4OLZtfUalNRSWHdJeg3SYbyFNh2a+JAo1bxe5CfYzrV+b/s1po7DskJbu8lG+lSQdmnY7+86+V6p1j+3tOExDpIrCskJWuq/Nf6n3GG/SLTJljgceJ7pEj0617ZHRO6N1FJYVsm1CdVpbOJbL6WjkeZpL1Ce1fKQiff0MsWEY21elQtJ1n2uMz6dDT3W4NQteWLZ3ptIdhyYKy4aD1ejTz/pfdiYdetlOdkKwmWz5oehXukRh2SBpYhmcwqHT4QncRCOYGrN73gFTvldQWBaIM+HaxP7kGNQp3EOTCkar7Ap4WqJNFJYF4kxoOB5wyBmxC6ycqYdBhwx6w/AShWWBMBOOTT0wGp9IgSUSRP7RrFaftEIrKCw4wkxonkDydHgyp1e9DDrcsP3WJgoLjjATQoQyOKmrHAR9UqN6kYHuXVyisODsbEZ1R40zYcbIxnOh4Acd7HZ2qJfpoLDg5Cajnxbg/dkmR4QddLCMpnQuPEdhgclNRj/n62RKJhuoQQfrw9p0LrxGYYHJTUYPu5/IGs8SItiYT0yzpJRBzlBYYDKLtZyr3ROiGHQAnPHgoHukLRQWFEGzwXIo4GTYDzo47QbQo4NNFBYUwShW6W/rywokxytH6P3COgoLCj+UrJuYKQEDD5dZUhuPbRQWFL7EKnOzYc/a7oIlErrh0EJhAeG7WH4vRAvOItDnpfcdz1FYQPguVplKrPRuHmoHnC6yrlFYQLYGa5S0xJr2A4ZYenOogcICsjVYOUusYS/gr8KCPU+GwgKysddVCUusdECs2nyPRa8G/CzqFQoLBtcePa1LtsWM6Hjid6tgIbxxtYnCgsHV7rFFo2fIDV35W2+IgtWheo/tq1LB1u6nMb2u8rxgsN3XpOFCej10Vr3H9lWpYIf8TmgaVMBIfPUbbDJRwmqiupq7g8KCwZ6jOOHaPR1Kr852/9TDXldNBYUFgr1l5gQOnopRBhS7g6lmr72jisICkSQXlP1i60fCaK12u8PvQ6oNVhkXKCwQzEV+5s3GdH60rLnduNFg3dad9vXBKqOGwgJhvShcH6seWxm53qrjkA5nBi+d00BhgWCEZbwozCYsj3DqYmGUp6zGr4yDFQrLAman0HScNz9lFfpovUEOzBOhVYnVN3rtAygsEIywDD20P7AQ9JKZqZnn57ZXTo6MXh6FZYddt2Hv8oAhy2yt1u05FHpm4XBPFYUFgRGWodMP/z5Q/Z4ODHOg05b5nfK1x336VDUKCwQz22DkkFWAZ6SSjAxz4J1jvEwVLz4bpszjWZooLAh0G8uwg92H/gAEwxZAz8OSVCbg8S4SUp+khsKCQAvLtI1VhCzPqhIOL4g872VSRly+Z8EqgyrzUFgg6MOqpsIqLO61ej9WDjzAV3LjCVG2UcKqo7Ag2PVHi5vz/G1aK4YXKNYe98nZ8p1ZY1IXBDZQWBBoYZn2pYqb0H152WTAIAsoXk+nperXpi58R2GBOA1h6YYX9jlw6LtvVryvqCGGwrKHvrcBLiwPjaywGzdqdheszQfCQEgJq43CgpBQvjN1XbGc8jDKfKeV1DZPDcKc0N5qei3rXNCrRhQWBFdhWd12TZPqq6tZsAmdwVyhWBSWPXbCInrS2a3E6WLSy+QxX1tIQNdkCJEDjUBh2WMpLKInPe71qA71GHwj4KqrwHp4AYUVFUthKesi8NSdfJDBZXgBhRUTS2Epgwz4ATYLyeu4DS+gsGJiKSzJY6FtlSXqN/jbuEFhRcBWWKm69wSceuAzq4/hBRRWRGyFJXw4IAFsaJmZjPI0vIDCioi1sDTKAg4tkx2HE8iBKCxn7IV1M1VO5MGaDsUUsM/hBRRWPByEdXNDT+XNej3iz8D7kPKOg+fhBRRWPJyEdZMO15mWxr3BIuvAE0EM9krb8xn+hxdQWNGgheW8FCP2/aAdh2gbN3IWKCxr6CfKuR9ALarw09MJGGps5gyFBcFu0M/EFyd8hZuVsHDQD4RvYY08vlZ0UFj20MJyP3/6RQmrj8Kyhr6M2/3O5C9KWNTUxTUKC4LdgVUTYZ36xd5QYeGBVRC0sDzca+3ztWIzRmFZwzys0Kcz9rlwOhxsuCvDs1QYKNOco7AgMNcYube+iROC69FoNCjSyTjikLEV9MwFXmMEgnn2l3tXUzW0DB+Hjwq9o3OFwoLAXBXpPl6nunRqU9GXKWgxOzooLAjMo3Q89AjUh7lmJVIW1R/toLBAJL47pLrzp34fLhgUpj+KwoKQJJdUqvLgj4VSWMAJwJhQbaxLFBYI5pEnXm7oGyqFFfpyeH9QHxsfeQIjYRpZeq8P9Q0ptbLKErLoZcg5CgsE+LFyQ5NDg8px+AAX4gaB7jbgY+VgJMBnnmwL2rHBYDpx9/G8PxyNyPH4kuRCalHYxSeswtjYi7p6TbMszBdKRj2DVbaTMxjt/i1xWqwks6XUorCNwoKRMMtCZZ5K9+skm25UcSg/7kDN6s7wJBCVzi9RWDASwLKQOINj0Y06lUmtyTY5Lwx+M9hFIQoLQsIuC+V5akX+CsM7qVMXVXpk9y1mA01Gpmv3cxQWjI29WmbVO3OkHq6sw49GHQEkmgjjtSor0rV7C4UFY2MverdQFk64qxrAp3BOQ1hMj03+ZGvqhvBOgsKCkbDVu2Twc8jvAEKVZbZACA27Ry5NiNQXvkRhAUm46l3Y/hT20oEzNn6f7DS1XAIw93pJB6jphxXWUFhAtgaje++iHRfx9B5w16/Y0/VwlnVgOTs2Zb6DdCFBf+UqCgvI1mCJztTiEasxUB9FI2uc5Z/pXT/XWs+0s1TIYwbXtUgvio1L+iEsCQoLSGYxaiSLTw4SXUFPR5DjNLN1j6phYFf43WmijQL2oT3S96U+XgOFBSWzGHVolS1nU/Fl2WBdqYeWAeFvdfhAFsmQedu57N/RXaxrFBaUhC+y6MfjpOJBBZtNHfXQsmlj7K6IJfBkODJ9U/pW6CoKC0rCF1lUN2DlT1eay+HNnve0ouInOBmyt4hLYx79tRMUFpSEL7LIukNyg+3abvJl0FVikNnumM8DHRpkf01k34P+HWigsMDkJruQeEuiK+sjF+pkqH2SGF/umYyGkS/ABl6pgKl/doHCApObjD61ekgwQ8+6uknVT1LV9jz5vAzbHhqaviH9Oa9QWGByk9HDfvsEIRldd2pvKh+VMtf9tCCCgpKh6X4OHdnaCQoLzM5mdMMhl47ksLxj23xEpbNxr0fusWhbGPxnAiVDRpfS/Rz6V+oahQVnZzN6Jqsn+u3e+cL9EP50kme02Tq/gYYQiz788E01QDI03s+h3+UchQVnZzN6dGa7LvTUbpdBxplisajvOKxckqHpfg69JuwkKCw4e6PVaYt7a7ebUAQSg+gjSNDGH4r9Uiuj96ijsCxIhLlw7rEtagAorfGSN57vYn5OulagR2vOUVgWJOJceFRdFTW1yfWSgmRoOJrFXioha5vQpdghE6KwICTiXCjCst1uQBGETP61oAtilgxN93Po8rKOwrLhYLVqV4OHG478COuG77KaJUPD/RzmHqYqCsuGg9WYHukxdUUIyyj0pHbJkN0DlxV0dERsJygsGwqzXXdVBH0yzgT4NoIbuAwUabqfQ5fuNRSWFYXZWl0FYZ+4VDSytPvQOYJkqP9BtjMn0SIzstVCYVlRmI2ZnSHx0G5XQvjSrNspSIb63qrhfg4t2kaCwrKCsFtTqqvgd/8ffG7akhIkQ90dNob7OUwl1kRh2UHYTdbKCq+rQ5Yy31Hmk6Eui7Ite0l2pxNmJ0Fh2UEaribU1TEu0N6HCfOUm865D6pJhmb7OcwoYA2FZQlpuFYsXe3XhUZT7ztG/EdVJ0M2wIn/FTM93UJhWUIaTtR9D9dup8jOAsHudOBHBpXJkK3KxCJmVgX1BIVlCWU5vvsesi1KMR2D59fnoE9rtp/DBKwqCssWynJcx+FoutqeM4P2ygTJUFGjGe3nMAGrkaCwbKFN14ymKxv4ZCg/wWq2n8MErCYKyxradMyGITA5HRtBMpQOGxvt5zATOe0EhWVNUuaQNeWEZTgKI9nPYf5RE4VlT6IMWd3TDlmCo9WyZGiyn8OkSzZgobAgJOqQdeqPoudHqMXJ0Gg/h2mhNlFYDiSakHXiT5EwTYYm+znMKpMLWCgsCIkmZGkPJ0dGkAxF6dtkP4dZCjRRWC4kupAV9zESesyuc2D+iejXhZEoH7BQWBB489EHwU695SBKhvxMl8F+Dnv45xyF5QRvPrb9fuoPcTZJhgb7OcwcTiNBYTkhsF9V74WTwuA6B7aTyvck2JhWRWG5IbAfO+RgOIceDf11Dvr9HLaJX09QWG6IDNhiRkkhY1Ix0N5tpN/PYXJlp4XCckRkQG6U9MSbWdrrHNg5Zm4/hx2UqCUoLEeEFqwwLYcSJkMqKOn2c9hE2K6gsFwRWpCr3099Zai+20i7n8NGtGqCwnJFbEL6SXPdMq4MiWTINiTY/Rx2RXiZoLCckdiQrd9PvU2qvM5Bs5/DJlJx5Y7CgiGxIXPze+SHVxrAn2A9bNvoLndnN4UuEhSWOzIjcuPv+p7Du0edrMDLBbZOmhxeQbOfw3blGwkKywNSK7LJUFtmPT2/vvnSVToHXxdBJ8M50SFR7+ewspMmQhQWCKkVuWSoO2n/uFwuXz1Fra0WesCyjlTIhAx47H4O9VPcIwkuEhSWD+Rm5JKh+kz00/Nyy4sPaeX9gTFwYueQDMdUQ1e5n8M9NK+RoLC8oLAjlwyV3ayX5Y7HJ2dh7b09A7X898mQObzN7udQ+4hsZaZIhCgsEAo7spNZyqG/9+WB50dHXRHtzgmkiM+SIVecqfZzuJGb8wSF5QeVIfm7HOSHlV+WBPe3Lrqi+kqgIn4iumtCsZ/D3b9cT1BYnlBasnLGWj7/dX/7ifXe+5Lm3mGByIQYQBGfzngZsvs5ffn/6p5VUFi+UFoyuWLLrHxp+MrFpJcli3XvgWt1ul1UKd/P4RaEnasEheULtSn56yO3gw5vW+F8IoXzcSnAboEoODfvdKOgdD+Hf6NmgsLyhsaWfJk1S2/udzHp48F7r0shNlU8f9OH0zkh6X4O12jQFFgoLBg6YyZcmTX7Vy4mvYl1tbSo4flDN27DYLL9HF5XZ1pTxPZVqdBas8JdeftvhHR+flIErHsLIfDHBN3GV2X7OdzluJ0KCssnWmsyDyLvdr97+IoQz/PjExmwXp6J//cZrgN+Ys9xxlCyn8M/5vNKb4nYvioVenOyBfyPD5SyNgvEImC93jw9En8Aw88Yj92moiX7ObyudIU7CguIgT3pp+z88eGBURbBdqX4/kL8AQh/ezvoIfU8C+HL8bq6NrFDbF+VChODkkvDr394kCvrQ+7N91fLgMVP6zlfo5QO+2Q2nIp1pV0QorCgGFmUWBpmAWvDv38jENahcfX2SvzBXASeW1h7pnf7SLjdzxE87lq/IERhQTEzabG38x8/7JT1I6+sF8KZny16WJ5bWBSjyXa92Rf1GXQ7OSgsG8xMSjQdFMpyHMXy3cJi2WTFhUhXBo0GFBYYQ5sSu4Y7Zf3xu//8lTxg2eC7hSUUL59tdTuEKCwrTI3KKuuHr7vdb/+L1NWzY8Dy3sIS6WrsoCsUFgRjq5LK+vHh4dfZEvG/iX6o43if9xaWAG7+CqQrFBYEc7MSyvr6Nz/u/ut/DvMyz44Tyd5bWDwTN12hsCAA7Eoq6/tDuvrfD14CVoAWFkO6dtQVCgsCxLD83N+G2XTbtHINWKFaWAXTmauuUFgQQJYVKms8vHm7dw1YIVtYGcOxs65QWBBgphUqazvj5HR6InwLS1RegXWFwoIAtG1y1Ra4aOaatgK3sERpsNuG6gqFBQFqXMHJnW06dFvBBW5h3QnSoPE+DgrLDrB1xcpyenZ02BaWaDVopSsUFgS4eYXPJHc6pBW0hbUQhSvDORkUlj02BuZuVXYLWiFbWOJwJbkVGYXlESsLJ03R4nDbeLDxfcAW1lAYrjomc8goLDfsTCxuO8DvtNoSroW16gk/JLjNgMKywNLGkhJ+IwpoPgzWwkoH4k9oU7ajsMDYGpk5YkHIApgPQ7WwhnPx5zM6NoHCcsbezJJCa5MPIcoI1MIaibOgdXmFwoLiYOfkSpIOu2vjUitMC2u1lnywM9vyCoUFxcXQ0nTY7fYNpRWihbXqyz6VQxpEYQFxM3Vy3nGSVoAWllxWnXPHLxvbV6XC0dZJ5bJrLy3/LSy5rLqX1qtBFJYFrsZOkouOXFqaMt53C2skl5VT1Y7CguNu7qTVkLqz21M1Hzy3sIY9+edotNy/JwoLggd7qyqtjVYG0ozos4W1Gszln8G5ukJhgfFi8aRS7ypYiwcf7FpYU5H4FmvV+9edqysUFhg/Jk+S6pnKteMJX5RbtrBmXB02nYxV731Wdf92KCwwvoyuLOKzlMhqy66FlT2+KSVVNVe+befC/ZuhsCzwZ/akct1VQ2nLroWV/9T+KUw6VXW7156yIAoLike7q9eHu2zXH+bhxq6FdUifk+3dMWPdu3lZC6KwrPBq+U2ppZVWtzubLFLLFlaxjtSKaiMrb8UVCguOZ9vrqviDuLi/MWlhTUxeOpSsUFggvFs/SZoGUYtH38JK78xfreGh0Y7CciGA/c0SIoOqhbUaDQf9nkHyCxitUFhAgnhgI61LcxnsmPV6/UHGYjRa5P/V7/Vm4Be6DCMrFBaIQD7YrBDrHbAkPNCp+10JorAsCeaFJKlctN2FAqN94bNvhcJyIKAfNlTr7mIxpx4qB6Kw4IR1xSZsNY3aD+6cNUMGKxQWlNDO2NC6Dp4S29fhKisUlhVH8MeGq5Daal87nb1BYQXhOC7ZausiSE48uziSqlBYMI7mlWRbb9W9Bq52PXxdhcKy5JiO2XJ1celFXO3LI4YqFBacYztnS6t5bbWduKdx3TxGrY7CciGGgzKuNuoC9+Y7G00dPVChsGyI5qWcarNWbxjkxnajXmsG7n+isHwS2Vc7KtWNwmq1Rka2ejzL/3vzl81q9aglupzYvioVsZ1VJmL7CkEQBEEQBEEQBEEQBEHKy/8BNdS2nIP5ITMAAAAldEVYdGRhdGU6Y3JlYXRlADIwMTktMDUtMDJUMTQ6MDg6NTctMDU6MDBPmV0HAAAAJXRFWHRkYXRlOm1vZGlmeQAyMDE5LTA1LTAyVDE0OjA4OjU3LTA1OjAwPsTluwAAAEN0RVh0c29mdHdhcmUAZmlsZTovLy91c3Ivc2hhcmUvZG9jL2ltYWdlbWFnaWNrLTYtY29tbW9uL2h0bWwvaW5kZXguaHRtbA/X5TgAAAAYdEVYdFRodW1iOjpEb2N1bWVudDo6UGFnZXMAMaf/uy8AAAAYdEVYdFRodW1iOjpJbWFnZTo6SGVpZ2h0ADMwMHwVf14AAAAXdEVYdFRodW1iOjpJbWFnZTo6V2lkdGgAMzAw7+QvAwAAABl0RVh0VGh1bWI6Ok1pbWV0eXBlAGltYWdlL3BuZz+yVk4AAAAXdEVYdFRodW1iOjpNVGltZQAxNTU2ODI0MTM3vciS9QAAABN0RVh0VGh1bWI6OlNpemUANi43OEtCQsZSSsAAAAA3dEVYdFRodW1iOjpVUkkAZmlsZTovLy90bXAvbWluaV9tYWdpY2syMDE5MDUwMi00LTZ2czdjai5wbmcRf1BIAAAAAElFTkSuQmCC;base64,iVBORw0KGgoAAAANSUhEUgAAAc0AAAIACAYAAADg2zfqAAAABGdBTUEAALGPC/xhBQAAACBjSFJNAAB6JgAAgIQAAPoAAACA6AAAdTAAAOpgAAA6mAAAF3CculE8AAAAB3RJTUUH5QEdCwwx5HAmtAAAAAZiS0dEAAAAAAAA+UO7fwAAKNtJREFUGBntwQmcnXV96P/P93eeyZ4QQLbIFjbZFLG4ovVkEqsiVW/tv4u12lE7yaldbKteW6+tVG3Vaq92eZ1kqp223ra2f/eKdUkmRxBFUZYqGEAJIEhYA9lne343V7lXpAGeJLM+5/N+BzNEk4E5DcpFwOIM8yBOCjgzw8lBPo8fmQucDCxEklQHI8AtwP0Zboe4EfJ3IW4I8q0ZdmbYkZm7u0NfyTQLpkmTwUiMLYTxY4FjgDMCngr8FLAcWIQkqZvdDHw7wzeCuBbyTRk2l+T7O7Qy0yCYBk0GDkuUPw2cH3AucBpwDFAgSdJ/tQu4DrgSuBK4bJy513foG2UKBVOkyWCjwcjJmfzSgGcB5wDHAgWSJFW3FdgEfKMkPp6Jr3Xo380UCKbACj54VDD+m5B/LuA4YBEQSJJ04IaBu4Ergvw/19O6lEkWTJKVrJubieMg/xLk3wk4HAgkSZpYGRgDLgb+JsM3SvIDHVqZCRZMsCbtSMTRARcArwPOARKSJE2+rRn+Bfj7gKs2sGaMCdRggp3Ei1cFvBH4DeAkIJAkaWrMD3hywJOBnhN48fdu5t93M0GCCdKkvbhB9AH9wFlIkjS9tgKfAv5iA2u+xQQIJsAq2keXxB8E/ApwOJIkzQwjwBUQ7xxnzhc79I1xEIKD0MvaBsTTg/ynwHOAhCRJM0sGtmR4byY+tJHVD3CAGhygJoNFYvxFAe8Fng4EkiTNPAEsDngusHs5L7pxMxfv4AA0OABNBnsajLwM+CvgVCRJmvmKgGcGsWg5L/r2Zi7exn5qsJ+aDPY0GPkFyBcBJwCBJEmzQw9wdhCLlvOib23m4m3shwb7oclg0WDkZZAvAk4GEpIkzS5zgLOCWLCcF121mYt3UFGDinpZ20iMrwTeDZwGJCRJmp3mAOcFMb6cC6/czGf2UEGisvx04D3A6UAgSdLs1gBeD9HXZLCggkQFq2gfHcSfAecgSVJ9zAvyGxqMXEAFicfQZHBOSfx34NlIklQ/R0N+ay/t83gMicfQYPiVAS8HEpIk1U8A5wTxW00GDuNRBI+gSTsS6dlB/gDwZCCQJKm+tmd4V6bx/o38+i72IfEIEnEk5FcCTwQCSZLqbXHAK4LxpzcZSOxDYh9W0S4CmgE/CxRIktQdzgj41UR5CPuQ2IeSOAJYAxyFJEnd5aWQV7EPiX3KFwLnI0lS9zkU4o3sQ/AwvbTnQ1wbsJzpl4HdwG5gBLgjk28HxpEk1cHCIE4ElgLzgIVAYvqNZ/LLh2j9Gw9R8F+9JuBEptcwcAdwPeShDJeV8K0OrW1IkmqlyeDcBiOnZ8pzgQuDOA04HlgCBNOjAfHbvbS/OERrKw8KHqKX9rEQnwg4j+lRApuA9Zm8HvjSEK1tSJK6QpOBuUE+K5FXAquAFUAP0+Ne4Pc3sOYfeFDwECtZ+yrgfcDhTL1h4F8y+R8SXLWe1gNIkrpSk8EiseeUIP4b8GrgFKbeOPCv46RWh/5t7FXwoCbtRcDzgKVMve9neAfkTw/R2oIkqat16BsDNq2g/f5EfAV4M/ACplYDOLfB+HnAEHslHpRITwTOBhpMnTHgCsivgfi7knlbkCTpQRtp7c7kS0vitcBaYBdT66RMPGcFH5rLXgV7NRkogvJZwMlMnTHgc5n8xiFam5AkaR+GaJXA7U3ab2oQo8BrgAVMjbkBTwlGlwGbE3sF5VHAU4FFTJ2rMvE/hmhtQpKkx9ChtX2c9CfAPwKjTJ1zMpzAXom9gnwscCZT527I/2OI1dcgSVJFHfrvKYl3AJ9j6hwbcNYq2nMSewVxNHAqU2M4w7tKYiOSJO2noLwD8nuAa5kaDeC8EhanVbQXAk8G5jH5MvA5yB/L5FEkSdpPQ7TKkuLrQBvYxRTI5KcCi1IJizP5aUyN2zP5g0O0bunQQpKkA7GRXx/J5C8CHaBkkgVxMsThCVgAcTqTbwzYAHwdSZIO0hCtGzJ8HLiXyTcPODcFMSfgGCbfPZk8NETrLiRJmhBpA3ATUyI/IWXiRGA+k++WDJcgSdIEKem5FfgqMMIkC+KMFHAqk28sk6/PcCuSJE2QDn1lJn8O2Mkky+RlKVOezuTbBbGxQ6tEkqQJVMIVwE4mWRBPSUyN0SB/F0mSJliH1n3A95kCKeAQJt9IwCYkSZoU+XqmQMpwApNvfD2te5AkaRJkuIUpkIC5SJI0uw0zBRKSJKmShCRJqiQhSZIqSUiSpEoSkiSpkoQkSaokIUmSKklIkqRKEpIkqZKEJEmqJCFJkipJSJKkShKSJKmShCRJqiQhSZIqSUiSpEoSkiSpkoQkSaokIUmSKklIkqRKEpIkqZKEJEmqJCFJkipJSJKkShKSJKmShCRJqiQhSZIqSUiSpEoSkiSpkoQkSaqkQLXRS/uoIA6lBjL5fuDOIVoZdZVVtNlraSaOph72jJNu69A/hma9AtXJHwC/AfQw+w0ArwPGUFfJRAJeDbyPergcuBC4F816CUmaWRLwU9RDBu7t0H8vqoWEJM0gGVKG86mH8Uy+DdVGQpJmkEw+KuA46mEU4kZUGwlJmkECngsk6qGEvAXVRkKSZpQ4j/oYhXQDqo2EJM0gAU+nPsZK4iZUGwlJmiFW0T4OeDw1kcnf69B/L6qNhCTNECWcByygJgK+g2olIUkzxzOAhdREhhtQrSQkaQZoMjAP4jRgDjURxGWoVhKSNAME5WkBxwGJetiZSd9FtZKQpBkgwbnAsdRGvjYY34lqJSFJ06zJYA9wJvA4aiOuycQoqpWEJE2zxJ7lwDlAg/q4OpFHUa0kJGmaBXEScBb1sRO4ej2tUVQrCUmaRqtozwFOBY6mPq7P5PtR7SQkaRqVxKHAM4GC+rge4n5UOwlJmkYBhwJPoV6+GcRdqHYSkjRNVtCODGcCp1Ift2XyDRtYPYZqJyFJ0ySgCGgCifq4CbgZ1VJCkqZNMR+4gPooge8luBXVUkKSps34U4CTqY8dwHXraT2AaikhSdMk4Jeolzsz+UpUWwlJmgYrWPt44AXUy5YSrkG1lZCkaRDEzwBLqY/hDJd3aN2LaishSVOsycDCID8fWER97Aa+iGotIUlTLFE+CTgbaFATGe4qSV9DtZaQpKn3NOBY6uVLHfq3oVpLSNIUWkV7WcCzgCXUx3gm/hHVXkKSplCGs4DzgKAmMnwjyNeg2ktI0hTppT0/E+cCx1Mvn4TYg2qvQJKmSBBHAy8ECurjLsiXleQxVHsJSZoCTQZSJs4Bnka9XAZs7tDKqPYSkjQFEuXcoHw1sID62A1syPTcibpCQpKmRDolEyupl2shX7GR146irpCQpClRviZgAfUxDlwZcD3qGgWSNMlWsm455AuplzszfGkDrQdQ10hI0qTLPw8cTX1kYFOmsQF1lYQkTaIVtI8AXggsoD52Q/6PTHEX6ioJSZokTQYjwUuBs4GgPm4fh7/r0JdRV0lI0iRJjD4uE+cDh1EjmfzJDq37UNdJSNKkKc8JOB9oUB/bgvQPqCsVSNIk6KW9NOD5wInUSCZ/HPL3UFdKSNIE66UNxCkZfhkoqIlMvhsYAIZRV0pI0sSbB/QHPJ76GA/ifwGbhmhl1JUSkjTxTg34Berl9kz+4hCtrahrJSRpwsVvAYdQHyVwGcQ1qKslJGkC9dJ+SsAF1MsdGT5TMncL6moFkjRBemkniDXAkdTHWCZ3gE906CtRV0tI0sRZGbAC6KE+7gL+cojWbtT1EpI0AXppL4F4KXACNZLJXxii9XWkvRKSNCHivICVQA/1cQ/wAaQHJSTpIPWy7nDgpcDJ1MtgENciPSghSQdhBR8K4MnAy4GC+vhP4MNBHkV6UIEkHYRgdGnAm4HDqY+tGT5Qkjd1aCH9XwlJOjgXAquoj/EMQ8DGDq1RpIdISNIBWkX7mIA3UC+3AR8pmXsr0sMkJOkAlcQa4AnUx0gmbwji8x36xpEepkCS9lOTQRIjzwzyzwFzqY/NGd49xOrtSPuQkKT9FIwuhfxa4AzqYziT37WR1g1IjyAhSfuhSbsRlL0Bq4AGNZHh8xD/jPQoCiRpPzSIY4CXA8dTH98NeH+QR5EeRYEkVbSSdT2Qnw88n/rYlWEQ4usbWJORHkVCkioqScdk+CNgEfXxxSB/pGTOTqTHUCBJFayiPS8z9l6I46mHDHwrwweGaN2EVEFCkh5Dk8FGJn4O4gLqY3uGD5XMvQypooQkPYbEyNkZfhtYQH18riR9uEPfCFJFBZL0KFbRPiyTXwM8CQjq4aZMfluH/q1I+yEhSY8iE88GXgLMpx72ZPJFGTYh7acCSdqHJgORKM8C3gAcTz3sBt4dpE+UlBlpPxVI0j4k8jzgFcBzqIdR4OIMHx5i9XakA5CQpH17VsCrqIcMbMqwdog1NyEdoIQkPUyTgaOD/HbgaOphK/D+kvQVpIOQkKSHaDI4r0H5BuA8aiKT2xAf6dC/G+kgFEjSg1ayricz/ArgFUAPs9848PEg3raB1WNIB6lAkvZq0m5k8jMDWsBRzH5lhq9l4q2ZOWNIE6BAkvZqEMuA1wHnUA/XA3+aie916EOaCAWSul4v7fnAK4EXAg1mv9sz+a+AL3XoH0OaIAlJXS+Tngz8HrCY2W8H5A8CHx6itQNpAhVI6mq9DBwH5d8BhzH7jWb4l4C3D9EaR5pgBZK6Vi/tw4LyHcCpzH7jGS4umfv6Dn3jSJOgQFIXiycCS4CvMvvdmol3w+gupElSIKmLxQ2Z8o+AxCyXiXsysaVDP9JkKZDUtYZYfQdwB5IqSUiSpEoSkiSpkoQkSaokIUmSKklIkqRKEpIkqZKEJEmqJCFJkipJSJKkShKSJKmShCRJqiQhSZIqSUiSpEoSkiSpkoQkSaokIUmSKklIkqRKEpIkqZKEJEmqJCFJkipJSJKkShKSJKmShCRJqiQhSZIqSUiSpEoSkiSpkoQkSaokIUmSKklIkqRKEpIkqZKEJEmqJCFJkipJSJKkShKSJKmShCRJqiQhSZIqSUiSpEoSkiSpkoQkSaokIUmSKklIkqRKEpIkqZICSbXTZGBhwEIgQbkgiMX8WAryETyKDPMD9gCZ/2pXJrYHeSwTD2RiNMOuDv3bkWquQNKs0mTgiIAlUB4SxGFBXgosBRYDR/FD5RJgCZCAxZCX8mMFsIxHEbAQ2AVkflIGdgR5KzAW5HuCPALsWMnau4F7M2yBuDuTb4PG/Zning59Y0g1UCBpxlnBwJHAkUE+FTgkyKcCRwJHQbkImAvMh7wAWADMB+YCi5k4h7N/SmBnwDbIOwLuh/HdmfEtK1n73Ux8JxNXZHpu7dA3jDQLFUiaEk0GCHIKiCAHkEriEIgTg3wm5OMCzs1wWlAuBgpgHtAA5gIF0MPMlYDFwGIeIqAEhoO8J8g7Yfj+XtZeE8SXMuk/gvE7M5QZyo2syUgzWIGkCddkMIKxuUG5OMgLgfmZ8kjgNIjTgCcBpyXyiZB5qKB2EjAfmA8cChwbcDbkXwnGS+Aa4NKA9b2svS7DfRtZsxVpBiqQdNCatOcEcWgQRwT58ZnhxwWxLMNZwOnA8QHH8EMZ/T8JODfgXGBNhk0Bl/Sydj2wOcPmjazZjjRDFEjab00G5wSjy4L8hCAfn+HEgBMgHwucGnAE5J5A+2FOwJOAJwG/CnwLuKqXtZdn8saNtO5AmmYFkh5Tk4EU5DMS+SkZnhgMnwQcCRwNHBawBOhBE+UQ4NkBzwReFsSmlaz9AsS/b2D1dUjTpEDSDzUZJBiOgIBGkeHxQfm0IP80lM8FlgALAxYAc4FAk60BLAOWAU+D/Ope1l4M8aFM4/pMY6xDH9JUKZC62AracxJpMeSFMPK4DOcAK4Lx5wYcj2aSRcBpAadl8ppg/ONB+Re9rLupZM4DHfoy0iQrkLpIk8EIRpcE5TEBy4CzIJ8LnAH5rIDFaMYLmA/5VzJ5FcS/Jkb+vZeBK0t6tnboy0iTpEDqAisYODrIZwTDZwFnAacApwLHAQnNSgFHQX4d8KJMvrjByEdXsu7SDaxGmgwFUg01aadEnBTwzAw/FZRnAMcBxwBLUZ00gJMDVkNeAQw2GfinDv13IU2wAmmWW8FaEgHkKOH0gJXAiwNOAZYELALmAIHqbC7wROBtDcrn9zLwzpLi8oLh0fW0kCZCgTQLNRkoEuWSgCUZzoTcC7w4wamo2y0Bnh+Uz2ow8sFMtJv83U0dXj2OdJAKpFlkBWuPCzgRylOA84FnBTwBSEg/aTHwu8B5DUbf2WTgyx36dyIdhAJpBmsymBqMHg3lkzKcHvAs4MnAcqBAemzPgfxXidzupf2RIVp3IB2gAmkGCjgU0vMaDD8beBpwQsDjgQVI+++UgD+AOLOXte8ZYs2NSAegQJqR4gWQnw0cAixAOjgBHAG8IuD0XgbWlPRc26EPaX8kpJlpMXAMsABp4swDng3l5cHIC1eybj7SfkhIUpcJWBTkD0J+VS/tpUgVJSSpCwUsA/4oiFf30j4UqYKEJHWvY4Dfh/jNXtYdivQYEpLU3ZYF/D7kt/SytkB6FAlJ0iEBvwu51Ut7AdIjSEiS/o8UxDuC+PVe2kuR9iEhSfq/lgBvhHhZk4H5SA+TkCQ91DHA7wX5giYDc5EeIiFJeqgUcEYi/2GC05sMBtKDEpKkhwvg3KD8m8SeI5EelJAk7UsA5wf8ySraS5D2SkiSHkX8ckm8skl7Hup6CUnSo1kU8JsNYgXqeglJ0qMJ4GTgtb2sOwl1tYQk6bEUwAsh/9IK2gtR10pIkqqYH9BKRLOXdkJdKSFJqurYDG/O8DjUlRKSpMoCnp7g/0NdKSFJ2h89EL+1ivYpqOskJEn766RMvKGX9hzUVRKSpP3VAzwPWIW6SkKSdCCOg3hxL+1DUddISJIORE/ASojzUNdISJIO1HLgl3tpH4W6QkKSdKAawM9DOncFH0yo9hKSpAMWsBjyLwajc1HtJSRJByXg5wKOR7WXkCQdrCUQv4RqLyFJmggvb9I+DNVaQpI0ER6fiF9EtZaQJE2E+cDPrKI9H9VWgaRusQPYDmRgDLgfGKa6BcChwFJgAXq4FHBGhp8CvoxqqUBSHdyaYWfAD4BhYAuwPcP2gDvYK8MOyDuAEhgLeCDDHioKWJhhKXBoEIuBI4HlwEnAycARaFkmngV8GdVSgaTZYitwE3AjsAW4BbgTuCOTdwCjmdgBeTxgV8DIOI3RDv07mWBNBlOD4fmZWBKUh2TiMODMID8XYgWwDAi6z6KA81ay7ugNrN6CaqdA0nQrgVFgDBgDdmTyzRCbIL4XlFdl4paAu4GxTB6DNJ4ox4Hx9bTGmWId+kpgJ7ATuKPJIImRr0P+CDAXYiWUvwzRC8wHeugOAZwN5RnAFlQ7BZKmUgnsArYCDwDbge9nuBri5kR5zRjzburQt4dZpEMfe40BO4AdwL81aX8iyE9OxK8CPwOcAjSov1My8aSVrPvyBlaPolopkDTZ7gRuBu4EtmTyrcB1Qbp+nPLWDq0d1FCH1ihwRZPBqxPD5we8CrgQeBz11hPwjEz+/4EfoFopkDSRMuQtENcDNwLfzeTNwE2QtpSU93RoDdNFOvSNAp0VtK8O+FoQvwE8kXo7O+Aw4AeoVgokHaztGa4J+BrE5Zl8W8B9JbE1E1s79I8hNtK6v5f2YIZvB7wZeAHQoJ5OhTi6yeC1Hfoyqo0CSVWNAaPAaCZvAjYGMZRJN0D5AMRwSWPPRlaXaJ+GaA03GfhKkH83kdnrecAc6mcu5GZiz6XAMKqNAkmPZBzYAdwD3J3hSuCrkL5S0nNLh75xtN869JfAjU3av5qIPw/4NaBB/ZwfMBcYRrVRIOnhbgVuAm7M5E1BXFHSc/VGXrMdTZgOra0rGHh7UJ4K/DT1c2amMR/YhmqjQNIYcDPwDeBbwLWZuKGk3NyhtQdNmkS+FbgIeD/wROrlyKBcDtyJaqNA6l7XApdm2Ah5cxA/CPJd62mNoimxgdW5l/ZlwEAQ7wYWUCOZ/AzgclQbBVL9ZWAMGAFuBj4N8QXg+gzbS8rdHVrjaFoM0RpeSftTwHOBlwFBTQRxHqqVAqmeMrALuCuTN0Ncksj/vp7WlWjG2UDr+720PxbEM4HHUx+noVopkOplJ/A94LuZfDXEJSWNb3bo34FmtAQbMnwNeAnQoB6WNxlY0qF/G6qFAmn2GwduBL6S4WqIq0ri+g79d6NZYz2tu3tpfyaIXmAp9VAk8snAVagWCqTZa1uGKyA+BvkKiFtLyvs6rBlDs1ImfSHIdwFLqYcCylOBq1AtFEizxziwJ5O/BfFR4PPAlpLY1mH1CJr1MnN+AMOXAadRDw2II1FtFEgz2yhwL/B9yJdA+vgQa76CaqlDX+6l/fEg+qiHAvIpqDYKpJlpG3AtcBVwSSZvHKJ1F6q9DN8IGAMKZr8EHIZqo0CaOcaBW4EvZ7gc4rKSOdd16BtFXSMR9wHfB5Yz+zWCOA7VRoE0M3wJ+DzwpZLYnIm7OvSPo66TySXw9SCWI80wBdL0GAfuz+QNwIeDuCKTtw3R2o0EW6mPhU0GjunQfwea9QqkqVMC9wI3AR+D+OgQazYjPUSCErgyUxs9BeOLUC0USJNvD3AzcE0mf7aEz3Ro3YckzTIF0uT6coYNkL8MXDFE6wGkR5FJGfI9SDNQgTTxRoGvZvhEkNeXNG7q0L8LqYJx5uQGI7dBRpppCqSJkYHhDF+DWAdcminvHqI1jLQfOvSxkrVjSDNQgXRw9gB3Z7gS8vuHaHWQpJoqkA7MCHAtcCnwyUS+bD2tESSpxgqk/TMKfB34LOShcbiqQ2sYSeoCBVI1ezL5siA+nuGykrnXdugbQ5K6SIH0yDJQZvJ64B+AjSVxX2bOSIc+JKnbFEg/KQPDwD2QvxDw9xtoXYokiQLpx0aAa4AvZ/LHS/h6h9YIkqQfKpBgN3AF8IVM/nzJvGs69I0iSfoJBepmu4FLgE9k8mXApiFaY0iS9qlAXSp/JpP+BsprgnTvEGtGkCQ9qgJ1i93AFmBjCWszXAkx3qGFJKmaAtXdMPDtTF4P8cmSud/s0DeKJGm/FaiutgNfz+RLgM8O0foGkqSDUqC6GQUuzvDpIF+e4HvraY0gSTpoBaqNIL6Y4T+CfE1J494O/aNIkiZMgWokPpsp8xAtJEkTr0C1sYHVGUnSpElIkqRKEpIkqZKEJEmqJCFJkipJSJKkShKSJKmShCRJqiQhSZIqSUiSpEoSkiSpkoQkSaokIUmSKklIkqRKEpIkqZKEJEmqJCFJkipJSJKkShKSJKmShCRJqiQhSZIqSUiSpEoSkiSpkoQkSaokIUmSKklIkqRKEpIkqZKEJEmqJCFJkipJSJKkShKSJKmShCRJqiSh2mgycESTgYQkaVIkVBuJ8Vclyt9GkjQpClQnxwa8vJe1PQF/Pc7c3R36kCRNjITqZmnARcAHEqPHNhkMJEkTIqE6mg/8clBeFIyc0WQgIUk6aAnV1SLglUF+T5BPQZJ00BKqsyLgBYn8oV7aT0OSdFASqrsGcH4Q7V7az+llbYEk6YAk1A0CeEoQ/wt4VS9rFyBJ2m8JdZPjA94S0N/L3y5BkrRfEuo2y4E/DsZ/t8ngXCRJlSXUjZYCr08Mv6fJwBFIkipJqFstDXhtonzHCtYt66UdSJIeVULdbEFAfyL/PfCUXtoJSdIjKpDgeUGUGd4LrEeStE8J6UeeH/AXvaz9mSaDPUiS/ouE9GNnB7yvwcivNhnsQZL0ExLSjwVwFuQ/ajD8miZrFzUZQJL0IwnpJwVwAvD+BG9uUB6JJOmHEtK+zQ14A/CWXtrHIkkiIT2yucDrgnjbStaeiiR1uYT06BrAy4F397L2PCSpiyWkxzYfuDDgz3pZ9/QVfKiBJHWhhFRND7AqyB9LjD2/SbsHSeoyCWn/PB5yOxEvazKwEEnqIglp/x0PvDdR/toq2kuRpC6RkA5AwLKAt2Ti9b20j0CSukBCOjABHAP8XhBvWsnapUhSzSWkg7MYeEOGf+tl7dFNBhOSVFMJaQIErAL+usHIU5sMNpCkGkpIEyMCXgL5XYnh5zRp9yBJNZOQJk4BnB/wviC9sMlAD5JUIwlpYvUA5wb5/Q3GL+iljSTVRUKaeBGwHOKTQGslaxchSTWQkCZREH8K/E4va5chSbNcQppcS4E3AG/sZd2JTQYDSZqlEtLkWxrwa0F+d2L0xCaDSNJslJCmxlLgpUG5DvYchSTNQglp6swBnpeIjStY9/RVtHuQpFkkIU2xgCckcjsTF/TSXogkzRIJaeol4FzgXUH8/ErWLkCSZoGENH1OB/44w+t7WZuQpBkuIU2v5QFvCnhLk8H5SNIMlpCm3yHAHzYY/pteBpY1GUhI0gyUkGaGecAvBuX7gvykJgMNJGmGSUgzxwLg54N8USI/bSXrAkmaQRLSzFIEXBDkv8yUz0CSZpCENPMUwHlBtHtZ93wkaYYokGauJwV5oJe1bw/in8eZs6tDH5I0XRLSzBXA8QEXQf6txOjhTQaRpOmSkGa+ZcCbg/J3gtGjkKRpkpBmh6XA7wTl25oMzkWSpkFCmj16Ar4KjCJJ0yAhzXzjwO2ZeGWGf+7QVyJJ0yAhzWxjGb6R4TUl5aeGWDOGJE2TAmnmGgE6EO8tmTPUoW8cSZpGBdKMlb8I/EHJ3Os69I0jSdOsQJqZ/hl46wZaNyFJM0SBNHNkYBfwwQx/BulOJGkGKZBmhgzcCXwgyOs20NqKJM0wBdLMcDPwgXHSYIf+bUjSDFQgTb87M/HGkvKzHfp3I0kzVEKaXldn4nUlPZ/q0NqNJM1gBdL0GAWugPwmiMshxpGkGa5AmnrDwL9n4o+HWHMdkjRLFEhTaxT4cCa/Z4g1NyJJs0iBNHVGgIEgv2MDrTuRpFmmQJoa92X460y0M+lOJGkWKpAmVwa2ZPjzTONvM2M7OrSQpNmoQJpc10F+W8m8T3foG0GSZrECafJcCfmiDbQ+jSTVQIE0OS7J8LYhWhuRpJookCbWGPBZyO8ArkKSaqRAmjh7gE+VxB80yLdsoFUiSTVSIE2MnRn+qmTuRR369iBJNVQgHbwfZPhwydyLOvTtQZJqqkA6OLdBfm/A33bo24Mk1ViBdOC+A/ntwGc20NqFJNVcgbT/MnBDJv8esGGI1iiS1AUKpP1TAleMk36hQ/+tSFIXSUjV7QIuLon+Dv23IkldpkCqZleGj0J6e6bne0hSFyqQHts2yAOQ/rKk57YOfRlJ6kIF0qPbBfmvgT8dYvVOJKmLFUiPbEsmv2GI1j8hSaJA+q9K4NoM7wU+hiTphwqkn1QCV2firSWxvkP/CJKkHyqQfqzMcCnEm0viyg79I0iS/p8C6UfGM1yVSa/K9NzaoS8jSfoJBRLshPxvAb87RP8DSJL2qUDd7k7gX4D3baD1AJKkR1SgbnYv8IFM/tshWvcgSXpUBepWWzO8HvJnh2jdhyTpMRWo22RgWybWlMQnOvSPIkmqpEDdZCzDNRC/WTLnax36MpKkyhLqFnuAjRBvKJlzRYe+jCRpvxSoG4wDn4P8x0Os+U8kSQekQN1gHeQPbKB1A5KkA1agOtsNDGbynwzRuhNJ0kEpUB1l4M4Mf1aSPtihfxeSpINWoLopgRszvK8k/UuH/l1IkiZEgWolw40Qf1Iy55Md+kaRJE2YAtXJVZA/UTL3sg59Y0iSJlSB6uSjwK4OfRlpdvsOcAb1MAzcjmqhQLUxRGsnUg1sYM0eYBPSDJOQJEmVJCRJUiUJSZJUSUKSJFWSkCRJlSQkSVIlCUmSVElCkiRVkpAkSZUkJElSJQlJklRJQpIkVZKQJEmVJCRJUiUJSZJUSUKSJFWSkCRJlSQkSVIlCUmSVElCkiRVkpAkSZUkJElSJQlJklRJQpIkVZKQJEmVJCRJUiUJSZJUSUKSJFWSkCRJlSQkSVIlCRhmCjQZbCBJ0uRYwBRIAbcw+YoGI0cjSdIkCOIUpkDK8ACTrwfK5UiSNAkynMAUSEyNucATkSRpgjUZWBZwPJNvVwrSJibfvEw8s8lAQpKkCZTIzwQWMsky+bqU4UYmXxFwdqI8A0mSJkiTdk+QfwZYyCQLuCkFeTOwncl3IrCqyWADSZImQCKeADwN6GGSZbglAXuAW5h8hwDNxPBxSJJ0kJoMFsALgOVMjWtSJu8BNjP5UsBzgPObDDaQJOkgJIZPD7gAWMLk2xPEt1NJeiDDl4HM5Dss4FWJ4ZNW0UaSpAOxgvaCgBcDzwGCyfdt4L7UYfWegG8D25h8ATwv4NdLGguQJGk/9dJOifhpYA1QMAUy/Gcm70z8yO3Ad5g6/UH+eSRJ2k9BOhV4K3AcU2ME+EpJY3tir5J8O3AtU+cQyG/rZe1KJEmqqMnA4zL5LcCzmDqbIW/q0D+a2CvD1gzXAjuYOicEvLOXtSuRJOkxNBl4XKK8KOBlTK1rAm5hr+BBvbSfEsRa4KlMnRK4EeKikvTJTN7doR9Jkv6PJoMkRhswflYQfwK8EJjD1NmRyW9N8JfraZWJB5XM+zbwDWCEqZOAJ0BuB+NvTpSnNBlsIEnSXg1GHgf55UH8E/ASYA5T63rgy+tplewVPMRK2i+FWAscxfT4Qib+EbisZM73O/SNI0nqOqtoH5KJJwO/CLwcOISpNwL8wzj59R1au9greIhVtA/L8BGI5zE9MnBfhkuBL2b4XCbf3KFVIkmqtSaDkRg7PBh/NrAKWAGcDiSmxx3Aazew5rM8KHiYlbT/G8RHgcT0KYH7gM0ZrgM6EN8piU0d+h9AklQLTQZ7gpGTAp4Y5GcATweOA5YBPUyjTP5kglesp7WTBwUPs4r2nBK+FMQzmBnGgN3ACDAClBl+EHAbkqRZKcOxAcv4kR5gLjAPmMvMMAp55QZal/IQwT6spP0SiH8GFiBJUpfJ5E8N0XopD5PYhwxfyfB5JEnqPncE/CX7kNiHksZ9wAeB7yJJUvcYA/4e4uvsQ2IfOvSPQ1yW4ePAHiRJ6g7fzMRHx5m7k31IPIKSOduC+CfgG0BGkqR6uzOTPwj8Z4e+zD4Ej2El7Z+DeB9wIpIk1dNuYN04+a0dWjt4BA0ew2Yu/s5yLiwCngsUSJJULxm4BOItG1lzF48iUUFJXgd8DEmS6ucWyG/bwOqbeQwNKriZi0dO4mc3AacCJyNJUj3cmeFNQ7Q+SwWJijJsgvxO4GogI0nS7LYzw//MpE9TUbCfVtJ+DsS7gKcBBZIkzS4ZuCfDe0rS2g79O6iowX7azMW3nsSLNkM8ATgWCCRJmj3uyfAXJWlth/7t7IcGB2AzF998Ei+6EeIpwNFIkjQ77MrwzpK0tkP/NvZTgwO0mYtvPYkXXQtxBPAEJEma2e6E+O8l6e879G/nADQ4CMu58DbgP4M4CjgZKJAkaWbJwM0Z3pRp/GuH/l0coGACNGkvSsSagBawHAgkSZp+24H/yMRFQ6y+joMUTKBe1l4Q8IfA04ECSZKmz82ZPFjS+JsO/fcyARpMoM185saT+NlvAmPAUcBSJEmaWruBL0D+85J5H+rw2h1MkAYT7ARedleQL4f8bWB+wIlAD5IkTa4SuD6T3xfw/oCvDvHrY0ygYJI0GWgkxg8DXgLx+oAzgIQkSRMrA/dl8gcg/SuU3x+itZtJEEyBVbTnZLgQWANxDnA40ECSpAOTgR3A9yFfUsJfbKR1I5MsmEKraB+eiVXAC4EzgVOBpUiSVM0YcBtwbSZfAo1PlvR8r0PfOFMgmAZNBuck9pwNPDOIpwJnAqcBS4BAkqQfGwPuAK4DroD8zYDL19PawhQLplGTdiOIwxM8HjgmE2cF+anAk4DjgflIkrrNGHBHJn8riJsyXAV5cxC3Q9yygdXDTJNgBmkyMC+RFwd5ITAvEycGeVkm/xQ/cgJwJJKkmoitwC2QRyHuD7ga4ruZchuwE9hdws4OrTFmgP8N5Mc3Tp228K0AAAAldEVYdGRhdGU6Y3JlYXRlADIwMjEtMDEtMjlUMTE6MTI6NDkrMDA6MDBRIWBUAAAAJXRFWHRkYXRlOm1vZGlmeQAyMDIxLTAxLTI5VDExOjEyOjQ5KzAwOjAwIHzY6AAAAABJRU5ErkJggg==;" vertex="1" parent="1">
          <mxGeometry x="-20" y="380" width="225" height="225" as="geometry" />
        </mxCell>
        <mxCell id="YWYVbX-TZwlWx46NHFRt-2" value="" style="shape=image;verticalLabelPosition=bottom;labelBackgroundColor=#ffffff;verticalAlign=top;aspect=fixed;imageAspect=0;image=data:image/png,iVBORw0KGgoAAAANSUhEUgAAAc0AAAIACAYAAADg2zfqAAAABGdBTUEAALGPC/xhBQAAACBjSFJNAAB6JgAAgIQAAPoAAACA6AAAdTAAAOpgAAA6mAAAF3CculE8AAAAB3RJTUUH5QEdCwwx5HAmtAAAAAZiS0dEAAAAAAAA+UO7fwAAKNtJREFUGBntwQmcnXV96P/P93eeyZ4QQLbIFjbZFLG4ovVkEqsiVW/tv4u12lE7yaldbKteW6+tVG3Vaq92eZ1kqp223ra2f/eKdUkmRxBFUZYqGEAJIEhYA9lne343V7lXpAGeJLM+5/N+BzNEk4E5DcpFwOIM8yBOCjgzw8lBPo8fmQucDCxEklQHI8AtwP0Zboe4EfJ3IW4I8q0ZdmbYkZm7u0NfyTQLpkmTwUiMLYTxY4FjgDMCngr8FLAcWIQkqZvdDHw7wzeCuBbyTRk2l+T7O7Qy0yCYBk0GDkuUPw2cH3AucBpwDFAgSdJ/tQu4DrgSuBK4bJy513foG2UKBVOkyWCjwcjJmfzSgGcB5wDHAgWSJFW3FdgEfKMkPp6Jr3Xo380UCKbACj54VDD+m5B/LuA4YBEQSJJ04IaBu4Ergvw/19O6lEkWTJKVrJubieMg/xLk3wk4HAgkSZpYGRgDLgb+JsM3SvIDHVqZCRZMsCbtSMTRARcArwPOARKSJE2+rRn+Bfj7gKs2sGaMCdRggp3Ei1cFvBH4DeAkIJAkaWrMD3hywJOBnhN48fdu5t93M0GCCdKkvbhB9AH9wFlIkjS9tgKfAv5iA2u+xQQIJsAq2keXxB8E/ApwOJIkzQwjwBUQ7xxnzhc79I1xEIKD0MvaBsTTg/ynwHOAhCRJM0sGtmR4byY+tJHVD3CAGhygJoNFYvxFAe8Fng4EkiTNPAEsDngusHs5L7pxMxfv4AA0OABNBnsajLwM+CvgVCRJmvmKgGcGsWg5L/r2Zi7exn5qsJ+aDPY0GPkFyBcBJwCBJEmzQw9wdhCLlvOib23m4m3shwb7oclg0WDkZZAvAk4GEpIkzS5zgLOCWLCcF121mYt3UFGDinpZ20iMrwTeDZwGJCRJmp3mAOcFMb6cC6/czGf2UEGisvx04D3A6UAgSdLs1gBeD9HXZLCggkQFq2gfHcSfAecgSVJ9zAvyGxqMXEAFicfQZHBOSfx34NlIklQ/R0N+ay/t83gMicfQYPiVAS8HEpIk1U8A5wTxW00GDuNRBI+gSTsS6dlB/gDwZCCQJKm+tmd4V6bx/o38+i72IfEIEnEk5FcCTwQCSZLqbXHAK4LxpzcZSOxDYh9W0S4CmgE/CxRIktQdzgj41UR5CPuQ2IeSOAJYAxyFJEnd5aWQV7EPiX3KFwLnI0lS9zkU4o3sQ/AwvbTnQ1wbsJzpl4HdwG5gBLgjk28HxpEk1cHCIE4ElgLzgIVAYvqNZ/LLh2j9Gw9R8F+9JuBEptcwcAdwPeShDJeV8K0OrW1IkmqlyeDcBiOnZ8pzgQuDOA04HlgCBNOjAfHbvbS/OERrKw8KHqKX9rEQnwg4j+lRApuA9Zm8HvjSEK1tSJK6QpOBuUE+K5FXAquAFUAP0+Ne4Pc3sOYfeFDwECtZ+yrgfcDhTL1h4F8y+R8SXLWe1gNIkrpSk8EiseeUIP4b8GrgFKbeOPCv46RWh/5t7FXwoCbtRcDzgKVMve9neAfkTw/R2oIkqat16BsDNq2g/f5EfAV4M/ACplYDOLfB+HnAEHslHpRITwTOBhpMnTHgCsivgfi7knlbkCTpQRtp7c7kS0vitcBaYBdT66RMPGcFH5rLXgV7NRkogvJZwMlMnTHgc5n8xiFam5AkaR+GaJXA7U3ab2oQo8BrgAVMjbkBTwlGlwGbE3sF5VHAU4FFTJ2rMvE/hmhtQpKkx9ChtX2c9CfAPwKjTJ1zMpzAXom9gnwscCZT527I/2OI1dcgSVJFHfrvKYl3AJ9j6hwbcNYq2nMSewVxNHAqU2M4w7tKYiOSJO2noLwD8nuAa5kaDeC8EhanVbQXAk8G5jH5MvA5yB/L5FEkSdpPQ7TKkuLrQBvYxRTI5KcCi1IJizP5aUyN2zP5g0O0bunQQpKkA7GRXx/J5C8CHaBkkgVxMsThCVgAcTqTbwzYAHwdSZIO0hCtGzJ8HLiXyTcPODcFMSfgGCbfPZk8NETrLiRJmhBpA3ATUyI/IWXiRGA+k++WDJcgSdIEKem5FfgqMMIkC+KMFHAqk28sk6/PcCuSJE2QDn1lJn8O2Mkky+RlKVOezuTbBbGxQ6tEkqQJVMIVwE4mWRBPSUyN0SB/F0mSJliH1n3A95kCKeAQJt9IwCYkSZoU+XqmQMpwApNvfD2te5AkaRJkuIUpkIC5SJI0uw0zBRKSJKmShCRJqiQhSZIqSUiSpEoSkiSpkoQkSaokIUmSKklIkqRKEpIkqZKEJEmqJCFJkipJSJKkShKSJKmShCRJqiQhSZIqSUiSpEoSkiSpkoQkSaokIUmSKklIkqRKEpIkqZKEJEmqJCFJkipJSJKkShKSJKmShCRJqiQhSZIqSUiSpEoSkiSpkoQkSaqkQLXRS/uoIA6lBjL5fuDOIVoZdZVVtNlraSaOph72jJNu69A/hma9AtXJHwC/AfQw+w0ArwPGUFfJRAJeDbyPergcuBC4F816CUmaWRLwU9RDBu7t0H8vqoWEJM0gGVKG86mH8Uy+DdVGQpJmkEw+KuA46mEU4kZUGwlJmkECngsk6qGEvAXVRkKSZpQ4j/oYhXQDqo2EJM0gAU+nPsZK4iZUGwlJmiFW0T4OeDw1kcnf69B/L6qNhCTNECWcByygJgK+g2olIUkzxzOAhdREhhtQrSQkaQZoMjAP4jRgDjURxGWoVhKSNAME5WkBxwGJetiZSd9FtZKQpBkgwbnAsdRGvjYY34lqJSFJ06zJYA9wJvA4aiOuycQoqpWEJE2zxJ7lwDlAg/q4OpFHUa0kJGmaBXEScBb1sRO4ej2tUVQrCUmaRqtozwFOBY6mPq7P5PtR7SQkaRqVxKHAM4GC+rge4n5UOwlJmkYBhwJPoV6+GcRdqHYSkjRNVtCODGcCp1Ift2XyDRtYPYZqJyFJ0ySgCGgCifq4CbgZ1VJCkqZNMR+4gPooge8luBXVUkKSps34U4CTqY8dwHXraT2AaikhSdMk4Jeolzsz+UpUWwlJmgYrWPt44AXUy5YSrkG1lZCkaRDEzwBLqY/hDJd3aN2LaishSVOsycDCID8fWER97Aa+iGotIUlTLFE+CTgbaFATGe4qSV9DtZaQpKn3NOBY6uVLHfq3oVpLSNIUWkV7WcCzgCXUx3gm/hHVXkKSplCGs4DzgKAmMnwjyNeg2ktI0hTppT0/E+cCx1Mvn4TYg2qvQJKmSBBHAy8ECurjLsiXleQxVHsJSZoCTQZSJs4Bnka9XAZs7tDKqPYSkjQFEuXcoHw1sID62A1syPTcibpCQpKmRDolEyupl2shX7GR146irpCQpClRviZgAfUxDlwZcD3qGgWSNMlWsm455AuplzszfGkDrQdQ10hI0qTLPw8cTX1kYFOmsQF1lYQkTaIVtI8AXggsoD52Q/6PTHEX6ioJSZokTQYjwUuBs4GgPm4fh7/r0JdRV0lI0iRJjD4uE+cDh1EjmfzJDq37UNdJSNKkKc8JOB9oUB/bgvQPqCsVSNIk6KW9NOD5wInUSCZ/HPL3UFdKSNIE66UNxCkZfhkoqIlMvhsYAIZRV0pI0sSbB/QHPJ76GA/ifwGbhmhl1JUSkjTxTg34Berl9kz+4hCtrahrJSRpwsVvAYdQHyVwGcQ1qKslJGkC9dJ+SsAF1MsdGT5TMncL6moFkjRBemkniDXAkdTHWCZ3gE906CtRV0tI0sRZGbAC6KE+7gL+cojWbtT1EpI0AXppL4F4KXACNZLJXxii9XWkvRKSNCHivICVQA/1cQ/wAaQHJSTpIPWy7nDgpcDJ1MtgENciPSghSQdhBR8K4MnAy4GC+vhP4MNBHkV6UIEkHYRgdGnAm4HDqY+tGT5Qkjd1aCH9XwlJOjgXAquoj/EMQ8DGDq1RpIdISNIBWkX7mIA3UC+3AR8pmXsr0sMkJOkAlcQa4AnUx0gmbwji8x36xpEepkCS9lOTQRIjzwzyzwFzqY/NGd49xOrtSPuQkKT9FIwuhfxa4AzqYziT37WR1g1IjyAhSfuhSbsRlL0Bq4AGNZHh8xD/jPQoCiRpPzSIY4CXA8dTH98NeH+QR5EeRYEkVbSSdT2Qnw88n/rYlWEQ4usbWJORHkVCkioqScdk+CNgEfXxxSB/pGTOTqTHUCBJFayiPS8z9l6I46mHDHwrwweGaN2EVEFCkh5Dk8FGJn4O4gLqY3uGD5XMvQypooQkPYbEyNkZfhtYQH18riR9uEPfCFJFBZL0KFbRPiyTXwM8CQjq4aZMfluH/q1I+yEhSY8iE88GXgLMpx72ZPJFGTYh7acCSdqHJgORKM8C3gAcTz3sBt4dpE+UlBlpPxVI0j4k8jzgFcBzqIdR4OIMHx5i9XakA5CQpH17VsCrqIcMbMqwdog1NyEdoIQkPUyTgaOD/HbgaOphK/D+kvQVpIOQkKSHaDI4r0H5BuA8aiKT2xAf6dC/G+kgFEjSg1ayricz/ArgFUAPs9848PEg3raB1WNIB6lAkvZq0m5k8jMDWsBRzH5lhq9l4q2ZOWNIE6BAkvZqEMuA1wHnUA/XA3+aie916EOaCAWSul4v7fnAK4EXAg1mv9sz+a+AL3XoH0OaIAlJXS+Tngz8HrCY2W8H5A8CHx6itQNpAhVI6mq9DBwH5d8BhzH7jWb4l4C3D9EaR5pgBZK6Vi/tw4LyHcCpzH7jGS4umfv6Dn3jSJOgQFIXiycCS4CvMvvdmol3w+gupElSIKmLxQ2Z8o+AxCyXiXsysaVDP9JkKZDUtYZYfQdwB5IqSUiSpEoSkiSpkoQkSaokIUmSKklIkqRKEpIkqZKEJEmqJCFJkipJSJKkShKSJKmShCRJqiQhSZIqSUiSpEoSkiSpkoQkSaokIUmSKklIkqRKEpIkqZKEJEmqJCFJkipJSJKkShKSJKmShCRJqiQhSZIqSUiSpEoSkiSpkoQkSaokIUmSKklIkqRKEpIkqZKEJEmqJCFJkipJSJKkShKSJKmShCRJqiQhSZIqSUiSpEoSkiSpkoQkSaokIUmSKklIkqRKEpIkqZICSbXTZGBhwEIgQbkgiMX8WAryETyKDPMD9gCZ/2pXJrYHeSwTD2RiNMOuDv3bkWquQNKs0mTgiIAlUB4SxGFBXgosBRYDR/FD5RJgCZCAxZCX8mMFsIxHEbAQ2AVkflIGdgR5KzAW5HuCPALsWMnau4F7M2yBuDuTb4PG/Zning59Y0g1UCBpxlnBwJHAkUE+FTgkyKcCRwJHQbkImAvMh7wAWADMB+YCi5k4h7N/SmBnwDbIOwLuh/HdmfEtK1n73Ux8JxNXZHpu7dA3jDQLFUiaEk0GCHIKiCAHkEriEIgTg3wm5OMCzs1wWlAuBgpgHtAA5gIF0MPMlYDFwGIeIqAEhoO8J8g7Yfj+XtZeE8SXMuk/gvE7M5QZyo2syUgzWIGkCddkMIKxuUG5OMgLgfmZ8kjgNIjTgCcBpyXyiZB5qKB2EjAfmA8cChwbcDbkXwnGS+Aa4NKA9b2svS7DfRtZsxVpBiqQdNCatOcEcWgQRwT58ZnhxwWxLMNZwOnA8QHH8EMZ/T8JODfgXGBNhk0Bl/Sydj2wOcPmjazZjjRDFEjab00G5wSjy4L8hCAfn+HEgBMgHwucGnAE5J5A+2FOwJOAJwG/CnwLuKqXtZdn8saNtO5AmmYFkh5Tk4EU5DMS+SkZnhgMnwQcCRwNHBawBOhBE+UQ4NkBzwReFsSmlaz9AsS/b2D1dUjTpEDSDzUZJBiOgIBGkeHxQfm0IP80lM8FlgALAxYAc4FAk60BLAOWAU+D/Ope1l4M8aFM4/pMY6xDH9JUKZC62AracxJpMeSFMPK4DOcAK4Lx5wYcj2aSRcBpAadl8ppg/ONB+Re9rLupZM4DHfoy0iQrkLpIk8EIRpcE5TEBy4CzIJ8LnAH5rIDFaMYLmA/5VzJ5FcS/Jkb+vZeBK0t6tnboy0iTpEDqAisYODrIZwTDZwFnAacApwLHAQnNSgFHQX4d8KJMvrjByEdXsu7SDaxGmgwFUg01aadEnBTwzAw/FZRnAMcBxwBLUZ00gJMDVkNeAQw2GfinDv13IU2wAmmWW8FaEgHkKOH0gJXAiwNOAZYELALmAIHqbC7wROBtDcrn9zLwzpLi8oLh0fW0kCZCgTQLNRkoEuWSgCUZzoTcC7w4wamo2y0Bnh+Uz2ow8sFMtJv83U0dXj2OdJAKpFlkBWuPCzgRylOA84FnBTwBSEg/aTHwu8B5DUbf2WTgyx36dyIdhAJpBmsymBqMHg3lkzKcHvAs4MnAcqBAemzPgfxXidzupf2RIVp3IB2gAmkGCjgU0vMaDD8beBpwQsDjgQVI+++UgD+AOLOXte8ZYs2NSAegQJqR4gWQnw0cAixAOjgBHAG8IuD0XgbWlPRc26EPaX8kpJlpMXAMsABp4swDng3l5cHIC1eybj7SfkhIUpcJWBTkD0J+VS/tpUgVJSSpCwUsA/4oiFf30j4UqYKEJHWvY4Dfh/jNXtYdivQYEpLU3ZYF/D7kt/SytkB6FAlJ0iEBvwu51Ut7AdIjSEiS/o8UxDuC+PVe2kuR9iEhSfq/lgBvhHhZk4H5SA+TkCQ91DHA7wX5giYDc5EeIiFJeqgUcEYi/2GC05sMBtKDEpKkhwvg3KD8m8SeI5EelJAk7UsA5wf8ySraS5D2SkiSHkX8ckm8skl7Hup6CUnSo1kU8JsNYgXqeglJ0qMJ4GTgtb2sOwl1tYQk6bEUwAsh/9IK2gtR10pIkqqYH9BKRLOXdkJdKSFJqurYDG/O8DjUlRKSpMoCnp7g/0NdKSFJ2h89EL+1ivYpqOskJEn766RMvKGX9hzUVRKSpP3VAzwPWIW6SkKSdCCOg3hxL+1DUddISJIORE/ASojzUNdISJIO1HLgl3tpH4W6QkKSdKAawM9DOncFH0yo9hKSpAMWsBjyLwajc1HtJSRJByXg5wKOR7WXkCQdrCUQv4RqLyFJmggvb9I+DNVaQpI0ER6fiF9EtZaQJE2E+cDPrKI9H9VWgaRusQPYDmRgDLgfGKa6BcChwFJgAXq4FHBGhp8CvoxqqUBSHdyaYWfAD4BhYAuwPcP2gDvYK8MOyDuAEhgLeCDDHioKWJhhKXBoEIuBI4HlwEnAycARaFkmngV8GdVSgaTZYitwE3AjsAW4BbgTuCOTdwCjmdgBeTxgV8DIOI3RDv07mWBNBlOD4fmZWBKUh2TiMODMID8XYgWwDAi6z6KA81ay7ugNrN6CaqdA0nQrgVFgDBgDdmTyzRCbIL4XlFdl4paAu4GxTB6DNJ4ox4Hx9bTGmWId+kpgJ7ATuKPJIImRr0P+CDAXYiWUvwzRC8wHeugOAZwN5RnAFlQ7BZKmUgnsArYCDwDbge9nuBri5kR5zRjzburQt4dZpEMfe40BO4AdwL81aX8iyE9OxK8CPwOcAjSov1My8aSVrPvyBlaPolopkDTZ7gRuBu4EtmTyrcB1Qbp+nPLWDq0d1FCH1ihwRZPBqxPD5we8CrgQeBz11hPwjEz+/4EfoFopkDSRMuQtENcDNwLfzeTNwE2QtpSU93RoDdNFOvSNAp0VtK8O+FoQvwE8kXo7O+Aw4AeoVgokHaztGa4J+BrE5Zl8W8B9JbE1E1s79I8hNtK6v5f2YIZvB7wZeAHQoJ5OhTi6yeC1Hfoyqo0CSVWNAaPAaCZvAjYGMZRJN0D5AMRwSWPPRlaXaJ+GaA03GfhKkH83kdnrecAc6mcu5GZiz6XAMKqNAkmPZBzYAdwD3J3hSuCrkL5S0nNLh75xtN869JfAjU3av5qIPw/4NaBB/ZwfMBcYRrVRIOnhbgVuAm7M5E1BXFHSc/VGXrMdTZgOra0rGHh7UJ4K/DT1c2amMR/YhmqjQNIYcDPwDeBbwLWZuKGk3NyhtQdNmkS+FbgIeD/wROrlyKBcDtyJaqNA6l7XApdm2Ah5cxA/CPJd62mNoimxgdW5l/ZlwEAQ7wYWUCOZ/AzgclQbBVL9ZWAMGAFuBj4N8QXg+gzbS8rdHVrjaFoM0RpeSftTwHOBlwFBTQRxHqqVAqmeMrALuCuTN0Ncksj/vp7WlWjG2UDr+720PxbEM4HHUx+noVopkOplJ/A94LuZfDXEJSWNb3bo34FmtAQbMnwNeAnQoB6WNxlY0qF/G6qFAmn2GwduBL6S4WqIq0ri+g79d6NZYz2tu3tpfyaIXmAp9VAk8snAVagWCqTZa1uGKyA+BvkKiFtLyvs6rBlDs1ImfSHIdwFLqYcCylOBq1AtFEizxziwJ5O/BfFR4PPAlpLY1mH1CJr1MnN+AMOXAadRDw2II1FtFEgz2yhwL/B9yJdA+vgQa76CaqlDX+6l/fEg+qiHAvIpqDYKpJlpG3AtcBVwSSZvHKJ1F6q9DN8IGAMKZr8EHIZqo0CaOcaBW4EvZ7gc4rKSOdd16BtFXSMR9wHfB5Yz+zWCOA7VRoE0M3wJ+DzwpZLYnIm7OvSPo66TySXw9SCWI80wBdL0GAfuz+QNwIeDuCKTtw3R2o0EW6mPhU0GjunQfwea9QqkqVMC9wI3AR+D+OgQazYjPUSCErgyUxs9BeOLUC0USJNvD3AzcE0mf7aEz3Ro3YckzTIF0uT6coYNkL8MXDFE6wGkR5FJGfI9SDNQgTTxRoGvZvhEkNeXNG7q0L8LqYJx5uQGI7dBRpppCqSJkYHhDF+DWAdcminvHqI1jLQfOvSxkrVjSDNQgXRw9gB3Z7gS8vuHaHWQpJoqkA7MCHAtcCnwyUS+bD2tESSpxgqk/TMKfB34LOShcbiqQ2sYSeoCBVI1ezL5siA+nuGykrnXdugbQ5K6SIH0yDJQZvJ64B+AjSVxX2bOSIc+JKnbFEg/KQPDwD2QvxDw9xtoXYokiQLpx0aAa4AvZ/LHS/h6h9YIkqQfKpBgN3AF8IVM/nzJvGs69I0iSfoJBepmu4FLgE9k8mXApiFaY0iS9qlAXSp/JpP+BsprgnTvEGtGkCQ9qgJ1i93AFmBjCWszXAkx3qGFJKmaAtXdMPDtTF4P8cmSud/s0DeKJGm/FaiutgNfz+RLgM8O0foGkqSDUqC6GQUuzvDpIF+e4HvraY0gSTpoBaqNIL6Y4T+CfE1J494O/aNIkiZMgWokPpsp8xAtJEkTr0C1sYHVGUnSpElIkqRKEpIkqZKEJEmqJCFJkipJSJKkShKSJKmShCRJqiQhSZIqSUiSpEoSkiSpkoQkSaokIUmSKklIkqRKEpIkqZKEJEmqJCFJkipJSJKkShKSJKmShCRJqiQhSZIqSUiSpEoSkiSpkoQkSaokIUmSKklIkqRKEpIkqZKEJEmqJCFJkipJSJKkShKSJKmShCRJqiSh2mgycESTgYQkaVIkVBuJ8Vclyt9GkjQpClQnxwa8vJe1PQF/Pc7c3R36kCRNjITqZmnARcAHEqPHNhkMJEkTIqE6mg/8clBeFIyc0WQgIUk6aAnV1SLglUF+T5BPQZJ00BKqsyLgBYn8oV7aT0OSdFASqrsGcH4Q7V7az+llbYEk6YAk1A0CeEoQ/wt4VS9rFyBJ2m8JdZPjA94S0N/L3y5BkrRfEuo2y4E/DsZ/t8ngXCRJlSXUjZYCr08Mv6fJwBFIkipJqFstDXhtonzHCtYt66UdSJIeVULdbEFAfyL/PfCUXtoJSdIjKpDgeUGUGd4LrEeStE8J6UeeH/AXvaz9mSaDPUiS/ouE9GNnB7yvwcivNhnsQZL0ExLSjwVwFuQ/ajD8miZrFzUZQJL0IwnpJwVwAvD+BG9uUB6JJOmHEtK+zQ14A/CWXtrHIkkiIT2yucDrgnjbStaeiiR1uYT06BrAy4F397L2PCSpiyWkxzYfuDDgz3pZ9/QVfKiBJHWhhFRND7AqyB9LjD2/SbsHSeoyCWn/PB5yOxEvazKwEEnqIglp/x0PvDdR/toq2kuRpC6RkA5AwLKAt2Ti9b20j0CSukBCOjABHAP8XhBvWsnapUhSzSWkg7MYeEOGf+tl7dFNBhOSVFMJaQIErAL+usHIU5sMNpCkGkpIEyMCXgL5XYnh5zRp9yBJNZOQJk4BnB/wviC9sMlAD5JUIwlpYvUA5wb5/Q3GL+iljSTVRUKaeBGwHOKTQGslaxchSTWQkCZREH8K/E4va5chSbNcQppcS4E3AG/sZd2JTQYDSZqlEtLkWxrwa0F+d2L0xCaDSNJslJCmxlLgpUG5DvYchSTNQglp6swBnpeIjStY9/RVtHuQpFkkIU2xgCckcjsTF/TSXogkzRIJaeol4FzgXUH8/ErWLkCSZoGENH1OB/44w+t7WZuQpBkuIU2v5QFvCnhLk8H5SNIMlpCm3yHAHzYY/pteBpY1GUhI0gyUkGaGecAvBuX7gvykJgMNJGmGSUgzxwLg54N8USI/bSXrAkmaQRLSzFIEXBDkv8yUz0CSZpCENPMUwHlBtHtZ93wkaYYokGauJwV5oJe1bw/in8eZs6tDH5I0XRLSzBXA8QEXQf6txOjhTQaRpOmSkGa+ZcCbg/J3gtGjkKRpkpBmh6XA7wTl25oMzkWSpkFCmj16Ar4KjCJJ0yAhzXzjwO2ZeGWGf+7QVyJJ0yAhzWxjGb6R4TUl5aeGWDOGJE2TAmnmGgE6EO8tmTPUoW8cSZpGBdKMlb8I/EHJ3Os69I0jSdOsQJqZ/hl46wZaNyFJM0SBNHNkYBfwwQx/BulOJGkGKZBmhgzcCXwgyOs20NqKJM0wBdLMcDPwgXHSYIf+bUjSDFQgTb87M/HGkvKzHfp3I0kzVEKaXldn4nUlPZ/q0NqNJM1gBdL0GAWugPwmiMshxpGkGa5AmnrDwL9n4o+HWHMdkjRLFEhTaxT4cCa/Z4g1NyJJs0iBNHVGgIEgv2MDrTuRpFmmQJoa92X460y0M+lOJGkWKpAmVwa2ZPjzTONvM2M7OrSQpNmoQJpc10F+W8m8T3foG0GSZrECafJcCfmiDbQ+jSTVQIE0OS7J8LYhWhuRpJookCbWGPBZyO8ArkKSaqRAmjh7gE+VxB80yLdsoFUiSTVSIE2MnRn+qmTuRR369iBJNVQgHbwfZPhwydyLOvTtQZJqqkA6OLdBfm/A33bo24Mk1ViBdOC+A/ntwGc20NqFJNVcgbT/MnBDJv8esGGI1iiS1AUKpP1TAleMk36hQ/+tSFIXSUjV7QIuLon+Dv23IkldpkCqZleGj0J6e6bne0hSFyqQHts2yAOQ/rKk57YOfRlJ6kIF0qPbBfmvgT8dYvVOJKmLFUiPbEsmv2GI1j8hSaJA+q9K4NoM7wU+hiTphwqkn1QCV2firSWxvkP/CJKkHyqQfqzMcCnEm0viyg79I0iS/p8C6UfGM1yVSa/K9NzaoS8jSfoJBRLshPxvAb87RP8DSJL2qUDd7k7gX4D3baD1AJKkR1SgbnYv8IFM/tshWvcgSXpUBepWWzO8HvJnh2jdhyTpMRWo22RgWybWlMQnOvSPIkmqpEDdZCzDNRC/WTLnax36MpKkyhLqFnuAjRBvKJlzRYe+jCRpvxSoG4wDn4P8x0Os+U8kSQekQN1gHeQPbKB1A5KkA1agOtsNDGbynwzRuhNJ0kEpUB1l4M4Mf1aSPtihfxeSpINWoLopgRszvK8k/UuH/l1IkiZEgWolw40Qf1Iy55Md+kaRJE2YAtXJVZA/UTL3sg59Y0iSJlSB6uSjwK4OfRlpdvsOcAb1MAzcjmqhQLUxRGsnUg1sYM0eYBPSDJOQJEmVJCRJUiUJSZJUSUKSJFWSkCRJlSQkSVIlCUmSVElCkiRVkpAkSZUkJElSJQlJklRJQpIkVZKQJEmVJCRJUiUJSZJUSUKSJFWSkCRJlSQkSVIlCUmSVElCkiRVkpAkSZUkJElSJQlJklRJQpIkVZKQJEmVJCRJUiUJSZJUSUKSJFWSkCRJlSQkSVIlCRhmCjQZbCBJ0uRYwBRIAbcw+YoGI0cjSdIkCOIUpkDK8ACTrwfK5UiSNAkynMAUSEyNucATkSRpgjUZWBZwPJNvVwrSJibfvEw8s8lAQpKkCZTIzwQWMsky+bqU4UYmXxFwdqI8A0mSJkiTdk+QfwZYyCQLuCkFeTOwncl3IrCqyWADSZImQCKeADwN6GGSZbglAXuAW5h8hwDNxPBxSJJ0kJoMFsALgOVMjWtSJu8BNjP5UsBzgPObDDaQJOkgJIZPD7gAWMLk2xPEt1NJeiDDl4HM5Dss4FWJ4ZNW0UaSpAOxgvaCgBcDzwGCyfdt4L7UYfWegG8D25h8ATwv4NdLGguQJGk/9dJOifhpYA1QMAUy/Gcm70z8yO3Ad5g6/UH+eSRJ2k9BOhV4K3AcU2ME+EpJY3tir5J8O3AtU+cQyG/rZe1KJEmqqMnA4zL5LcCzmDqbIW/q0D+a2CvD1gzXAjuYOicEvLOXtSuRJOkxNBl4XKK8KOBlTK1rAm5hr+BBvbSfEsRa4KlMnRK4EeKikvTJTN7doR9Jkv6PJoMkRhswflYQfwK8EJjD1NmRyW9N8JfraZWJB5XM+zbwDWCEqZOAJ0BuB+NvTpSnNBlsIEnSXg1GHgf55UH8E/ASYA5T63rgy+tplewVPMRK2i+FWAscxfT4Qib+EbisZM73O/SNI0nqOqtoH5KJJwO/CLwcOISpNwL8wzj59R1au9greIhVtA/L8BGI5zE9MnBfhkuBL2b4XCbf3KFVIkmqtSaDkRg7PBh/NrAKWAGcDiSmxx3Aazew5rM8KHiYlbT/G8RHgcT0KYH7gM0ZrgM6EN8piU0d+h9AklQLTQZ7gpGTAp4Y5GcATweOA5YBPUyjTP5kglesp7WTBwUPs4r2nBK+FMQzmBnGgN3ACDAClBl+EHAbkqRZKcOxAcv4kR5gLjAPmMvMMAp55QZal/IQwT6spP0SiH8GFiBJUpfJ5E8N0XopD5PYhwxfyfB5JEnqPncE/CX7kNiHksZ9wAeB7yJJUvcYA/4e4uvsQ2IfOvSPQ1yW4ePAHiRJ6g7fzMRHx5m7k31IPIKSOduC+CfgG0BGkqR6uzOTPwj8Z4e+zD4Ej2El7Z+DeB9wIpIk1dNuYN04+a0dWjt4BA0ew2Yu/s5yLiwCngsUSJJULxm4BOItG1lzF48iUUFJXgd8DEmS6ucWyG/bwOqbeQwNKriZi0dO4mc3AacCJyNJUj3cmeFNQ7Q+SwWJijJsgvxO4GogI0nS7LYzw//MpE9TUbCfVtJ+DsS7gKcBBZIkzS4ZuCfDe0rS2g79O6iowX7azMW3nsSLNkM8ATgWCCRJmj3uyfAXJWlth/7t7IcGB2AzF998Ei+6EeIpwNFIkjQ77MrwzpK0tkP/NvZTgwO0mYtvPYkXXQtxBPAEJEma2e6E+O8l6e879G/nADQ4CMu58DbgP4M4CjgZKJAkaWbJwM0Z3pRp/GuH/l0coGACNGkvSsSagBawHAgkSZp+24H/yMRFQ6y+joMUTKBe1l4Q8IfA04ECSZKmz82ZPFjS+JsO/fcyARpMoM185saT+NlvAmPAUcBSJEmaWruBL0D+85J5H+rw2h1MkAYT7ARedleQL4f8bWB+wIlAD5IkTa4SuD6T3xfw/oCvDvHrY0ygYJI0GWgkxg8DXgLx+oAzgIQkSRMrA/dl8gcg/SuU3x+itZtJEEyBVbTnZLgQWANxDnA40ECSpAOTgR3A9yFfUsJfbKR1I5MsmEKraB+eiVXAC4EzgVOBpUiSVM0YcBtwbSZfAo1PlvR8r0PfOFMgmAZNBuck9pwNPDOIpwJnAqcBS4BAkqQfGwPuAK4DroD8zYDL19PawhQLplGTdiOIwxM8HjgmE2cF+anAk4DjgflIkrrNGHBHJn8riJsyXAV5cxC3Q9yygdXDTJNgBmkyMC+RFwd5ITAvEycGeVkm/xQ/cgJwJJKkmoitwC2QRyHuD7ga4ruZchuwE9hdws4OrTFmgP8N5Mc3Tp228K0AAAAldEVYdGRhdGU6Y3JlYXRlADIwMjEtMDEtMjlUMTE6MTI6NDkrMDA6MDBRIWBUAAAAJXRFWHRkYXRlOm1vZGlmeQAyMDIxLTAxLTI5VDExOjEyOjQ5KzAwOjAwIHzY6AAAAABJRU5ErkJggg==;" vertex="1" parent="1">
          <mxGeometry x="-150" y="790" width="461" height="512" as="geometry" />
        </mxCell>
        <mxCell id="YWYVbX-TZwlWx46NHFRt-3" value="" style="shape=image;verticalLabelPosition=bottom;labelBackgroundColor=#ffffff;verticalAlign=top;aspect=fixed;imageAspect=0;image=data:image/png,iVBORw0KGgoAAAANSUhEUgAAAlgAAAE7CAMAAAA2MA+HAAAABGdBTUEAALGPC/xhBQAAACBjSFJNAAB6JgAAgIQAAPoAAACA6AAAdTAAAOpgAAA6mAAAF3CculE8AAABHVBMVEX///8AAAAUMuAUMuAUMuAUMuAUMuAUMuAUMuAUMuAUMuAUMuAUMuAUMuAUMuAUMuAUMuAUMuA+V+VTaehofOt8ju2RoPCxvPS7xfUeO+FdcumcqfEzTuQpROOHl+4KHNESLd17iuoNItQHFcwLHdITMN5yhewlO9sPJ9cOJdYKG9ANItUNI9YLH9IPJ9gQKNkCCsUDDccMIdSms/IRKtoHFMwFEsplduYQKtkTL94HFsqwu/MaMdkeOuAED8gCCL9QYuI6T9+Qnu4RK9qmsfFFWOAJGc4DDMYJGc+bp+8MINNwgOgJGs8DC8FIYOcNI9UiNdcvRd2FlOxabORwgegIGM4LHtMFEcoRK9sGE8sOJNUmP95SaOebqPD///8gWcxZAAAAEXRSTlMAABBAgJ+/z2AgUN9wrzDvjzTYm2IAAAABYktHRACIBR1IAAAAB3RJTUUH4wUCDgg5o6+rfQAAHtNJREFUeNrtnWljI8dxhj24CBAkQZxDnA6tiIQiJaKMxHRCRiYZbuyNEiS7Spz7//+NADMApu/u6gON2dTzSbta4qh6WVVdXd3zi18gCIIgCIIgCIIgCIL8fyA5MSrVA5XYn4Ultq9KRWxnJZmWarV6o3HWFXDWaNRrtdNQWWxflYqonqo2a2I5iSVWa1ZRWGUhko9a57VG21RSJO1G7byFwjp9IvinenFppSlCXZcXMWJXbF+ViiP75qrWcNNUQaN2hcI6XY7ol1bzsuNLVTmdy+Yx02JsX5WKYznl6sK4SodxdnG0wBXbV6XiOKq6diyq1LSvj6Ot2L4qFeHd0QoVq+i4dYScGNtXpSK0M5reinUdjSYK64QI6onWtedqXU3nOmzYiu2rUhHQD8cLVkcKW7F9VSpCOaFSC1qvy2nXgm0rxvZVqQjjAnAO7PX6g8FwtCG92ZFu/zQcDPq9Huy1gmXE2L4qFUFkVTcWwbg3GYymN1qmo8GkNzZ+2XoQacX2VamIJ6tZf1CEJzPS0aA/iyet2L4qFXFk1QNrilKXUW70L63YvioVfk1fuTYSla2mCozEde25jI/tq1Lh1fI1Xck+7y+sIxUXuRb9uebtOjUUViw82v1c02CYTwyqdBjTiUZb7XMUVhy8Wf2qcWxVmWmr4W+DOravSoUnm6uLq3HfQ1klZ9RXNiK8lVqxfVUq/JhcmQVnQ291lYx0OPvlnwTPh7F9VSp8GLxyqQpWgVIgw+2vvvrTr6Wf4tJL0Irtq1Lhwd7n8rXg/C54sNpxv1x+82ffktL6jvxDx0fQiu2rUuFsbVW4GhxJVZuAtcz48784vPf3Dz/82nPQiu2rUhEwXHW7q6MJ636545u/3L33Xz08PPzme69BK7avSoVjuFJu4MyPpqvHZcFv/zpLhA8Zf0Pmw7pj0Irtq1LhZOkr9TT75Fi6enpekvz2b7vdH3Nh/Y7Kh2duPa3YvioVLoa+6KpZhJHRy+ubImBl/N23DzthPTxQbYgLFNaRsDdzRTvHEGZF+L4Rzod3RcDK+Pvf74T1B/ozuaTD2L4qFdZWvtIe6uoFCliZcF4IaT0uBXzzVS4stm/qkA5j+6pU2BpZshqcjRaT/ShemGbDx51wnh+f9iHseSnkHzZ11u/+wH1E+9VhbF+VCksb14SyGt9lnl4Ns827MC3314Nwnn8iQ5iIf/z9P4k2emyHaWL7qlRYWVhSXq2JvtX0LkwmfCOFc397k9dcMv75X4Qf1LLQiu2rUmGlK2F5NQ6wCLxVBKyMT29EwLp/Z4PX89NCOPhwZqWs2L4qFRb2vRKOMqwDrAFv85gkC1gZhNI2//aNFt7jzU26Fn3atk0JH9tXpcJCV6KyfTz0L6t8o4ZuWr0u5dzn0vtEBqzt3wxFQatjoazYvioVYOs2RbqaBdkV/GkXk4rOwmeFrpb74HZ72Dh8zP9iJToy1oEfxo/tq1IB1pUosYRpLBR9z0PT6l6hq0/FTz4+EyFsy0D0qcHKiu2rUuFBV+NAc8dk3zNvWt2qAhaZMp8yaRH12WjsQVmxfVUq3HU1CzTLR2/UZP3QImB94pqir/RPbxaI9+Sf05m7smL7qlSALCtqX/X9yOjnQyNdFLCyxHZLBKz3J/Z/sxvTN+/M3/QFH76OwgqFq648rQbfi0a6MGAxvOQxSR6wRAxdlRXbV6XCTVdjX9s2r3lMIv7mRaGrZV7MfySaD28GbzIduykrtq9KhblZBfWVty7Dvu/56aAP1UbNvo1A9ENfjN5G1HcA1FmxfVUqnHTlrWwvQs/rR33AeibKsV3T6t3sfVInZcX2Valw0JWnsv2G2ajJmlZmASuX1rNpwNrSd1BWbF+VilPQFbtR8/MTubN8y3ZFn5n149Pjs2HAclRWbF+VCjOTCvYH7/zpituoeSYS4e2hkS4OWGDuuK9ium8Y21elwlZXjm0GKuhoN2qeSGndP9m95YGhrbJi+6pUmBhUMH/lqKvbZyLsmGzUEE2rW7u3VCrLbD4rtq9KhYlBvetqG6OKppUqYBV9z/cPu4DlrCuhslBYnjGwZ927rvJ5mPs8GhnvLOdNK/eAJVSWSaM0tq9Khd6cF951ddit2Q7xPRUB61kRsDI+33sJWEJlGRxlje2rUqG15rl3XZHbyy/vxB/e314VASvj9rMfYQmUpT8VFttXpUJnzBa3IHSe6mPmYag2At20+uBJRSK42b+O9l742L4qFRpb8gtC976oZLdm1/f8iZAdoO8Jh+uUapeGsX1VKjS2rPvXlWy3Zt+AKJpW5hs1fpSlK+Bj+6pUqE3J7eTMPDj08VkRsDJpvRwhYG3gdqSbKCxvKC3Jddz9zDM8PSoCVkbWDw0csASzDpoOfGxflQqlJdkCy9tcH3dkmdtZfnuF7Cxbwk3+naGwfKEyJPdQAI/Hcd6ZzgLf9wyvq5ubEfsNr1FYnlDYseq9gUVBNa089T3BcO2sKgrLD3IzVtgCy+MAVs7ne0XAOhLs0rBTQWF5QW5G9v72EOcHb5/jBixBAX+JwvKC1IrsVs44yPUMu6ZVtIB1c7NiC/hzFJYPjBNhoCuQb55+NjoUGI6FcTKM7atSITMi13IP9/iS9xeTQ4HhmDDftI7C8oDEhtyKsNvtHet5S0eHLbOqKCx3JDYUXdoX6laZ6LB90jYKyx2xCcWXIh/xaV7HhT24U0NhOSO0YEv2SK8vNR32mPq9hcJyRWhB+SMIQ1yNfAKwWzuXKCxXDCv3gqM90uuY9NhvWUVhOWJauReEucg2KvwAfBuF5YjAfs2umi8uHaaCe7OaKCw3ePNVOl0dX1g6FF0iKeq/x/ZVqTBuNXy56XAk/Io1FJYTNgHrVNPhyO5TzYXfUBCyYvuqVFgFrCwdnlxL685udnog+YI1FJYLuoA1XcuUNQvzPEJb0qxSgg+NrWTfjw9ZsX1VKjQBayC6qGyfDq1HlaeDfm/gd9B5uttJBo+59mRfjw9ZsX1VKtQBa7wNANO5zPR9q3SY9vzXacVjCYE3DQ67UriQFdtXpUIdsHIvpV7TITFL4G2KnqyTYDMY466cGgrLHmXAmu/NfyezPzwdpmT885MOUyqdjUFhdCQNx3zIiu2rUqEMWIXfpzOZ9aHpkFqEwUQggU3VwGsAZKtCPmTF9lWpoE1H7xLOCfOnfZn1gemQVoGHkMU/QBWYYVfS+r2NwrKGshyzSzjUOHAfdiD1MrO6d6+yVoKPBZVr8dWYwNxEYdlCWY6+q2HOmF+eDgEPGmf2T3rOwhKt68B90n08Hqd0QD1DYdlCGo6ZwxrKzM8zN/akf2Fxp2y2nwdcu+VF/IKVaRWFZQlpOPrI11xgfmk6NG8f0T/mZYpeEEktBDvIf4oOWXUUliVkr8FAKu7pkK6UvWwLieapLBS7Wm9nNpiNhgoKyw5pr0HWCRAkHlA6pHKhj0y4YSr4OLZtfUalNRSWHdJeg3SYbyFNh2a+JAo1bxe5CfYzrV+b/s1po7DskJbu8lG+lSQdmnY7+86+V6p1j+3tOExDpIrCskJWuq/Nf6n3GG/SLTJljgceJ7pEj0617ZHRO6N1FJYVsm1CdVpbOJbL6WjkeZpL1Ce1fKQiff0MsWEY21elQtJ1n2uMz6dDT3W4NQteWLZ3ptIdhyYKy4aD1ejTz/pfdiYdetlOdkKwmWz5oehXukRh2SBpYhmcwqHT4QncRCOYGrN73gFTvldQWBaIM+HaxP7kGNQp3EOTCkar7Ap4WqJNFJYF4kxoOB5wyBmxC6ycqYdBhwx6w/AShWWBMBOOTT0wGp9IgSUSRP7RrFaftEIrKCw4wkxonkDydHgyp1e9DDrcsP3WJgoLjjATQoQyOKmrHAR9UqN6kYHuXVyisODsbEZ1R40zYcbIxnOh4Acd7HZ2qJfpoLDg5Cajnxbg/dkmR4QddLCMpnQuPEdhgclNRj/n62RKJhuoQQfrw9p0LrxGYYHJTUYPu5/IGs8SItiYT0yzpJRBzlBYYDKLtZyr3ROiGHQAnPHgoHukLRQWFEGzwXIo4GTYDzo47QbQo4NNFBYUwShW6W/rywokxytH6P3COgoLCj+UrJuYKQEDD5dZUhuPbRQWFL7EKnOzYc/a7oIlErrh0EJhAeG7WH4vRAvOItDnpfcdz1FYQPguVplKrPRuHmoHnC6yrlFYQLYGa5S0xJr2A4ZYenOogcICsjVYOUusYS/gr8KCPU+GwgKysddVCUusdECs2nyPRa8G/CzqFQoLBtcePa1LtsWM6Hjid6tgIbxxtYnCgsHV7rFFo2fIDV35W2+IgtWheo/tq1LB1u6nMb2u8rxgsN3XpOFCej10Vr3H9lWpYIf8TmgaVMBIfPUbbDJRwmqiupq7g8KCwZ6jOOHaPR1Kr852/9TDXldNBYUFgr1l5gQOnopRBhS7g6lmr72jisICkSQXlP1i60fCaK12u8PvQ6oNVhkXKCwQzEV+5s3GdH60rLnduNFg3dad9vXBKqOGwgJhvShcH6seWxm53qrjkA5nBi+d00BhgWCEZbwozCYsj3DqYmGUp6zGr4yDFQrLAman0HScNz9lFfpovUEOzBOhVYnVN3rtAygsEIywDD20P7AQ9JKZqZnn57ZXTo6MXh6FZYddt2Hv8oAhy2yt1u05FHpm4XBPFYUFgRGWodMP/z5Q/Z4ODHOg05b5nfK1x336VDUKCwQz22DkkFWAZ6SSjAxz4J1jvEwVLz4bpszjWZooLAh0G8uwg92H/gAEwxZAz8OSVCbg8S4SUp+khsKCQAvLtI1VhCzPqhIOL4g872VSRly+Z8EqgyrzUFgg6MOqpsIqLO61ej9WDjzAV3LjCVG2UcKqo7Ag2PVHi5vz/G1aK4YXKNYe98nZ8p1ZY1IXBDZQWBBoYZn2pYqb0H152WTAIAsoXk+nperXpi58R2GBOA1h6YYX9jlw6LtvVryvqCGGwrKHvrcBLiwPjaywGzdqdheszQfCQEgJq43CgpBQvjN1XbGc8jDKfKeV1DZPDcKc0N5qei3rXNCrRhQWBFdhWd12TZPqq6tZsAmdwVyhWBSWPXbCInrS2a3E6WLSy+QxX1tIQNdkCJEDjUBh2WMpLKInPe71qA71GHwj4KqrwHp4AYUVFUthKesi8NSdfJDBZXgBhRUTS2Epgwz4ATYLyeu4DS+gsGJiKSzJY6FtlSXqN/jbuEFhRcBWWKm69wSceuAzq4/hBRRWRGyFJXw4IAFsaJmZjPI0vIDCioi1sDTKAg4tkx2HE8iBKCxn7IV1M1VO5MGaDsUUsM/hBRRWPByEdXNDT+XNej3iz8D7kPKOg+fhBRRWPJyEdZMO15mWxr3BIuvAE0EM9krb8xn+hxdQWNGgheW8FCP2/aAdh2gbN3IWKCxr6CfKuR9ALarw09MJGGps5gyFBcFu0M/EFyd8hZuVsHDQD4RvYY08vlZ0UFj20MJyP3/6RQmrj8Kyhr6M2/3O5C9KWNTUxTUKC4LdgVUTYZ36xd5QYeGBVRC0sDzca+3ztWIzRmFZwzys0Kcz9rlwOhxsuCvDs1QYKNOco7AgMNcYube+iROC69FoNCjSyTjikLEV9MwFXmMEgnn2l3tXUzW0DB+Hjwq9o3OFwoLAXBXpPl6nunRqU9GXKWgxOzooLAjMo3Q89AjUh7lmJVIW1R/toLBAJL47pLrzp34fLhgUpj+KwoKQJJdUqvLgj4VSWMAJwJhQbaxLFBYI5pEnXm7oGyqFFfpyeH9QHxsfeQIjYRpZeq8P9Q0ptbLKErLoZcg5CgsE+LFyQ5NDg8px+AAX4gaB7jbgY+VgJMBnnmwL2rHBYDpx9/G8PxyNyPH4kuRCalHYxSeswtjYi7p6TbMszBdKRj2DVbaTMxjt/i1xWqwks6XUorCNwoKRMMtCZZ5K9+skm25UcSg/7kDN6s7wJBCVzi9RWDASwLKQOINj0Y06lUmtyTY5Lwx+M9hFIQoLQsIuC+V5akX+CsM7qVMXVXpk9y1mA01Gpmv3cxQWjI29WmbVO3OkHq6sw49GHQEkmgjjtSor0rV7C4UFY2MverdQFk64qxrAp3BOQ1hMj03+ZGvqhvBOgsKCkbDVu2Twc8jvAEKVZbZACA27Ry5NiNQXvkRhAUm46l3Y/hT20oEzNn6f7DS1XAIw93pJB6jphxXWUFhAtgaje++iHRfx9B5w16/Y0/VwlnVgOTs2Zb6DdCFBf+UqCgvI1mCJztTiEasxUB9FI2uc5Z/pXT/XWs+0s1TIYwbXtUgvio1L+iEsCQoLSGYxaiSLTw4SXUFPR5DjNLN1j6phYFf43WmijQL2oT3S96U+XgOFBSWzGHVolS1nU/Fl2WBdqYeWAeFvdfhAFsmQedu57N/RXaxrFBaUhC+y6MfjpOJBBZtNHfXQsmlj7K6IJfBkODJ9U/pW6CoKC0rCF1lUN2DlT1eay+HNnve0ouInOBmyt4hLYx79tRMUFpSEL7LIukNyg+3abvJl0FVikNnumM8DHRpkf01k34P+HWigsMDkJruQeEuiK+sjF+pkqH2SGF/umYyGkS/ABl6pgKl/doHCApObjD61ekgwQ8+6uknVT1LV9jz5vAzbHhqaviH9Oa9QWGByk9HDfvsEIRldd2pvKh+VMtf9tCCCgpKh6X4OHdnaCQoLzM5mdMMhl47ksLxj23xEpbNxr0fusWhbGPxnAiVDRpfS/Rz6V+oahQVnZzN6Jqsn+u3e+cL9EP50kme02Tq/gYYQiz788E01QDI03s+h3+UchQVnZzN6dGa7LvTUbpdBxplisajvOKxckqHpfg69JuwkKCw4e6PVaYt7a7ebUAQSg+gjSNDGH4r9Uiuj96ijsCxIhLlw7rEtagAorfGSN57vYn5OulagR2vOUVgWJOJceFRdFTW1yfWSgmRoOJrFXioha5vQpdghE6KwICTiXCjCst1uQBGETP61oAtilgxN93Po8rKOwrLhYLVqV4OHG478COuG77KaJUPD/RzmHqYqCsuGg9WYHukxdUUIyyj0pHbJkN0DlxV0dERsJygsGwqzXXdVBH0yzgT4NoIbuAwUabqfQ5fuNRSWFYXZWl0FYZ+4VDSytPvQOYJkqP9BtjMn0SIzstVCYVlRmI2ZnSHx0G5XQvjSrNspSIb63qrhfg4t2kaCwrKCsFtTqqvgd/8ffG7akhIkQ90dNob7OUwl1kRh2UHYTdbKCq+rQ5Yy31Hmk6Eui7Ite0l2pxNmJ0Fh2UEaribU1TEu0N6HCfOUm865D6pJhmb7OcwoYA2FZQlpuFYsXe3XhUZT7ztG/EdVJ0M2wIn/FTM93UJhWUIaTtR9D9dup8jOAsHudOBHBpXJkK3KxCJmVgX1BIVlCWU5vvsesi1KMR2D59fnoE9rtp/DBKwqCssWynJcx+FoutqeM4P2ygTJUFGjGe3nMAGrkaCwbKFN14ymKxv4ZCg/wWq2n8MErCYKyxradMyGITA5HRtBMpQOGxvt5zATOe0EhWVNUuaQNeWEZTgKI9nPYf5RE4VlT6IMWd3TDlmCo9WyZGiyn8OkSzZgobAgJOqQdeqPoudHqMXJ0Gg/h2mhNlFYDiSakHXiT5EwTYYm+znMKpMLWCgsCIkmZGkPJ0dGkAxF6dtkP4dZCjRRWC4kupAV9zESesyuc2D+iejXhZEoH7BQWBB489EHwU695SBKhvxMl8F+Dnv45xyF5QRvPrb9fuoPcTZJhgb7OcwcTiNBYTkhsF9V74WTwuA6B7aTyvck2JhWRWG5IbAfO+RgOIceDf11Dvr9HLaJX09QWG6IDNhiRkkhY1Ix0N5tpN/PYXJlp4XCckRkQG6U9MSbWdrrHNg5Zm4/hx2UqCUoLEeEFqwwLYcSJkMqKOn2c9hE2K6gsFwRWpCr3099Zai+20i7n8NGtGqCwnJFbEL6SXPdMq4MiWTINiTY/Rx2RXiZoLCckdiQrd9PvU2qvM5Bs5/DJlJx5Y7CgiGxIXPze+SHVxrAn2A9bNvoLndnN4UuEhSWOzIjcuPv+p7Du0edrMDLBbZOmhxeQbOfw3blGwkKywNSK7LJUFtmPT2/vvnSVToHXxdBJ8M50SFR7+ewspMmQhQWCKkVuWSoO2n/uFwuXz1Fra0WesCyjlTIhAx47H4O9VPcIwkuEhSWD+Rm5JKh+kz00/Nyy4sPaeX9gTFwYueQDMdUQ1e5n8M9NK+RoLC8oLAjlwyV3ayX5Y7HJ2dh7b09A7X898mQObzN7udQ+4hsZaZIhCgsEAo7spNZyqG/9+WB50dHXRHtzgmkiM+SIVecqfZzuJGb8wSF5QeVIfm7HOSHlV+WBPe3Lrqi+kqgIn4iumtCsZ/D3b9cT1BYnlBasnLGWj7/dX/7ifXe+5Lm3mGByIQYQBGfzngZsvs5ffn/6p5VUFi+UFoyuWLLrHxp+MrFpJcli3XvgWt1ul1UKd/P4RaEnasEheULtSn56yO3gw5vW+F8IoXzcSnAboEoODfvdKOgdD+Hf6NmgsLyhsaWfJk1S2/udzHp48F7r0shNlU8f9OH0zkh6X4O12jQFFgoLBg6YyZcmTX7Vy4mvYl1tbSo4flDN27DYLL9HF5XZ1pTxPZVqdBas8JdeftvhHR+flIErHsLIfDHBN3GV2X7OdzluJ0KCssnWmsyDyLvdr97+IoQz/PjExmwXp6J//cZrgN+Ys9xxlCyn8M/5vNKb4nYvioVenOyBfyPD5SyNgvEImC93jw9En8Aw88Yj92moiX7ObyudIU7CguIgT3pp+z88eGBURbBdqX4/kL8AQh/ezvoIfU8C+HL8bq6NrFDbF+VChODkkvDr394kCvrQ+7N91fLgMVP6zlfo5QO+2Q2nIp1pV0QorCgGFmUWBpmAWvDv38jENahcfX2SvzBXASeW1h7pnf7SLjdzxE87lq/IERhQTEzabG38x8/7JT1I6+sF8KZny16WJ5bWBSjyXa92Rf1GXQ7OSgsG8xMSjQdFMpyHMXy3cJi2WTFhUhXBo0GFBYYQ5sSu4Y7Zf3xu//8lTxg2eC7hSUUL59tdTuEKCwrTI3KKuuHr7vdb/+L1NWzY8Dy3sIS6WrsoCsUFgRjq5LK+vHh4dfZEvG/iX6o43if9xaWAG7+CqQrFBYEc7MSyvr6Nz/u/ut/DvMyz44Tyd5bWDwTN12hsCAA7Eoq6/tDuvrfD14CVoAWFkO6dtQVCgsCxLD83N+G2XTbtHINWKFaWAXTmauuUFgQQJYVKms8vHm7dw1YIVtYGcOxs65QWBBgphUqazvj5HR6InwLS1RegXWFwoIAtG1y1Ra4aOaatgK3sERpsNuG6gqFBQFqXMHJnW06dFvBBW5h3QnSoPE+DgrLDrB1xcpyenZ02BaWaDVopSsUFgS4eYXPJHc6pBW0hbUQhSvDORkUlj02BuZuVXYLWiFbWOJwJbkVGYXlESsLJ03R4nDbeLDxfcAW1lAYrjomc8goLDfsTCxuO8DvtNoSroW16gk/JLjNgMKywNLGkhJ+IwpoPgzWwkoH4k9oU7ajsMDYGpk5YkHIApgPQ7WwhnPx5zM6NoHCcsbezJJCa5MPIcoI1MIaibOgdXmFwoLiYOfkSpIOu2vjUitMC2u1lnywM9vyCoUFxcXQ0nTY7fYNpRWihbXqyz6VQxpEYQFxM3Vy3nGSVoAWllxWnXPHLxvbV6XC0dZJ5bJrLy3/LSy5rLqX1qtBFJYFrsZOkouOXFqaMt53C2skl5VT1Y7CguNu7qTVkLqz21M1Hzy3sIY9+edotNy/JwoLggd7qyqtjVYG0ozos4W1Gszln8G5ukJhgfFi8aRS7ypYiwcf7FpYU5H4FmvV+9edqysUFhg/Jk+S6pnKteMJX5RbtrBmXB02nYxV731Wdf92KCwwvoyuLOKzlMhqy66FlT2+KSVVNVe+befC/ZuhsCzwZ/akct1VQ2nLroWV/9T+KUw6VXW7156yIAoLike7q9eHu2zXH+bhxq6FdUifk+3dMWPdu3lZC6KwrPBq+U2ppZVWtzubLFLLFlaxjtSKaiMrb8UVCguOZ9vrqviDuLi/MWlhTUxeOpSsUFggvFs/SZoGUYtH38JK78xfreGh0Y7CciGA/c0SIoOqhbUaDQf9nkHyCxitUFhAgnhgI61LcxnsmPV6/UHGYjRa5P/V7/Vm4Be6DCMrFBaIQD7YrBDrHbAkPNCp+10JorAsCeaFJKlctN2FAqN94bNvhcJyIKAfNlTr7mIxpx4qB6Kw4IR1xSZsNY3aD+6cNUMGKxQWlNDO2NC6Dp4S29fhKisUlhVH8MeGq5Daal87nb1BYQXhOC7ZausiSE48uziSqlBYMI7mlWRbb9W9Bq52PXxdhcKy5JiO2XJ1celFXO3LI4YqFBacYztnS6t5bbWduKdx3TxGrY7CciGGgzKuNuoC9+Y7G00dPVChsGyI5qWcarNWbxjkxnajXmsG7n+isHwS2Vc7KtWNwmq1Rka2ejzL/3vzl81q9aglupzYvioVsZ1VJmL7CkEQBEEQBEEQBEEQBEHKy/8BNdS2nIP5ITMAAAAldEVYdGRhdGU6Y3JlYXRlADIwMTktMDUtMDJUMTQ6MDg6NTctMDU6MDBPmV0HAAAAJXRFWHRkYXRlOm1vZGlmeQAyMDE5LTA1LTAyVDE0OjA4OjU3LTA1OjAwPsTluwAAAEN0RVh0c29mdHdhcmUAZmlsZTovLy91c3Ivc2hhcmUvZG9jL2ltYWdlbWFnaWNrLTYtY29tbW9uL2h0bWwvaW5kZXguaHRtbA/X5TgAAAAYdEVYdFRodW1iOjpEb2N1bWVudDo6UGFnZXMAMaf/uy8AAAAYdEVYdFRodW1iOjpJbWFnZTo6SGVpZ2h0ADMwMHwVf14AAAAXdEVYdFRodW1iOjpJbWFnZTo6V2lkdGgAMzAw7+QvAwAAABl0RVh0VGh1bWI6Ok1pbWV0eXBlAGltYWdlL3BuZz+yVk4AAAAXdEVYdFRodW1iOjpNVGltZQAxNTU2ODI0MTM3vciS9QAAABN0RVh0VGh1bWI6OlNpemUANi43OEtCQsZSSsAAAAA3dEVYdFRodW1iOjpVUkkAZmlsZTovLy90bXAvbWluaV9tYWdpY2syMDE5MDUwMi00LTZ2czdjai5wbmcRf1BIAAAAAElFTkSuQmCC;" vertex="1" parent="1">
          <mxGeometry x="470" y="820" width="600" height="315" as="geometry" />
        </mxCell>
        <mxCell id="YWYVbX-TZwlWx46NHFRt-4" value="" style="shape=image;verticalLabelPosition=bottom;labelBackgroundColor=#ffffff;verticalAlign=top;aspect=fixed;imageAspect=0;image=data:image/png,iVBORw0KGgoAAAANSUhEUgAAAOEAAADhCAMAAAAJbSJIAAABKVBMVEX///8xr0HHycirbUYyrkIxsUH3/Pj9//3KzMspszstsz8mrTjMzs3w+fEqsDwzsUPE5sjz+/Sy3rfk8+YesjQ0uEZlxXHi8uTG58ouuEGv37VXv2Tc8d/U7deDzoul2KpAuk+b2KKIzpBDt1JPwF2Z2KHU1tV1y4BNult4x4DX7tnw8fFsw3aQz5e747+By4qhZEDl5uUPripsyXetbELGmoGoaDuARC55PSrKqJOwd1OPUzZuxHeWWjvp39vd3t6XmZtHSVVhY2xxc3mBg4q3uLvav6/m1s3RurHCknWvjIGkWyC3hmt8OyKnYy95MhTCp57Enoq3mI2WZFSfUADg0s6IUT7dxbeedWdzKACjdlqhkImtr6+QTilBLzo0OUmThoVVV2CNjpgACZmYAAAXoklEQVR4nNVdCXfayJYGt0qiJFQSSAKMQEiAwxZEgrN12i+7Oy/dWXp7nX4zeZNJ//8fMVUCjKq0oBU8X87JObZB0lXd5bv31lKplAtelrW+2r2wJi1zOrIVDv+zR1OzNbEuumpfk2W+5CcoBYL3f6PXaTpWa2wgSYIiBgDVDQAgP0JJQsa4ZTnNTq/h+97/E/S7w9bYFiUJy6Uo1XAoCpYVf8Qet4bd/qkfOTF4ue+YSNchiJArDADqOjKd/u3WWaJjQs+1xgiKoMqlkI+AqwIRorHl9oTK7dVXrXt3bEggzeAxQwkkY3y3q51akFDw7e4Ya1pm4fbAGj7utm+busodawTFAsTbQIQjqyOfWqgdsMk0LlpYOQuTjwCra8tp3A6D5PszKZXfTCykLs3mp1dWXrUgBGkdZ1IZoWipJ5axc2mg5OO3exFcFAUIyoiMy87pxONVM5HzBBgISQhhqmYYBv7f+4n8OsG3kW6eahz71iHvSaI4pp+ElU2spTPoNl2CZnfgLDEVJ6wOE9aD7ECE1ikonTyzUbyyIcLExhPH7Wma3OAFv1sUBL4ha1rPdSZjwvDiVUFB9uzYsUO7gDDmkbBSYm6y7Lb3UrFu3/eXdneJuRCKNWgInWMyHb5jxsQHzC/ty4Ha2xiPEB/Rtn/me+rg0saJSPRVodk5mjnKlhGpoDhJQJeulkWn5LZ7iWJSEmRYx1FV3tWjFBQTkemqk4eGCJ2VGUmPOKi7RxjGnhWuSgoHoD1T8xtLW53ZURwCiFavABli0RlFRAiki06vmDfM9xwxKtCKo3IJgLbSw98tMmZqoXdSZ1FkSV+V5lSFSs+EYR5GgcpQFYrMA8jF1KEScTezV1bKoY5DVQfqk1LyVb59Ge7T0LhYfbm5oaWHqI2CjGF5obg9DI1LQLcKf6VCRbP0kHuJaFau5aszFOLaFN3SitbUtikGHTjQ7dJ5Bt+xw7ybaLYLvY3QXwffpCKNB4XeJQqDsRRUH1EvNN9oKgETxAF+Vnr03aI3C6EAQGkWd4dBiIBQOQaD2oJ3FRgiYlEqJFysgxYIJsfNu/mJEfTk64tCvI1wcR40glGBGpIQzRC+eF6IiEMjcGF9fIq6uzYOOlVjmPuywlBnDQAA5zR1WsEJlK44fZjzWYQLgxUQGeqpCtGCarC8kTNyKqrD2iAnjU/ZyuyPJfaNn1/kueCA9aIKPHrRi4Y8CyQc60H2UWyyF1Pg6tSNBH4VEDFr6Bcq/UCg15enFhCLuGRdKlD62Wh4O5Atnbu3oNslVFzWOQA9Ew3XTCbCAqNb9NNmRJflN6KZIUDzFkshzm+LgFhEdhTF1CmxULEYbQfnJ+xyBdA5Z0ZRt9IakLpmPNatUdENugyXVPSUtZvemHlHt0hFN2AVFYxTZauaSbMjRT9+LnEILlM3Qqm8zUqiBYS5mFFJuGBCv7RK/t0O/Xo4zGROHwdZCJjdUBxV0RP7wt6IVnFpdnomEwZ+RqtadZTQFNlIiEa3ZnYSA3lEu4ukUdGlBQTG7Z352WfIjegm+ZbM0FFQTpOgGKh0WAR6AnUTLLobop+oZJEMgkNTL2gdftoOXbYQx7dZQCzimLIpzjjoT5lYD0a3czbrHtqIMqrDcZ8Ooxy4fVyGRZdSOgU68R+XqckeHJwd5ylzYUIFfgDjnc2McjMA3M5QT6NBV1HjR6Vj+z+rwNuvowRNkSKZdkz85i3Kzdwmtvbsx+8fPvz1x2dhf2PYG4phNirlZlJmXOVh8ezhd48eePj49G3IB+hsVoHRHIWuPenH6fAexOeH3z34bocHD/4Z8pEBFfdFM+pSHepzwC7voVPg7bsHe/kI7oWJaFPOJiqN4i/9Vqig21B5Wrz7SMuH8Y8QY+xQk1LQZbgl0iwW3QI3I/z4dCvfx497Cf/zU/CT/IzykUaYJQqMIz1M8EqH8G43fj+/f//zXk0/hHy2Qw+PFVaUmFOzKmH+5mpefL5xMB+xXr7dD+Knf4V8eujnKoo4D/kIlTUB/eSM+/sbA/z4K/n54aPdzx9+Cfl4m6otQSv4iQY1Mxdelvz8h7B4uPcwH9+R37zbSxhiiJXKFTVCUiPwAcffrwdKsXOqUuPt0xt5iBn+8mzx697XhEvY9vcCOT2QYsgt/xDGEZ9j4C0TIj4+fboX8F64hLSnBC02xaB9Uai3PR5+ZEMgHQ8//Bb6LTrasbGAp6rcaHbK0sXi3aNYCR+H+lIcXKiYKDH9+DZVC9ATFeVKwrN3ARZD4YcnjyO+6fpZJ11/ESpNyhGJx5AkAp+fxgt478mnsGDhgY7oTaqjOPVnFdA5Xbv+e8+jPHj0KELOe0/C/UyFjJPjHydx6v+j5g+XwD5ZXrj41RPs0dPvv38aaoz3Hj/5PTQL9tDzpxgKRVq6fg0+XWr/bKOhD55iIZ6FSYhH8NP96O9T/JvTfU1d4crvhYxT+ZnP20zw0ffkp19/Dgj4w5MPvy/irkAFDHS1t7Xe2PeH6vREfOaGiD56T8QIqCnW0E8/xQpYaU/9gviqMK5fdJiilVogtia4EfHhs2cPWQH/gQUMD/U+rPy+Zq+MvOUP92knNRQDmog++uMPRkA8gB9+D4/0fqiUQ7kJ+rK/VAXQKSLF2wfxURAP4IcDGupB8C8HA+aOm879FVXxFHlTPBH1LPDPwwNI0PIF9l0eLFQu/MoLj+9JF+9jieg97EL/PGiBW7g+WZQb6uKXG9hHT+7fvo/V0H88wS402QBitP1BX2xtf+unc+Dy2NMSCBF98Mcf0Qb46c+wCmkE5Eu/MGDzy77f/6BjF7oJEX30/vPnUE0lHvTPSKIdigEVFzZNmq6/fnHk3PeZV44hEf7Z01ADfPxbNA0NhT+274gbVYc7bjdmQ0Q/bljaR0bAHx5/+HcMzY4Axc82NdGGv0KD7h6Tde+I6NP7wTHEDubDX4kdzB78XR/HBi1ScgsR+kjwEVHWDkmE//2fCUJ8EEGV9Pd9qYyjZCx8zJPJeImD+fRLJvkYt2KTelTTn97rRzPDt+Ep7s6B/pZRPqyT/tAgkj6943OvQDoSKRU+R0V5z4H+lNrB+C7tL95LDlNIFUfFCRGJxf3nd86CsWHrQJ98+HcWB+ODf52iZPF0sVuclFmDWty//7x+dla/U6/Vr9nYsJXvyeOc8gmViU9CsSXTqVNZVbYFHrfnd+pntXq9duah/t9BM8zhQPegEwkwliuaf4qmVEJisbh/BwNLV9sKt8VfjCWSFOlxXvkIXL9jMbRK39cBD28sZodncTUsXQhq1//FBojEKVI8/OmugvoV1beav8DUieglFu1GK0NE/LLXU8+B/pLDgfqh+RIoRVIrXf+YFrSC2VNMLF6kdIwpYvk+/VWQfGRFtN/uurRdBppu6bEg/jJcMQPwRPTGrzj5mFYovKj4J+ajSbA3nAqe4dWTiYdxjb0NSXH/SpHiHkZj4o/wFhU9widpJMXi+Z07tbN4zaRR+/KfohzoHvS0GRzh/UUaaZlZwMXzFGN3I+H1/zxOU6JIBmHpcy1ii5qthw7MII7CguhmmsHbov7i6/8WaIBbCI5/DM3K1J//ZirSYOVMpZu+MXz98rpo+TAG/hx4WvG1tzkxfXZ4H49eJukIrr+9ulOChF1/dXRU4fzEO+Ws50Uu+c5qL16+KdTJbEFlvFjCalYJsfXVsmnnTsI3L1+UICAtIUdJmKY3urhTyzF8Hq6/vXxehoRUs5CrKJkkzKeeG9RfvHxVhoC0hNVMY7jA3jM/6q9efilfQi6DHS5ymt9OwC9fX5XhZ4J2mNaX3k/PXcLxuhw/E/ClKePhoij5al9evqqXI2HXtz0gjoepOM3ieUHynZEh/LscAVlOQ/PSeOZdkAUS1L+8LCdUBHlpmtzifnEjiB3pm3IEDOQWqfLDhLl7AgFffH0VM30rl4Bsfpgqx8dqWoyE16++5YyFWuTMLTbHT1enKUhPa3+/zBkL+WHk1qJsnSZlra2QQcSR4mXOtEk2I9eKsrW2tPXSIuJh7VXuSNFWwLQb7jTYemnamvf9/AIW4WZciasaV6FGRde85+n7FrmDPtbRbznZjFCxIMdxCDRDph2wfQu693RxuPe0yK2mRRDSKVAkwOFgwLrUYO9J9of8RP3DnP70zpsC0kJ+vXYGEI+jNGbULtg/zNADzuVPSdJUQKzXXL6irQw8jLop06PC9oAz9PEXWWqjW9Suv30roILY6chE29wWHkZxRKVEPNvHzzIXI4+eFpIVyq3zTSordBUOO1X/ts3BuRgZ5tMImfW0/vprEYS7b1dn3YvhpGW2RtincnC030chOJ8my5yorHpae/H1dRGVC9fgJAmSE7JELB8eGTS9WaoWnBOVaV5btriPk8JXhSSFjsR5IIdKQV2SEIdG2wcPmdfGCJ2wk58l7pNQX4iAJHtAkmjYZmu27Ha03pXE7bRvHqKS9PzSpAXF9BLWzgpxoxXCPMWp5TTVfnub7clTUN1uLqSGzC+d+7dDTtx+yjCIhXWa2qN1x5+rC4Sp2RtLpOYIr7caCTLN807tT4tspTWYs8A0W9lISCWHu3nezFz9pKueUvrT+usiK9zsibo9ZTu7OWyuPrMwMfl6i1RxH2dML4oST76YXQ2bvoKLUOmuJRIFBCqx2K+3oNfMtCKuG0QaPX3ztTAVVQFE5OTBpS9d1wbmhuSErZkhFQFq3VPimd7J9bT+orgKfm+ENrEQTv1NCNkbUz583RO9VD3F2rXnyVW0OBvEuW8VQsRVOXAe6LPQa9eGN4OVef1hspCBuVqBExJEAMylc9dGVY47Z51GxPrD7GtIE8X9+t8FBXoPODlSNHIK8RAqHFv+bFOC+NaOMOuAUyybSTCI2AYLnVIC4GbrbgGnfWzpLHIdME3cUJpDcg770zeFdmBcawqX23BIMgzKEvlJ1FruHOvxD/nT+ptCp8zIOKkHU3kT7ntjji4OxqzHz7GnQrye1t4Uky7toJK0CZibWjDOg0XfYMTuqZBnX4wYPa2dvX5dgFg+jESgYBF12MXjuJQYFs3ui+GHln1vk2g9rZ29epFbJgqqDsYjCYcJAM1mU+HovfBj9jYhrZzs+9NExf36dZFRwkNzbffbFqmTcsCwOXTl94nM/jRDxl/m2WMo3BTrX0qYiSCTgdFWNlK8AtSgQU7W20aM+D2Gcu0TFRr36y/eFN2n3yvWfGkQSsOhlts09A0JO7RPVK69vkIGsf53KdMOd0IK85m+1dXqevOsPWoD5OBeX/n2a2OdTe3sTeFTY7WB1fU7D2220dUtxalcHtqvjd5zT0l3+g7jT+vXbwqfGetOIZTo4477QxFwypaf0HvuoZA99ypzahvolMtlqXy//uXvwqfKdM4BUUr6UEeh3wLS9mi5w/smBva+TLdsfR/3a2dfip+8TVoPInYuVd2/NanAz9A2gVAT7H2Zb//SGz3FAp7lkSUU/BXCVG1pYP8pTXzGKJvr5eYDCfYvzbsH7fOdCV4X7kPJZmsc6b24pA0jmr3KYEu6hLa1kTfZHrTsPsJGuucgIaNWuy5+ACuEcEJyIFp/VMXWCEBLXzODRJ9zEX2Qbq69oHHcr5/VSpjKJZD0lTQ2e1NoXmERq6KXQG3/SJB0L+ic+3k/v3NWxuqJCqGjQLpqVFrSuteYIRLn6UFi9/OOtq+ce7I/L4PF8C5WyLmJE/aBjnBC5EAFKbQIKfZkJzkl9TJOv69+ewLJCUDagJy8QeYkDOFqyZhPEybeV58hNlUAcq5HzI8W5LZ1o46tkIXZpjQQ6DFiz0YIozN7yIj+9KS8Zz8M7EX6aw5UJS/mqQYHbGcqBWLdhB4VeGBUqFJHlTNOqqfN/gCCKyCuieec29jF4AFgy7nMKXqHzijBLIE5Z+aEWyYP4BTbntY0XC8mLHWS9bJpUZs9Z+Zg/5M9K2h0qq1MtRnJWJGvErO0RWQzGYFgpz0rKHjeU/aVs7mAXQrJ/kTCZXZP0O8OGD/JL+mnhasET3tLzuySdR1JVQ6YsY5DZZ41yZldt+DcNUHuuXJljmO8yHHIjBmVbOeuBc7OA8c9O0/oD02w4cTCUAy6Fh/kESNg0gJa8PzDsgN/Q76ZQSkMbQlw2/Yt9uxcVYlyHo2s5x8e9wxLuTkbI0naldkbNuSAaFThhpnJAEtr97VhsKiS5wxLpuhBCOqyCGFCIHRNSQSKwm23AuAnmKVNByo837IpF+f1YDqW1sGnXzLnkKYqLcnHOkt2JuIxghDulusQaobZZ6Xrbmyf9JNwQqjorYCFNZmzZKVWqo1ZjnQeMClDK61lc2Ar3kwlfiUpqEf39nBCWDWCyXjO84BJlyd4pnPhttiecpxEeg+V4XpE6n/yJVKYVS1aq4rsoIrmPtNZqKyOcC53x+bI1DP85mRVI++PdE9EaiyEJYTTYEAOnsu9Sj0AxzhbHVtdVfJTe95CHNqdIT73qrp9exkMcqyKcmKC0zkDoBZieKNY+OHjfZIQTR1X7fe2pGKAOAVqHhXlW6K3IqYffPYuQ2W8ZRUZoDEEtUrmIBVqi7JJioNItO1xa+UZAZF5W4vGbjY0ExIqTVZFM55sJODbMVfCiUax25tif8ZtZ2zDtdeAGJJ1MGZHU03IhUdwfsl4iCqIr8zEwWX8KQ79q2IJnKNAAKobIb21EbKBhxUhGwEuPII3VjDwVNn30RO6a44VcVYkDRcq8+UISboOyewDb2KF12TCJKeqs414D/KMFZBbR6xDTAaHcVpVTsquEhHAyVJngC1S2TSe+y1RkpBhhsa3vi0x77xqZNz6aXf3C4O9IjDcEvYa7uFECG2afrLrLAdqqJNRWR9T5YyLnM5PGOoBEUGRhQ3BC/ACmcV7E+uF8FcoLEVWQKzL+Z9laLBXreqJp7sfgjyRvC41v5QCUylZtG3WiWIVLWJnZ8ER2VGsiqNc1r2/Nj+RwHLed3Eue2DfEaE7YkkW/koxx6ILzpq9NDbGvBsQbtHFJGZsG4jj9NiJWI0Jy2Mw1oWd+95VgleHoauMU4OQGBwdgGTHJdl8E8DAEwClOBYpuAF2Q2YwzgrYGls2oSRJhunExaDeLOhiMJNxi6SQfT1gBFVFity4IQVcZ9DttGN9zGAssTQGm2B0KzsbNDbT8F6jbqhl78PPqwabARCI6WoWhyFUZIvN+j0Z0SxvSVyI1TV1gkLkU3SrhBouv1qH3QsZw/LaU+2VgcLeazhnzQ91HHa7KtQv22XckO9d6kEPSl7quKRWilDptQKZi3dLqFiqUCkwOyYXUy0l4m6tXvFFsR3kYZA4eWqDjCu3UpSM5CrulRFmgFXCRMtto3SC3GkDpIsXvWJ4TqN3Ieoo/DbiqPTTtHtWSPTdDCS0J6rndbIOpfe9njqxYdQtROsIXXfe1WGAit8o63iVK3vk3dU4Sj2rHNTLSE1DIGMfHv4MVeJZ0aUbz1GiLtt2L1Go99wAGaujNTKFjhmlR54qSXZroM63rzteZbd/5efqoGXDKAMgV4Vm55gzCjQHRr9sUgbA+np32J3vlYp9uv3PfK87vEt0M1o8rBrQOfaBcLJlh8Z/n1ZBXZdGE6fZ1zS5wVNNVoHnG7Km9ZvOZERKbdFaT6AguwyWdhB9C0ZEjh04rLEilJA9bk2sJU4imi5BsztwltakNbaRBEWsmRGOawcRWseeLLEF3zGjwhY9BABrLZIkstuKYRj4f/ID1koQrwQbIN3snPCk9/7dUGocgZuxSvwVTOzvnmj8duBVCyJwQM0ygjRtrNIT0AQyzi0pLEfNCQXnSJI1P718nttvOC1DKlZIIBktp1FkvpITjc5wLImHnGJCcJgzjIedk89PZsBrrqkncq2HgHTddLXboJ5ByM2rMVbX5M6VhYKVc3zVPEV0Twqh5w5NMY5fRgPg75lDt3drTC8KvNxzWmB9iIntQYwXM7w1aDk9+XYqZxjmhE3bmLyIMdSFkB0RUx0bs/RmsQeilYyNnjV6naZjeeyT0E9MQEF1o71YLpEQVo+xWk6zsy1/3Hr9DAMvy9pc7V5gom1ORzanVBWOG01NTMUvuupck0vXy/8DSN0/3gvPCDcAAAAASUVORK5CYII=;" vertex="1" parent="1">
          <mxGeometry x="-390" y="210" width="225" height="225" as="geometry" />
        </mxCell>
        <mxCell id="YWYVbX-TZwlWx46NHFRt-5" value="" style="shape=image;verticalLabelPosition=bottom;labelBackgroundColor=#ffffff;verticalAlign=top;aspect=fixed;imageAspect=0;image=data:image/png,iVBORw0KGgoAAAANSUhEUgAAAL4AAAC+CAYAAACLdLWdAAAn7UlEQVR42u19W3TUVtbmd46kklTlK2CuNhhssAHfMISQKwlJhySQkAshJOn06jUz/8PM/KtfZs3T//KvNS8za83jzNOsmenuSXc6TbiEW9Ih3enudEjAgO8GAgZsjLlffKmLqko681DGtqSqkqpKZVeVpSeoKh/tc/Tp07e3zt6bXP/PJYyAQXcQxD1Igs+nvmdJvrQ4BUlzXBt2TR/baq6p2fX4Xyzpee2MOfURy+gaxD8vszinjblO/iPFuca9BtM/ZzbOaffaM9t20djPDR8nsIUlxx8YS2IhszgFS3NcG3ZNH9tqrqnZZXFlmP0xmfFKpXkN4p+XWJzTxlwn/5HiXONeg+mfExvntHvtiW27qF1AOAJ+5Cj4kaPgh5Pgh3PgT+WcOQp+qv8+y+BnOcr8GduVJfAzJ5mfOMf8jOQ981Pz967scWVP4cseGn8RXNnjyp7Clj008SK4sseVPYUre2jyhXeZ32X+wmR+ar3wLvO7zF94zE9ha+Fdh9d1eAvL4aV2n1+u7HFlTyHJHppwkVzZ48qeApY9NOkiuczvMn+BMj+1XCSX+V3mL0Dmp7YWyWV+l/kLjPmp7UVymd9l/gJifprSIrmhTgftyiLzu6FOS/DTlAHhyh5X9hSA7KFpLZIre1zZk+eyh6YNCJf5XebPY+anGQHCZX6X+fOU+WnGgHCZ32X+PGR+6gggXOZ3mT/PmJ86Bgg31OmgXVlkfjfUOZF66CQgXNnjyp48kT3UcUC4sseVPXkge2hWAOEyv8v8Oc78NBEzuczvMn8hMz+1xZyuw+s6vAXm8NKsA8KVPa7syUHZQ5kNueDKHlf2FJrs4R9/aJc7GSNJy3YzlqCUdZyTMBB92e4EhiQcM5lNhIArr4awZD1AOf1Xdh8TxMZvid2h4pcnZ2oE6u0eqCODIMx6LfTrQRIjmsQZIu41ePwRSYpCq2uQ8LxJz2ljrlZLnGiucQaY/hs+qTFIBMTcB7+wpAklO/8bPCu2mICfU4cWQWToDMaP/ydEb3baB0S2wM9YkuueKvjJtD/MEPyPWZ8wR8BPU9JV+SJ7CIG07nV4lm/ObdADABUgVG2GtOEXruafQc1PZ0UHZxn8hPeCm7cK4ATkxUE4eFb/DFxFvav5Z0jzU9thtnxyeAkFaJ6AfuLgyqohNb4HIsi5xfwFGurkE2msfHd44x3qw0FE711OgYmTfcwyA3pFHbiSZVOToBzEdW9D6TuE6K3u1HWw6/CmpPn5ZCPmu8NrPEI9hzB6/F8SAnsmG9LJm/8til75LyBiydTjt7wa4vp3EL3dCzAtd8BfgA6vZdHYfHd4UzlmMs4fvvwtoncu6m8W3gPP6lfAlS3PwC7X4bUje2wVjc13zZ90YWbpJZc6ch2h9v8HFg3pHjH8wvXw1O8E4Ty5B/4Ccnip3dvJZX6H56pGEP7pBNR7lwziX4C47i0Q38IM7XKZP9k5ac5t9spqqDO3mF8dHYJy/iiYGtZ9zi9qgFi/M8ZL7vaGrDC/dZWFQgt15tKNzhiUrn1Q7/6k1/piMaTmD0BLljlgVxaZP49DndQRQOSY7EEe7epUHw1A6T0IGFl/STM8K54GCHXALlf2GH9gv8pCHjE/y+SGnGHZw6IKlN5DUB9eM2v9lg9B5DKH7HJlz/QfpFZlId+YP0ObZgr80fv9CF86Yfodv7QVnlUvJg2Uu8yfHvOnXmUhzzR/XjC/FkWw41NoI0P6i+Mth9TyEYi3wkG7XOZPCHyX+Wfe4VXvXIBy6QSgqdPdXAjLt4Bf1uqmMTrs8NK8iYAUuOxh0RCUngNQx26aIjzyho9BBNlNY3RQ9tCsh/9c2WN7rpHBUwhf/FI/eUIhrHweQvWzACFuGqNDsofaMSYvZU+arDObzM8iQSg9B6EF7uvZSS6HWL8TxFNsa64u81vLHuoIIHKV+Z0Gf9aZnyFy4xwi174D2DStTwjENa9CWNYaf64u86cMfuoYG+YU85PsgT/LzK8p4wh1fQ4t+EjP+sWLYokqnGT7RneZP/GQ1FFA5IjDa/+Gy03mD1/9B8KX/2zwxnh4al8Cv2i9W7rEAeanjgIiR2QPS+F+yMUbXQs+QKj7AFhoVH+xSishrnszlp7oVmzLCPx0VgAxQ7IHMwH+bMgexhC59j0iw+dMA4jr3gS3oM40tit7UpsrzRogcsThtX/O3JI9WvAhgm2/BgsHdJ9z5dWQN3wEwovJwe/KnqQfULAssmGuMn+e1OoMD/6AyI1z+g85AZ7abaBlVXHHdpnf3lypHbDkJfOzGQZ/FphfG7uFUPd+MGVcj/0FqyGtf0e/Zdll/pTAn7C8SDxjUq5fmWDsGSldEucQqlpRtPVXtn6bdEymIXr3IsL9fzfkzFpO3aJKgmGumorwheOItnwAYfmT04yjEBveRqjrM6gPB+KObapUkZFdhVe6hNct0GyCPxVApAl+cdWzEFc9i4wPxqAF7mPsT/+KQNtv4lOMQ3NVx24h2PEphKpNAJkqh8jNr4VnzXYE2/4PoEWtwZ+xXYVVuoTGfTQWkuzJxkEIqG8BvFv+CVzJ0uyGOpmG8OW/IHrngt4EQYbU8iG40sqk53ZDnfHNoAl1YT47vGoELPgo63cDX7EGnrrtAOWz6vCqjwah9B0Bi+hlFb9oHTx1r1mezHV4zR8ZqiUXBvOzqIJg31eI3r+SVfATQYbcvBu0eGl2HV4timDnH6Deu2hm/ab3QIsXpwZ+1+EFb9beOaL5M3R4lct/x8iRf4FU/wrAJy8ga/e8fEUNhKpNumJPnmUtEGu3InDmE8uygplofm3kBpSLfwK/uHFaNIeAX7gWnhVPI9T3hSGJxXV4kzm8pP+fy+M+cXQLRDKIgMCiziSxAUKSxrjJ7CLxPmKWvxGWNqJ87/+GsKhedzXCV7/Hw09/CXXsTmZztajVyS9uQNneT8AtqNV9F750AqOH/iO00WFb57aaa2p2WTwiiP0xiZG6SXp4i39evcObeMtCIWl+W49c62SW6N1+hHqP6r8kBEJlK4QVWwBCs7q3J3rnApSLX5lLkVRuiiWq2BTyrsNr0fUwpzR/DoCfRYIInT8O9dENPbl4vJCb3gX1ltuyKe25qipCvYegjt/VfU6lUkgN74CIpemDf445vJZdDws61Jky+BnCQx0Inf9KHzsHINZuhVj74uQFy9Yb3sitHig9ByfLiMcwQuFZ9QKE6mfArFoXuw7vVF0d67f7ruyZPLQoAh37oI7d0bOuXAa56R1QqcS2TemAjCkBBHsOQh27pX/qiEWQmvaACF63D68N2UPtMqzL/NO0/q1ehC58ZWbdmucgVLXqvC/nmZ8hMnQO4ct/Mf3As/LZya0Nbh/e5OdNqeuhy/wTpB8aQ7D7MDT/PZPWlpt3T20Zzhbza1GEug+aNq9RXwWkxt0gnqLMwD8HmD/lroeuwzuh9a+eROinb02/F9e8DE/1U6YL5TTzRwZPQfnpa/1Th3IQ1+6AsLTFPiDmKPOn1fXQlT2xAlCBs78DU8Z0X3HFiyE3vQMi+rJ6o2uhEQQ7PjM/deRySM17dFuWM2L+Ag110nTlhSt7gMjNbijXfjAUgCIQ17wMYWF9WjalArLIwI/mRBVC4Kl5EfzihtQAMcdkD82EYec682vj9xE48ztTASiuZAm8T/wi4eY1p2SPFhpBoO3XYGFDokr5Csgte0E8PmfAX4CyJ+Ouh3Od+ZXLf0d4oM3AuhRi7YsQljSkbZMtkDEtVnZw8LSp7KBYvwPcvJWps+EcYX5Huh7OZebXAg8ROPMJWCRoYN0qSOt2TnYqzxbza/57UHoOginmUiRS43sA5ZwDfwExv2NdD+cs8zMN4YE2RIY69D8kFNL6neDmr8rIJjsgUy79GZGb3fqHDi9CXPs6+Hk16engAmf+5NWS3VCnLfCr47cRaP8MWkgf4eEX1EBu2WOZqJIp86ujNxE89wlYJGA4/2qIa3eY3iu4zG+nWvIclD0gPKhUCuot14MmEfgZQ6jvS0QG20ysK6/fCX5BbXbnqkah/PQNorf6DFeXh9jwNmi89EQnmD+PQ510alNVBuAvINlDBBly45uY9/GvseCfDqLouf8A6ptvCX7Vfw/BvuNgUUXPuvNXwlOzFYQTslq3Rxu/i9D5o2BRw5blijqIa3cm7J44V2UP96sn5H+d/uOkm/xTShoh+u8zSmYhDtqVbFwCed0rKN/1X+FZ1gyuZAnElU+BhUYRGTqnz3Ayjsc0aCPDEGueA1e6VKf1ueKFUC7/FVrgYRbnyqCN3Yan+ildAjzhPOB8FQhf+jNY6FEG1yDJtbVzDSyTWYjlee0nsxDL81LjL+Yy81OpCN4Nu8GVLNbJFW/zu+DKl1ueJDp2G8GuQ6Yty3zFGkjr35gsD5It5tceXUeo54s4ndLXQ1jxFCwqRs4p5qfx7pe5qfkJhKWNkFa/YAoB8ovr4W3ZbZYLzDyBYM8RRG726lfV44W3+R1wZcsyn2sSx5KpESh9R6De7zdcZQ5y68cgvorMy7QUiMNLEz0s5hrzg/PA27oH1DvPvCKcB3LDG+DKKi3PqY7cmND6xk7lDZBqtxq2LDs/1+j9Kwj1Hjb9QFjWDLHuVev0yDni8NJkomouhTo9Va2Q6l5OOCy/sBbSmm0AFZIDIRpGsOsgogbWJZSHvPFD043luOxhGkLdh6A+HNSfXyyB1PAWqG+BrXELXfYkqZY8d2QP8fjga30P/DQpYo5wSvBu+ig+6xtOErl7GYH2ffotw4iVIpHX7zBJKadlj3rvEpQLXwJqRH/+6qfhWfms7ZuqkGWPRbXkuSF7hIoaSHXbkob8AEBYshbyuu2JGe7xSTQVoYsnoI4MG7S+D9La1+PKKSeZX4sqCHUfhGooN0IEL+SW93Wb1+Yk87PpyeZzlfkpD9+mveANURumhs0N2MRieFvfB19eZfmGN3r7IoK9x8EMrCuueg5S7YvOzjUOw4ZvtJu1PiEQqp+Bp+YFe+mRhcr8MCabz0HmFypWQ177ikl+hAfOwN++31SdTFjaEKu4TLmk4GdRBcGOz6EZWV/0Qd6wB0Qsdn6u038XCSF0/hi0wAP9zSuVQKp/DUQsSWncQmN+c7J5tpk/h8BPeBHyuu3g5+u377JoGOM//BrjP/xfRO9fM0V4vBvfn1ZDJ/E5w8PdCHR/AePmNU/1Foirnk94MZ1hfobIjQ6EL/3FcPMSiHXb4Zleb38OMn/8ZPM5Inv4+SvhazVu3Z2ondP/HSLDPQj0HDU7qVUbIK97bVIuJLKLhQMIdh+BOnrbxLpy01ugcll22hI9BkLYj8DZT6AZC1D5KiBv2Bt3y/RcCXUmTjYvdNlDKOTmN8FX1JjAGug8NAnWQPt+RA1yhYolsTe8RRWWdkVu9kDp/84kmcTarfCs2Jx0zk7InshwB5Sr3xlieRyEFU/FeubGAdJckD3Jk80LmPn5+dXwNe8CESS9tr/egWD3kUmWj9y+iED7fv02AEIgrnwaUt1LlnaxcAD+07+FOqZnfa64At5NP58qQJWlnlxa8GEsKd2g9bnSSsgte0A83rRuqnyXPdbJ5gXI/ITykGqeAV+x2hDJiSDQcwzqyO1pel9BoOsw1JGb+jH4iTe9UrGlXZHhbiiX/mYwgoO48inwi9Yi08oByW90hvC1k4hcP2MaSKx7dYL1MbPgzwHmt5dsXmDMz5UuRdGTPwfhPXqA3r6AYM/xGLtPsytyqw/Bvj+ZDPJUboBY87wp/m+0Sws+QqDjc2h+fVI6LVoIb+seEI9sOedMmJ+FxmJJ6YZEFa60EnLTbhBOnHnwzzLz2082LxTmJxTehtchLNEzHdOiCHQdRfTBQBy5EkKg4wDUMYOT6C2Dt/ntmJOazC7GoFw9ifDAadPvpPrtEJY02lqgTJg/MnQmtrVah3wBYv2rsfTIbGSt5TDzU5YKUAsg1MkVV0BuegNULNL9Jnp/AIGuw2AsnqEM4aFOBM9/Dabbckwg1W2DuOppS7tYOAD/qd+Ahf0G1l0G78YPAaPWdhj86uhtBNp/DxbSJ6Vz5dWQm3bHIluzAf5ZYv7E1ZILUvYQSGu2QqzebNb2nYcQvXcloV0sHIT/9O+gPjJEeLzl8G3+GFQqtbRLGTgNpf8fBrHJQVr3KoSF9baaU6QNfqZB6fsS4aGzhstGIK7fBa5suQ2QFU6ocyr1MFfAn0XZQ6QS+DbtBeH0OyzVB4MIdH6hSxtkcUOTvQhd/LNJOokrNsOzfGPCFKbHdmmBhwj2HIEWNLBu8SLIjbtiW4azCH4t+AihvqOm0Co3bwXEta8Bj9dlDsgeqgNsITM/IZDrXoK4fKPpZP7OQ4gM91napYXGYjF+0wuhefC2vKurjR/XLqYh2PclwgOnTDeP3LQLwuK1ttgwbfAzFcr5LxEZ7tQNSngJ3tafg59XbRNk+S97pr3AKmzmp3IZvE07TOBUx+/FIjmPtXsyuxiDcu0MwldPmd7mSmtegLC02dIuzf8QgY79pkQVrnw5pPrtk1UdsgV+deQGQr2HwcKGAlgLVpt75hYw81P9nVa4zC/VPgO5fpt+V6IWRbD3K4Rv9tm2i4X9GP/xN5OJ45PAKVkC3+aPJ2vTJ7RLU6Fc/g6RGwbWpTy8ze+An7fCtg5OC/xMQ7DrAKL3LumvliBCatgFWrJ49sE/A8yfOPWwgJifikUoemIvqFxqYL+b8Ld9ZmI/K7uUgTYEL3xjclLl+pcgLGu2ZLDoyDCCXYfAFEMBqIWrITe9o785swB+bXQYoa4Dps1rwpJGeFa/bC6AVYAOb4IXWDnI/OmCHwSeymaIKzaZXjSFLv4VylB3ynZpwREEzu2H5jds+fXNh2/jXhBetnybGug+gsjNHv1K8RLkhp3gy6sTz9cB8LOogtD5Y3FYX4a3ZS9o8aKZqU43i7In/gusApI9VCqBb9MecCWLTNp+/Nzn0JSx1Lc0MwblykkoxirJAOT6l+BZ1mgJCPXRDfjPfGpKVOEX1UNasw3EkNvrNPijdy8h1HfM5GsIy1og1m4D4vVALyDZY9EbMv9lj6eyCfLal4xCG8qVHxEeODdpUKrg1xQ//Gf/CBYJ6Re0eCHkxjcmt/wmGpdpUYT6v0P07mX9KnEC5Oa3QYsXJZ9vpuBnGkJ9R6GNGfYgiSWQGt+eyjcoUOanSVPo8pz5CS+iePMH4A0Om+p/gLEffgvN0DwtNfAzhC79LfZCatqECCfA2/I2PEvXW44bvXcFgc4DprKDnsoNkJt2JXggOwf+6K0+BDv+aKgQR+BZ+Qw8NVsnpWEhMj+1ZUyeMr+wuA5S7TOmtELl6imEhzpSv3DGGjr+B/C374cWHNHLlZIl8La8Y+hDFf9tarDHvD+IiD7I63fE9vun0YHdLsi0cBChni+gjhg6tQuxTu26pPQCY35qaUyeOrxEkFC0cTf48ir9xQ48wnjbZ1DH76d34Qybz4Lnv4FyzbD5jHKQ178+qfWTjRu9dwXB7sOGsoMEnuUbIa56JnbzZBH84Zu9UPr/ZhrAs3wLxJXPQV+ds3CYn9oyJg9lj2fJevia3jBtIwhda0PwwrdgmmY7/JfMLjXwAP4Os1zh5y2H3LDDlN5nHJdFQgi07zOzPi/B9+QvpnZ+Zgv8mhrr4xVny7Tc+qFp52nOMH+G4KcpG5MPsocT4G14FVzZUv13agT+9oOT2t6RNEZNRejS3xEe0r+QAqGQG3aAn7/CctzIncsI9hwz/U6o3BCr3vZYMmUJ/JGb3VAunjBpfbH2BQhLmjKUF7kpe2hKxuQJ8wsLV8O38V1DogmDMnAWwYt/TSv8l8wudWQY/jN/gBbSO8tCRS18G/cm6EM1bVwtikD7PlOWF5XL4N2wG9Q3L+nFzBT8TBlDoONz0x4kIpVA2rA39kKL5SD4M5A9NG1jcpj5fc07IczTF4jSFD/87QdNFQ+cAn/w/AlEhs19qOR1r4JP0Adr+riRe/0IXfrWtHPSs3ILPFWtlpPPFPyRwdOIDJ42XRexZmvCPUj5zPw0LWNymPn5ecvh27DLXCDqeif8HV+YNpc5Bf7oyDDGT30CFtZvQxAWroa3+a2E6X2Tb1MVP/xtv0PUEGGhUhl8T/7S3CndYfBryij8p39tilBxpcsgb/ggVgArY8cyd5ifWvF6PjE/4Xh4174MYcFKkwPn7zgMLUkkJ2PwqypCl/6GiOGFFCgHb9Ob4EoXW44bHupA6MI3hiUhEKufhGf5JhvUlgH4GUNk6Kw5KZ1QSHXbwS+odSikmBvMT+0Ukc+XUCc/rwrFm983RVLCN/sQOP8NmBrNavWG6KNhBM9/Y070KF0CYfE6S0AwxY9g1xfQAo/0945vPuTGt0Di7fd3EPxa8BGCXfuhhfSsT0uX6rs3FgDzU1uhkryQPQS+ljfhqTTEzsMBjJ89iMi9AduhoXTBTzhPrNQ4MYcsJ+vaWLSkVAba4mh9EnsvULXRJrWlCX7GELrwNcLXfjDNS1q3M3bzOhZSnN1Qp41qyfkhe7ii+ZDX/QxE0GvpyIPrCPR8CTAt66VLPMsaIdU+a9oFqlw7hciti7BzaEoAgfbPoRr3+xctgHfDewAvZRX8WuA+gl0HzZ3ay6omujd6HAspzqbssVktObeZn1Ae3nUvQ1qxAbpdeJqK8bZ9OrbPFviJxwdv85v6joeI5dn6234P1VDdIBnzh/q/N+f2Uh5S3UvwJNvv7wT4NRXK5W8RGe6CMd/A2/qhuVN7nsoec7J5HjI/LZqPok3vmrR95P4AAt1fmnZQZgP8wsJayA2v62UOYwjf6EL4esfEE8feoQVHEez90tQpnSteBGltLD0xnQ7sdsGvjd+Jsb4xPXJ+DaSGXXHfS+Qb89MpliZ5yvwE3rXbIK3QRz2YGoG/4wjCt3+KywBOgh9UQNHmj3RpgzEAj2C87fdQp20HsNWNkWkI/fRtrAAV0zd28Da/BWFJg82gQ5rgZwyhvmOIDLXrV1qQITW8NVWKJI+Zn5r/KL+Yn/OVo6hlF6hsSCIfvQ1/5xFThCUbzM8vqIFU96KpbIly7RRCF75Nqxvj45vGpLXLl8PX+t5UUnqWwK+ODMeS0o17kBbVxxJVCJdSxC3XHF5D0VgHZc9MhDoJgbTqSUirn9ZLDE2Fv/MYwrd+ynrFNsJ74G141fTugEWCCHQenmL7NAChXDkJZfCsIcIiQKr/Gfj51SlcgzTAr0YQ6j2G6F1DeiLlIbfuBS1aBLtHLsoe3vRHj5sdPP4zBqsm0WAsQS2laQCNjRhnKMOHk/9NeN6JsRjAScUoefpjcznAh0MYO/2Hqc1oxqGY7j4CA5kSehbzNc6VX7AKvo17DAnaLFZuvO9r/RMn0VwT2KWO3kbg3D54qlpAp7UO4hfUQG5+C5Fv/vvk+EmvATGDnxgf83H+NvLgGoLtn8XCmNMiVcLSZpTt/p9QR2/aRL6K6M1uhLr2TVWnSLLOjBEQwlLHW5z5mK7txPryyf8ImYPfCFgHwS+u2ABxeYvp2+DlHxAePm91/RODwS74CYVc/5JpByZTo7HS4uP3LIGY9FRMQ/D81/Bt/ghitb51j7dxFwJnP9O1KnIc/IwhdPEEfE/9O3DlK3RaX1zzMpAC5zNlDOA9CPzjf9iafNbAP/FdkqKxue3wUm8Zird8CK5koSF8+AhjP/4+FpHIct0efl4VijbtATXso4ncPI9A74kkOsK+XerYHfhP/Tb21nn6o3rhGnhb3jWVOnda9kTvXkaw+7C+MUbKB4nl8q7dmTOyx1bR2Fx0eMXKJnjXGnrTMg2Bi3+DMtRlH2TpOryEQFrzoi63FoiV7vB3Hkb0waAzfXiZhlD/SURvXzRpfXndq+BKlqThd9kHP1PDCHbuh/pwCBkfE85/LoCfJj13jjq8hBNQsuV9cL5yfSRn7C7GfvidqShrNur2ULkMRZveM8W0I3f64T/3+WTZkIz78AKIPhxEoPOgeefn0ibIjW/EfeY7Cf7Ird7Yzs3QqM2YVO47vLylDs5Bh1esaoS85jnT1oBg/48IXTllqfkydngJhXf9dlNObaxQ1FGoD2/Y16t27FJV+DsOQm54Xbc3nwgSvBveixWyfTSU2jVIQfOzqAL/D/8L6oOr4MqXgxDrpnP8glp4N//SEo/EpiPmtObnbTlbOeTwUo8PRRt2gS/VP+K10BjG2j6HGvIncRZTcCyTgJ8rXoCije+a+l9FHwwi0HXU0DzCAfADUB9eR6DzEDyVLfoIy+J6SDXPwd/+x7jvLBwDf9iPYPcX05Ve0kNas80S+LMJfmpbb+aIw+upbESRMdGEaQheOongT9/HtgZkuW6PVPM0xFVbTFo40H0c4VsX0ntkW9jFomEE+75G5G6/njp4Cd5NH4ArXpSB9Ewjzs8yve6zK3uobUDkgMNLKAdf43ZwpYZIjuKHv/PYhLbPbt0e6vGhqHU3qKF1jzp6G/7uY2DRiMVapA/+yJ1LCJ0/YSo76KlsNrUezQXw57LmpykDYhaZ37OkDkUtOydf1z8+QlfaEDj/F5NQd5z5CYW0+llIqw1bjxmDv/MolMEOm2yYJvg1FeNtv0f03lW9oy2VwrtxL2jx4vwB/ywzP02LDWeB+Qkvwtf0GoSKagPbBzB25nOoo3fij+Ug8xOpGN6mneZy42N3EOg8rIu6ZAv80XtXEOw9rs8dJgRi1QZ4qlrBLLJJXeZPBPyUmX9mQp18eSWKN75tiOQwhIe6EOg5ARZ3M5qzFduk6k2x5hIGFg5dPjnx7oClqINTBz8LBxDoOoLoI0PZP48Pvk0fgEql6QNiDjE/zYgNZ0j2EMqj+Il3ICyoNjl8Y2cOQB1/kPXqDUSQUfTE++DjlBsfi1NdIZvgDw91INj3lWlwqeZZSHWxri95BX7MPPgpy8SYGZI9/PzKmLb3GJLIh8/D3/ftDJQuIfAsroNU85TphVXwp+8QntD26c41ZfBrKgLn9uv2+QMTDaebdk22Hs1F8FvZNFPgp5Y4nW3mJxS+lp0Ql+kTnbVwAKOnPkP0/qDNmy598BNBQtGmPeDLK/U2BB7Cf+4A1MCjrFZviGdXeLgnVopEp/UppDUvwFPVkrkOng3wz6DsoWAEzoHfeebnvOUoanrN9JY2em8Q/p5vdC+LsgV+YdFqeBteMf00NNiO4OV/TIFvBsGvKX4EOg6YdoBSuQS+1vd1STEu85vtmniBRQBGco/5CYeiltchVhm3BmgYO3MA0XsDWa/eQHgPilrfNrE9iyoY+/430ELjWa/eEH9shlD/SXMBKhBI9dvgWbHZmQhIBuC3vu6zx/w0hfFmnPn50kUoeTLOtt+7VzHefmQqkpNF8AsVNfC1vGHa/qsMtEO5diY+GGYI/FrYj/Gz++J0Sl8Ib+MOU9nBvAJ/lh1ewwssJ2VP5qFOb91zEJc3m5m24xjCd6/YsytD8Pta3oAwXx9N0kJjGD+zD9GR24nBMBPgZwzhG51Qrv1oqAlKIDfsgMdYACofwZ8l2RPnBVZuyB7OV46SJ98zbQ2I3L+OsTOHTIkZ2QA/X14JX9MOgOqXKXzzAvxdEy+Rsli9wQ74Nf8DjLd9CtXQepQrWwbf5p+bnlSu7EkE/ByQPSAUcu1TsQJRhjo1/q4/IXKn39Y5MwE/4QT4GrfDs2i1watU4W8/ZAolzibzK/3fQ7l2yrCEPKTVW8EvXONI+K/QmD9x0dhZZH7qm4eSpz8E9ZYa2H4Qo237oSl+ZLt0CV9eieItH4EIkm4k5UYPxruOmZ84s8j86vi9WPJL2G94YlXB27ADJEHZwayCP8Hf5Uqo01bR2JlmfmlFC6SVG01MG+w/hfDwhRkpXSKveQ7CIn1pbBZREOg7geiDIVvENmPg1zQo/d8jfKMHprJ/Tbt0pUhmHfw5Euq0Lho7ww4vlYpR+sxH4Ivm6z6Pjt3F6MlPp8raZRH8XPEiFG1+H9QTJ5p0Tt9cItt1e+wCQh29EytAZdg6wVfUwLfpA1On9LwFv0PMb69o7EzJHkIgr9oEX/3zeoeSMYx3HEdooCPBIjgIfspDrnve7F9oKsbPfI7InctZr96QLviDfV9DGTAUoOJFyA2vxVg/aYnyPGP+DMFPU3U+syl7qCCjuPVNk7aPjt7B2JkvTM3V4kqVDMHPectR1PKmQdtPlBvvOwEWUezPdYaZXxu7i0D3MVORXGHBqliiikWxVyfBjxyXPTQlNswy80srW+Fbv8304+DlHxG80gbGmMXjL0PwEwLv2hchr3lG/1s1ikDv1zH/IlXWmUHmZ1qskFX4Zq/pKeZ74oOpZtczxPz2ozkzL3sSv7mdYeYnohfFm94CV6bf9qspAYye3j+p7bNZt4fKpSja+JY50WT0NsbPHIibRJ5rzK+O3kag/YCpyZ2wcDXkddvtlfjOJvhzZG8Pn+gPk1ZSeOzwEpZZRYNppUvEygYUb9gJQvUmEcph3iv/jLKt/0b/OUlzhZOFUT1yrJWQ7t2BBn/nMSg3epOfyqnSJXEAQUhyQOgqDzANwd4/oeipX0JYOPUOgni8KHnxV7Ea/tO7uhPn1k+3ltN781qsV9pzTbC+Ca/B9JqnCY2AvTIizGrtbJYuKW55HZwhkgPEtgTLNZsxW4c6dhfjncegKYHkN5xDpUucAH/0wQCCPcfBP//vdW9uubJl4MqWIScOp8Fv5xRW5UVS0vwOyB7CCZBrn7RD4zN+BM5/i9DVNnuP5CxUbEtHCjA1gvEznyF6rx85fczifn5qacRMOLyaZi77lwOHpoxj9Mc/TEVyslW9IQvgj969jPEznyVtjDHj6xl8NDP7+VPqepgJ+DN0eJmmYuTkHxB5cMPZlP1MLlJoHGOn90G53hnfec5S3R6nwM+iYQS7jiLU/32GlY6dYHYG9dEQAmc/Nc93lhxe0v3LCmbycUiyeImFeCUWry9I/P8SToBYtR7CvGUT2VZM/xu7c7Th9BIbf6eFxhAe7IIaeJB0KZOqM2LDNDL9n8z2PIjl97Gx+PkrICxeG3eXZsJTkfTXN+7XTIM6MoTIzR5dMSyTTiCZzTUlvD0GvmPgnzAiHfCbP2T2bzirRSIGwKZil0XkIyPwm753HvxO2GV7XFvXADMHfhL/o8mcW9PjYDY1/+SH+dyNMbc0f6Z2pSIx8iGBnU6PzjgG/gw1f7wPC6UD+2xpfifsylvwxxmT6pjaaeZH7qQxmk+Sg8yfi+BnBQT+uMDPFvhd2ePKnhyUPTQRU7uyx5U9hSx7aDKZ4jK/y/wFyfxIWjTWZX6X+QuX+S2KxroOr+vwFqbDa6NorCt7XNlTeLKHTt8Z68oeV/bMFdmj25bsMr/L/HOF+U3bkl3md5l/LjB/3K6HLvO7zF/ozJ+w66HL/C7zFzLzJ+166IY64YY6M7QrV8Fv2fXQlT2u7ClE2UPtLLwre1zZU2iyh9pdeJf5XeYvJOanthbAZX6X+QuM+en0pESX+V3mnyvMT6cvusv8LvPPFeanxkXPWeaHG+pMiWFzEfw5FOqk8RbdlT2u7Cl02UMTLbore1zZU8iyh1p1s3CZ32X+QmT+JNWSXeZ3mb9wmd+i66Hr8LoOb2E6vDa6Hrqyx5U9hSd7bHY9dGWPK3sKS/ak0PXQlT2u7Ckc2fP/AQ++O/mYZZP8AAAAAElFTkSuQmCC;" vertex="1" parent="1">
          <mxGeometry x="-840" y="330" width="190" height="190" as="geometry" />
        </mxCell>
        <mxCell id="YWYVbX-TZwlWx46NHFRt-6" value="" style="shape=image;verticalLabelPosition=bottom;labelBackgroundColor=#ffffff;verticalAlign=top;aspect=fixed;imageAspect=0;image=data:image/png,iVBORw0KGgoAAAANSUhEUgAAAOEAAADhCAMAAAAJbSJIAAAA8FBMVEX///9DmTRFpThGoDdAlDNPqkFKpzxXrkdgsk+2tZipqohbr09XrUtVrEhesVJis1HCwac/ozFmtVg1oCXOzbfz+fJAnjA2kCfb2sc5mydcqk88litmsVlSrT75/PhtuF5PpEGo0qM1lCK32rHV6NJJqTXk8OLe7ty+3bqx1KxNnj+Pxoiex5c+ly693bl4u3CBv3osjRpcnk7t7eWWy4xzumWWxo97uHLJ4sVrsWE8pCp3tm4tkherzqZbpk90sWqEuHygx5t6sXORvoxooVmJsnV0pGOXsX2ntY16q2ShtIhkplq6waPF0beio37f39LVdvCnAAAKW0lEQVR4nO2cCXvaOBCGwY4P8EEMAQqlDjkKKdmmSbPJptkuzZ7tdo/8/3+zPrAtyZIss+HRWM33C/Q+M5pvNGNotZ71rGc9SzUtZB9g5/peecTLI9kn2LVurKHsI+xWC8v8TvYZdqsjyxspHcShZfuTW9mn2KW+t+zD0UThcnr3yrZv9JG6QTy1bNs+1PWBqjdxGQPaPV0fPcg+ym6URDDSXNcnS9mH2YXuNoC9aRTED7JPswNdvLILQn2iXu92kgGmhPrkVPaJnlgF4IZQ19WqpwhgRjiahrJP9YQ6QgDzGI5m6iBigDmhPlGmoOKAds/RM8QfZR/taUQA2j1XVwuRBEx6mhzxB9nH+/86s3scQgUQF6+sPkno6Shiw19SYd+wDklCV8cQmz22OX9lWX0yTR0dR3wj+5T/QxevrUhkEH2dQLyTfc6ttUgASxexr5OITX0thraVEvYqCEfzhnbh8SW0KGk6Iwmb+iA+eW2JEuqTc9mn3ULLHNCy8Zt4WCbUByeyz1tboYWomrCB1ebSQAgPqwkb9yB+8xqNod+vJNQnD7LPXEunGCARxBsqoT64kH3qOjrEAfGLyCDUJw1yxYv7PkHYEyBskisapkME8abyHupNGhMfBYZrsy8ik1BvymJxaEQi0hQ1fTZhU/L09nWZEA0im1CfNKKeLoI4hkZvG8Jm1NNLzeCnKY9w1IAWfHmfABo+M01L70MsiPB3UjdmSmiRlihGCL/Y3KW3sBzEojflEuqTM9kIFZqZGSFp+nmakpMoMoqyEfg6y0NoeITp5zHs8QlhdzahZRQiLmIvR+QT6qC/ezsKEEJmNa0ghDzoDzUE0PBYpl9BCHnFf4Imadn0DwUJAa8yZprDIcxrTWUMwfZuy8B0eEEUJ4QaxO8C08UIiVqTVdNKQqieGDqa6bkcwk2t6c0rCYFu3E4Hpmn6WDUlENNxjQDhaCobhqrzICLE05S4iGlvKkAIc6cY3keApuGhhNTeVIRwBPE7lLOEEK+mZG8qTAhyKHWjJYQ+L00TwxAjhNe6LQLTLCPSqmlfhBCgYRxlhFzTFyeEV2v62oaQa/pxbyoYQ2jjjNP7DaBpOBVpKkYIrjk9z5K0otZEpi9KCKuvGXpaTuhZHMLI9PtuNR68ND0LvJwQN323lKaChMAs8TxwTHqaWsRLv9/rT6vpEsKfZFOhCrQihny/sPt9p5pOn07nU0id23KgGSzEUm/KJZzrbsS2bsf6CChN3ww0zWEFkRxIMbJ0Pp+vp6v1qp3rGFCavgs4hCVLJN1iHkVt2l4hbKnermVzFTK0SC6j1pS67znCNp2vS2S5PoIx/eU9QYgF0SQRvfi6zfPrxtYxmC3N2YAgxE2fTNPZdDVlBw5N00+yyTKdBzEhUk0NrP0mq+lchC7RCsrHbh8SQo1p+kSaToUJj4FshIdaKs/ICV1ebypO+BLIaHgxSAmNghCvNcT3Q+KEUC7ixYaQaYnetoTtNgy/uA3KhLxHYg3CjzAu4ruMEDEMjTOQqkEIpHHztDIhL4g1CF8+yIaLFQ5ohBzTr0H4diWbLtayIDQLRM5Aqk6l+QjB8+8KQrE0rUMIwvPfIISI6Xsei3BWhxBC852bBa83dbckBNHVvEMImZaIfnpShxBEV+MhgFhvyrqItQghFFM0hJrpMYLo2FsRtl/KxoteFvcoIfOlb21JeCy/M10MMELkIrLStB6h/JHiKU7IrDX+loTyDfGOIKw2/XqE8jelZwQh0/T9phIe4ZUGraYG/QupeoTy14i3AU6o+VVpWo/wZ9mAm1EiIqOqN63nh/LbthKhydpCZQOpeoTyP6y5JAmZpu8pQ8jcQvW3IXyQDVjOUvZAylGQkLpKbBphyS3wgZQChKTjEzeRsixtGuHJoEzI702bVkvJzjsWfyBVj/BX2YBUQmZv6jSxpyHfh4lYvanl1+5L5W8uljRC7rK0HqH8gemCRsgdSDXtfRhS3II/kGraFKNVdnyN35vWIwTw90oujRBBLC1L+7UI5c/a8Kk+LU1J06+ze2ofy8Zr0ds23PSJZalfh7AtG6+FfIqBV1PWstSxa+0tIHztTbV83ocZdbIUQOON7fFRMQdSZq0dsPyWJpJPLTWo6eMbjFqE8g2/RX3lE2mKW2KdewjjW296MdVc4wkIAawPW4zeW2NbYg3Ct3/Jhks0NCoJnS0JAbx/E9G7GpTQ3ZYQRKFhXkTWO1iIcL1erVd7e/J33ImWDEKG6VcQRmTr93uJxhC+NUnk0QkZps8gXK2iwO3Fgcs1lr9a26i8u0jEGEiVHX+9igK3QtlSXQF4/qaizdvYFxEljFNyXSLLBeQaRmIQogMpDyNMUnK1LocNFZxrKJKmiCVO2/zAFYTyd/i5yA8yMlFNf8qPHHINQTSlqUJ6DOmmPxME3IPwvs/FeF9QB1KiIRzLH+gjYjz0qd13WzRJAQwSETn0IFK2UJZoDCF8WoqI1ZuW38GihHAamlRD4d7UEyUEVEkTMSwR+bZ9k6auGCEku0/FqDVl03dFzD6qM0CehohmggMpQcI92TxlMdrv0rJULEuh1ZlE9LlpqdaIVZorOM+KQozmlOxNhQjHQEZQhOhBRL+QSqqpUAihWUUqRhDJNBUJ4S+yWRjyqjbeMaEnEkIw4wtCdE9EBlLxuMYRCCE4t89FnQ2beK3xGxxC1goD/6VQ9QN4DGNbQRf1JexhvWk1IbCHIa7QpAWxIIxe+tPKEEItpKmo3y1gF7HS8ME9mwjRGnCE0PCrhhhA25lCC9pTGBl+m5UxhPATfK6O+J9FmxWPpyv5n1tW6kM5T5EnlMEnBO0UmWhfnDqiMYReZlJR6mlOqH14z81RQKsKnspTqXwgpf3yGy+CcBtSXKHL/Mme9vsfPEKIL3uqypt9V4QQ4HyNqdIvabJqGnxmE4L3ekznJOImiMEXJmEjjAIR2b1lhJ3fxyzExlzCVENipOFlhF8ZhKDfTFQtiSCmvanR/UInbFKVyXRK+U8Qbdb99y0VEMTHwHWFF9RkIKV96nZpTc1Vo8poIfyZEdca7U8q4fhB9lG31e2ASNOY8I/SRQQ+t+DqEkGMe9Pgc7f7mSQcfwL/6OUIRYwJv3a7X0nAhjk9KQTRjVuabrezUgoQRYx6U6cb6TccsMkpmqpA9CM77OIXUQVApAt341La7eyrlKKpMtPwtM8xYdF8N+ZNX6ns/zH9LwlhJ+tkHmQf7Ol0N0j68HknAeykpt/MXpSlpREhBn+mIez8vRrvjffgbgm30tAPtCC9hp39/f33V3817MFbrfDdINgkaUR4oFSGZrqN3XB/Qyj7MLvRP0UIr2WfZTcK/80IX8g+yq6Ux1DRELZaB5tKuq9CM0rVdUfpOhMpVP0atlr7aQgVJjxICR9ln2N3eqE84WMCqKrfx7pWnjBMAFUmbB0khMoafuubIVTYDiO7iEOoPOELpQkflSe8PvgGCF88EzZbCaHCjXdMGIXwWmXHjwkflSZsPUaEj0oTtsLra8UJI4XKEz7rWc/6xvQfB0dYePp+cmsAAAAASUVORK5CYII=;" vertex="1" parent="1">
          <mxGeometry x="-600" y="800" width="225" height="225" as="geometry" />
        </mxCell>
        <mxCell id="YWYVbX-TZwlWx46NHFRt-7" value="" style="shape=image;verticalLabelPosition=bottom;labelBackgroundColor=#ffffff;verticalAlign=top;aspect=fixed;imageAspect=0;image=data:image/png,iVBORw0KGgoAAAANSUhEUgAAARgAAAEYCAYAAACHjumMAAAXsUlEQVR4nOzdf2xV533H8W/WyvYfBpsUYQuEY0KTOlpTe1KcVrGlmLgKFBrhGKn5seEYrdPASIOsSvCaSYkrkZB2EWkqCJHaQYCGVVuooyhNIUtDMohSPKm+gylEDStxBrMr1tjgagSt2vR9/Bz7+HJt33vPee4995z3S7J97/X98fjH+dzv8+Oc80cCAI4QMACcIWAAOEPAAHCGgAHgDAEDwBkCBoAzBAwAZwgYAM4QMACcIWAAOEPAAHCGgAHgDAEDwBkCBoAzBAwAZwgYAM4QMACcIWAAOEPAAHCGgAHgzGeL3QDkpT7tq+eKiAz7ro+LyMUCtguYhoApDbUislFE7hSRtoDPNSoigxlufzvt+qC9r985+wFk5bpiNwBz6haRp2zIGJXzqmR5w61SOX/iq+fsmVMyfmls8vrw+SEZuTDkun2ZAkuvj6XdlimcZgo7xAQBE11NIrLTq1hWdjwojc0t0tjcKjVL6vJ+UhNCl6dv+xpKZz84Pe221MnjWT3WgWMZbssUWJkqrEyPRRERMNHUbcOlWquVx/7uR9Lc2l7sNmU0cn5Ihn1VUqawkgzVlXnshSFTZTmWHkSjtpIaS7stUyVFYAVEwESPhstevdDSvkYe2b7LdImSQKsjDaJ0qYET19z2fmpArn766eT1AoVVpiDS21IZ7pseTpkqrtgjYAqrQkQaZhl3mAyXzvWbpKf3ycK2LoZSA9O7er+7OCIj5z+Wq1d94XT+2nCaKexC5h+X8oKqP07jUgRM4VSLyCER+aWIPJHh+/Ui8iu9H+ESTZkGzSe6iB9Pu810E9PCKT3o5qBhs09E+kq96iFg3NNg2SoiW+zlvhkC5i0RaWtsbpVn9r1ahGai0PyD5nr57JnTJoh81ZRWMitKOWQIGHfSg0XKysq1NM8UMG02YOTHR1OBZolQ+jRkjvYfkiP9L4kNlw2261RyPlPsBsRUt+0OdYhIRe2SOjNYe3Hkv7TEfjvDAOBOEWnQrtGK1Z1FajKiQv9fWtrXmMupgRMVInK/iHxUimMz7IsULq1EfmMHauv1H+XR7bvk4NHU5D9MBtU2iGTd+o0FbSyirWtzr1n/ZO21b1wlhV0FwlFv/wHMorjKeVXStXmbmQnKgnnM8oZb6RrhGlr5Kttd2mtnnUpmfQ4Bk78mEVkrIqtE5CtLl91kFsNppXLLl26TsvKKbJ/nPv309W9scNpYlC4Nmdta2+X7fX8t45fHfioiD4jIz4vdrmwQMPn5soj0arhUzququKN9tTS3flWaW9rN/kE5atBPdctuctJQxEPLXavN4sLDB/Zol3qbiLxXCrNLBEzuntA/sAZLZ9cm6erZFvT5tBKSxttbQ2kc4kkr4p7ep7yp7DY7Q5lpuUOkMMibvSa7EO7xmsV1FS+8/E4Y4QLkpHNqImBLcVuSHQImO1vtOpWmynlV8tQL/8iALIqipX2Nmcb2zz5GGQEzu2obLGbPZv3jHnwjJXU33lzsdiHB7rhrcsnDncVtydwImJl5a1ratGp5dPsu6XvuYGL2bEZ0NTa3eBebituSuTHIm9lWW7WY9SkaLv4jxwHF5JsQCHr4VOeoYK611wuXlR0Pmh0PCRdEiVbRvko60lUMATPFG28xy7F7ep9M1MGeUFp8b3rVxW3J7OgiTfDCxbwbaJfo7ql9QADkiYCZsNebgqZLBISHLtLEeItZT9D3g4OECxCipAdMvZ0xMt2ixmaW6wNhSnoX6U/LysrNaUFmOV4LgDwlvYJpuqWxObLnHAJKXdIDZmHj7a25HLsFQA6SHjAAHCJgADhDwABwhoAB4AwBA8AZAgaAMwQMAGcIGADOEDAAnCFgADhDwABwhoAB4AwBA8AZAgaAMwQMAGcIGADOEDAAnCFgADhDwABwhoAB4AwBA8AZAgaAMwQMAGeSfmZHzGHk/JB8eOaUnP3g9LTbK+fNN+fxTsLpdscvj8nZM6ckNXBi2u2NzS3md1A5r6pobYs6AgbXGL80Jvt3Py3v/uI1GT4/NOf9W9rXSFfPNrOxxYWGytH+l+RI/yETLrPRn3tlxwNyd8eDhE2axAeMbkyY8tbrh+Uffvhs+kZ1TETeTrvrDSLSpB8n3nxNUiePS0v7anlk++7CNjhkGiyHD+yRw/ufN5d99Hfwnoh8aq9X2Z+/TX9Xu3eckv27npbOrk0mbDEh6QHTf/jA820j5z+STb1PSe2SumK3p2gGjr8pR/pfkn85+sr4H/7wh0ER+aGI/FJEzszx0Grd0MYvj913pP/QVwdPnvj8PfdtkLs7HpDrF9YUqPXBaUjoz3+0/5AGyxUR+bn98H4HV2Z4aIWINIjIneOXx9r279qx6tWf/H3Fiq91yte/sUHqbry5wD9JtFxX7AZEwF4R6dbS9uAbKacl7re675HUwPE+EXnCd/P/6ad//vdPnL3uXL732GazcVmrRORInk9VKyKva+Do7/GZfa+WRLdJu0LffWyzd1UrlXtFZDTPp9PA/alWNnql77mDpgsZNvu/pBdX2DZHErNIIhtEZFDLYS1xk2ZinGEyXDYECBc1bP/hze9TN9q0bkbkaOXiC5d9tv35hovYx66wz2XC+3cXR0JpaykiYCY8rJ8OH3jezJokxcTYwbe9q33eRhGQt4Gd0+f/3tTGGzkafo//1Z95V/ttwIZFn+uYvsaJN38W4tOWliQFTLctXd+yH1tt/1lsiWnKzP27k1PFaLjYCuNYWrctqFHbzRAzADxRykfO4QN7vFmycyGHi8d0tY69ftjBU5eGJARMtQ2UvSLSYfvG+rFTRJ7y3U/fwU13IQlVjG70vg3fxcY1KCLP6oUodj31b7x/1w7v6sMBu0Uz0ed8+P3UQOS7iq7EPWC8cGmrnFclXZt7zcDjo9t3eTNGG+1Uo/irmCOvHCpqowtB372tZ+07uAsa2qNpYRYJvr/xMds9cmXf1aufDh+dGudKlLgHjIZL0/KGW02wdPVsMytP7+54UPa8/I4sWLiowt6n2t7/RbEDn3E2MS7wmnf1+w5fatTbeI/2Ryu0fX/jFwvwcu8didjPXyhxDpgnvOlSrVjSp0v19vu/uVVsuOy1N+vGMKr98rlWb5ayd6fCZdBh9eIxG3CUKpjxS2P+FcphDGzP5Yz+PyWxmxTXgKkXkS16oaf3yRnXYqz4Wqd30RubmXzHjfM7zodnJvcreqUAL2e6nbpBR2UDG7kwGS6FWj9iFiumTkYnZAslrgHzuFYmXndoJtcvrJGVU99/3H41S+Kj9I4bNl91NliglzyW9rpF5Qu69N0fXBnWT+k7jCZBHAOm2lYk0rV57n1CfPuNtNkBX1PBJKSkdTFzgmt9WuwGFEscA6ZbQybbQwnULKnzVzEP2Y3OvLMnsaRNAt/4i+vxp8SLY8BoSMi69RuzfsAdd632Lnbbr6akTz/+B+LBt1NrfXFbEn9xC5hV2s1ZuuwmaZsawJ1TS/saueVLt4ntXmnI/ETsKtQ4WrBwkXexUBuYeZ2oHCulrKzcu3hDgV7yc/ppwecWFejloiNuAfOX+ume+zZIWXlFTg+0U9ZiK6D3tKs0ciGe09W3t7Z7F7cU4OWaNGC0aojKntU1UxVMR4Fe0rx7+X7viRG3gDG7yOdzGMfG21unPYc3DhPHgV7f76epAFXMQ5Ln38SV6xfWeN2k6gKFTIOGa00CjzcUp4DRjaVay/B83in1cb6+edvkQG8Mx2H0H923wXc7fCmvy2kOQBUlvuULBaniVkbs5y+UuAVMoDLc91h9LlO6xPWQmr4p/C0Oqxjtd1bXTg+0SFi5dnKDb/NVrS50lJWV18+2HivO4hQwZiPxdXVy5guYG6K2OCxsusHbjb7a7lketiZv8eKmbU86ePpgtIrrXL/Ju7rXtz9amMzv9pbG5sgMcBdanALmTv1Uu3hp3k+w/Atf9C42hdSmSOvpndzwO2y1EZbJ/bta2tc4OWRkGLSKs93iekchq7+D+uYEDu564hQw5h0oyEBa5fwq/3PZMZj4LrbTis0XMjtDGo/xDpFhdjR9ZPuuEJ7SjbT2dft2eg2Dd/yhyI0/FVKcAsZUHUH6+mmzK4lYRq/dBN9K5r0BxyOmhcsz+16NfNdA/+aPXhsyQbpL3kG/TVjrc5fS2RXCFqeAQZ70XTwtZPKZWfmKfWxJnVFA7IxSWsj8Ks+gbbOPNZWLPmdSB3c9cQkYM8Abxj+07x23ydtXJQmH0NSQ0Q2irKy83h7lbm+WY1HeVPTrumHp3+CFl98pmXDxaBD4Kq5637Gbs1kn0+G7v1lUqL+DpIeLxO3Ea2GU47ph2HGXahsw9cMXhhKxSEo3iPFLY/LygT0ycmGo2wbHOTselfLtCOq9u9/pXS4rK5fm1nbp+8GPi/tDBKDdpYNvpMwxhA8feF58U9ijdlbxl3aVd5P9/2i035/sUmmXs2vztsh3DQslVgGD4Dq7Nknb6k750c7vmH2xxi+P1dt39Bnfyb3BYrs/V0nTYNCfZd36jSZo7fm5vRW/GX8HWrFoOK9c+0Ai3ohyQcDgGtcvrDFdJv3Qam7i2DiXJr5eGjOBUjm/ykzrfz6mS+D1Z9Kg0Q/9ufXjwzOnzVcNFP1+7eKl5ndRat3BQopLwNTqp6U33lTsdsSOb0FeYnkhcnexG1KC4jLIa3adTvJ0IBBFcQmYK5KQ2R6glMQlYMxBlYcJGCBS4hIwoUk7/otZX1O7OH6DmEAhEDBpfHtPH/MCJo6zJEAhxCpg4nj0OaCUxSVgJk5sFfDYLb5B4tGoHagaKEVxCZgrYTzJ8NQpRQfD3L8JSKq4BIx4OyYGOX6LrwIadXSEMyBRYhcwQY6hO3z+Y+9iavL4MgEOwQkkXZwCxpzIPMgJxtNOCm9OylU5b344rQMSKE4BM9FFCnA+aV/3ijEYIARxChhzDN18Z5LSxl/Oecc5IWCA/MUtYAbHL4/ldU7pI/0veRf32XNcy9JlNzFNDQQQp4BRL+qno68cyulBGkqHD+zxrn5fRO7TCytWrwu/hUCCxC1g+vWTPRJb1g96d6riGfR3jxqbW9y0EkiIuAWMd/xYOTrV5ZnTkf7JiudFO7g7cZbIhB9oCQgqbgEjtovj7/LM6uyZU/7Zo31T1QvhAgQVx4DRbtLo8PmhrKqY/buf9i7uszNIa8Wc8nS142YC8RfHgBn1qhhfeGSkIeSbceqzuweYI8dTwQDBxTFgxJ44zFQxs4XMsdcP++9/zguX2iV1rH8BQhDXgNEqZoNe2L9rR8au0vjlMXl54uRa52z1Il73iDPyAeGIa8CIHYvZpxe++9hmU8l4U9epgePyre575JOLv70iIvf6jv9iKpiVax8octOBeIjLeZFmssF+7dZKRj/S7PGmte1pUs3YC4fIBMIR5wrGs8FWKYO+20ZtdeN1japFZIuYcwtvLE4rgRiKewXj6fdW+c5gq4ZM7ZI6aWlfU8BmAfGWhApmLg+JyLYFCxdJ33MHi90WIFaSHjALRaRXRCpWdjzI1DQQsqR0kWbymIg0dG3ula6ebcVuCxA7Sa9gmhqbWwkXwJGkBwwH9QYcSnzAAHCHgAHgDAEDwBkCBoAzBAwAZwgYAM4QMACcIWAAOEPAAHCGgAHgDAEDwBkCBoAzBAwAZwgYAM4QMACcIWAAOEPAAHCGgAHgDAEDwBkCBoAzBAwAZwgYAM4QMACcIWAAOEPAAHCGgAHgDAEDwBkCBoAzny12A5IiNXBcfndxZMbv79/99KyPb2xuyfq1KudVyfKGW3NqH+ACAROykfND8uGZU3L2g9NyVr+eOSXD54fmfNz+XTsK0r50uYRR7ZI6qVlSl9V9l3/hi1I5vyqr+y5YuEjqlt2c1X1RWgiYALQqmQiUqTAZvzw2090HReQ9EdmXdntfFi9VLiJfyaFp9fZjTtpe/TmykRrIoQUONTa3Zn/f27O7b+W8+dkH7eLsgzbpCJgs6YaoAZIaOCGpk8fn2iiP2UD5yH49Nst9nwi/tTnJOoxEpElEqrO8752O2pB1IOZ6X1c0uLRSzPq+WVR+IxfmroqjgIDJYLJrc+FjEyazVCbnbICk7NdBe1spOZdDm2cLykKptkGXjVyC6wZHQWv+f7IVhUAMU+IDRrs4hw88L2fPnJ4YO5n9n+GY3RiPiMjPRWS0cC2FNRqRoMuFdm8rsrxvW5b3q7JBF+n/weuK3YAie2uGP+iorUbe9lUlg0VoH1DSEl/B+Lo2H/nGTiL9rgCgNGRbtgLIQ1wrmFoRaRSRBjtwV2s/JG0g74qIDPu+5mo0YLXjvXaQx39axNcvtQFtFFjcxmAa7PRok/3Q69U1i+vM1F/lvCopKy83C7vU+KUx+f3lS2aGSC/n6pOLI3L1apDtO5SAKebjgwZMkMdrsOf+R5vwvyLynwFeO983pMSJS8BoV+d1b8BWg6SlfY3ccddq8zWqgk5JpgZOBHv8yfxf31sXhLyMBpw0OGfHDIM8Ptdwz+cxsQgY7fpsE5GtGiydXZukc/3GrBc2oTiCBtTQf/xaPvnv3+b32peCvfbIhaGsdv+IKW/h6IvZhGShA6bat0gpfbHUsG85fS52isjG5Q23VnznuYMs4UbkjZwfkuEAK3EnFn5eCvb4HIcEZlhsqkFz72zjkC4Dptp2WZp84yLZrH7st/vnZFNC1ovI+xouz+x7laoFcMjst3byuLz7i5/Jkf6XvJtn3V5dBMwqEVmrVUWmb3r7ZaTvc6Elpzbet4/FwyLy7Byv9daChYva7v/mVlm3flOIPwKA2WgVtvvpb8uJN18TGzL3ZrpfmAHTLSIP+VfG1i6pM3u+Nja3mECZa29VLdu+97ebvUbLHCGjr7f3/j/fKhow2R4aAEB4vtV9jzdZca8NmmmCBox2ebbaYDHrSxYsXCTNre3yUE9v3uMhR/tfku8+ttm7+iczlF+/0dfUrlEuu+8DCM/A8TfNsYze/7d/HRWRZenjMZ8J8NzddmpYu0TV2u25/y8elr/Z8YKsWL0uUEWhlc7ZD07Lx7/5tdi1LC+m3aXNmzXq6X1SPvPZuK4XBKJtSd2NcuV/fq9BU2EXfU7bETWfY/I2icivtHuiwaLdoEe375L+985JV8+20Loqj2zf5Q3atmWYcVqrn1ra10hZOav9gWK6raXdu7gl/Xu5BsxWGy5NuvF3be6Vg0dTcnfHg6E01M9bLGd1pH3bjPPccdfq0F8XQG7qbrzZjLfaIZNp22q2AaMP/Kldc2I2/BdefsdULC75AiT96Gimosn2cIgA3LrjrsliYNq2mk3AVNvjpphk6ul9UvoKtKDt81OzTv5jtpjLmpisewGiwXfWi2nDGbONjur3viwi/1RWVl779fs2mOng6xfWOG2o32whVrOYFbtAVPiWoEw7OP1sFcwfi8jGYoULgNJRO1UMTJt1ma2C2VFWVr7qB4fe4CReAPIyUwWj/ahVza3thAuAvM0UMDuXLrtJ2lavK3BzAMRJpoDpFpG2FV/rlBbWmQAIIFPAPC52jQmrZAEEkR4wHSJSXzmvSm750m1FahKAuEgPmIf0U2fXJqoXAIH5A2ZyP4KVax8oXosAxIY/YEy4tLSv4bi2AELhDxhzCATfPgUAEEh6F4mFdQBCk88BpwAgKwQMAGcIGADOEDAAnCFgADhDwABwhoAB4AwBA8AZAgaAMwQMAGcIGADOEDAAnCFgADhDwABwhoAB4AwBA8AZAgaAMwQMAGcIGADOEDAAnCFgADhDwABwhoAB4AwBA8AZAgaAMwQMAGcIGADOEDAAnCFgADhDwABwhoAB4AwBA8AZAgaAMwQMAGcIGADOEDAAnCFgADhDwABwhoAB4AwBA8AZAgaAMwQMAGcIGADOEDAAnCFgADhDwABwhoAB4AwBA8AZAgaAMwQMAGcIGADOEDAAnCFgADhDwABwhoAB4AwBA8AZAgaAMwQMAGcIGADOEDAAnCFgADhDwABwhoAB4AwBA8CZ63yX3xKRtiK2ZS5eW9tsWwFE02SuUMEAAIDSQwUDwBkCBoAzBAwAZwgYAM4QMACcIWAAOEPAAHCGgAHgDAEDwBkCBoAzBAwAZwgYAM78fwAAAP//bI6Ckhv7aLcAAAAASUVORK5CYII=;" vertex="1" parent="1">
          <mxGeometry x="500" y="370" width="280" height="280" as="geometry" />
        </mxCell>
        <mxCell id="YWYVbX-TZwlWx46NHFRt-11" value="" style="shape=image;verticalLabelPosition=bottom;labelBackgroundColor=#ffffff;verticalAlign=top;aspect=fixed;imageAspect=0;image=data:image/png,iVBORw0KGgoAAAANSUhEUgAAA4QAAALRCAYAAAADem3LAABKTElEQVR42u3dvW4dW7ae4b4PgWef2H0LvQFRANO+BTMg0KkypScSFFixoEidEQStzIACZUqcGAIMJYwMBVJiOGhdAY2hfUq7WFy/tarm77OAFziwu/d+m3Oxanwcc475l/uFP//6178WhR8/fvz48ePHjx8/fvz4reP3FwvCjx8/fvz48ePHjx8/fgKhBeHHjx8/fvz48ePHjx8/gdCC8OPHjx8/fvz48ePHj59AaEH48ePHjx8/fvz48ePHTyC0IPz48ePHjx8/fvz48eMnEFoQfvz48ePHjx8/fvz48RMILQg/fvz48ePHjx8/fvz4CYQWhB8/fvz48ePHjx8/fvwEQgvCjx8/fvz48ePHjx8/fgKhBeHHjx8/fvz48ePHjx8/gdCC8OPHjx8/fvz48ePHj59AaEH48ePHjx8/fvz48ePHTyC0IPz48ePHjx8/fvz48eMnEPrC8OPHjx8/fvz48ePHj59A6AvDjx8/fvz48ePHjx8/fgIhP378+PHjx48fP378+PETCPnx48ePHz9+/Pjx48ePn0DIjx8/fvz48ePHjx8/fvwEQn78+PHjx48fP378+PHjd3Qg9APkx48fP378+PHjx48fvz79BEJ+/Pjx48ePHz9+/PjxEwgtCD9+/Pjx48ePHz9+/PgJhBaEHz9+/Pjx48ePHz9+/ARCC8KPHz9+/Pjx48ePHz9+AqEF4cePHz9+/Pjx48ePHz+B0ILw48ePHz9+/Pjx48ePn0BoQfjx48ePHz9+/Pjx48dPILQg/Pjx48ePHz9+/Pjx4ycQWhB+/Pjx48ePHz9+/PjxEwgtCD9+/Pjx48ePHz9+/PgJhBaEHz9+/Pjx48ePHz9+/ARCC8KPHz9+/Pjx48ePHz9+AqEF4cePHz9+/Pjx48ePHz+B0ILw48ePHz9+/Pjx48ePn0DoC8OPHz9+/Pjx48ePHz9+AiE/fvz48ePHjx8/fvz48RMI+fHjx48fP378+PHjx4+fQMiPHz9+/Pjx48ePHz9+/ARCfvz48ePHjx8/fvz48eN3fCD0A+THjx8/fvz48ePHjx+/Pv0EQn78+PHjV5zf3bcvD3j/+d0DXn58/oDL6/NHXN1e/OTZ27ON/Jf/9pcHbPvPDf+cTf+OqcfUc/q/w/ry48ePHz+B0ILw48ePX7d+3398/cWHu5ufvP704iebgt3TN08eMA1xpTL13hQkh//dw89h/LMJfP/48ePHj59A6AvDjx8/ftX5bQt8045dLeEuFdOO5LbA6PvHjx8/fvwEQn78+PHjl81v2P64L/AJfcuHxV2BcdO2VL8f/Pjx48dPIOTHjx8/frP8pmf4xuf1YhukwFdWYBy2po7PM247v+j3gx8/fvz4CYT8+PHjx+9R+BsPbRmf4RO66mR8hnE89OaQkOj3gx8/fvwEQgvCjx8/fg36Tbt+0wEuglQ/IXEcFKch0e8vP378+AmEFoQfP378GvAbhpFMO3/CEaZBcRwQ50479fvLjx8/fgKhBeHHjx+/jH7TCZ/DoBehB8eeSxyG14wnnfr95cePHz+B0ILw48ePXyF+4ysexuFPAMSa12IMIfGYLqLfX378+PETCC0IP378+C10z5/uH0rsIronkR8/fvwEQgvCjx8/fgv7besCCiQoPRyOA6LnCz9+/PgJhBaEHz9+/I64A1AAREsBcc5diJ4v/Pjx4ycQ+sLw48evC7/pVRAufkdr4TC+09uuuPB84cePHz+B0ILw48evO7+hKHYVBHq+4mJuOPR84cePHz+BkB8/fvyq8xMCgWXCoecLP378+AmE/Pjx41eFnxAILB8OPV/48ePHTyDkx48fv6L9hEBguXDo+cKPHz9+AiE/fvz4Fe03HgwjBALLh8PxQBrPP378+PFbKBD6AfLjx4/f6VdERKHqeggg3XUWQzj0/OPHjx+/0xAI+fHjx++EEDhcEaFQB/J0DsdXWXj+8ePHj59AyI8fP36r+tkSCpS/pdTzjx8/fvwEQn78+PFbzE83EGi/a+j5x48fP4HQgvDjx4+fbiDQadfQ848fP34CoQXhx48fP91AoNOuoecfP378BEILwo8fv479xt1ABTTQLtu6hp7P/PjxEwgtCD9+/Dr0Gy6P1w0E+uwaDsHQ85kfP34CoQXhx49fR37ff3wVBAH8CobxTPB85sePn0BoQfjx49ewXxR8H+5u7l9/euECeQCPLryPZ0M8I5YIh57P/PjxEwgtCD9+/ArxG4Lg1e2FIAhgbzCMZ8WpwdDzmR8/fgKhBeHHj19mv3EQVOgCOJZTgqHnMz9+/ARCC8KPH79MflG82RYKYOntpMcEQ89nfvz4CYQWhB8/fon9BEEApQRDz2d+/PgJhBaEHz9+ifwEQQClBUPPZ378+AmEFoQfP34r+wmCAEoNht4f/PjxEwgtCD9+/FbyEwQBlBYMp8NnvD/48eMnEFoQfvz4LexnaiiAWqaSen/w48dPILQg/PjxW8jr7tuX+/ef3wmCAKoJhvHMimeX9wc/fvwEQgvCjx+/E4Pg5fW5IhNAdcSza6lg6P3Bjx+/1QKhHyA/fvxK9LM1FEBrW0m9P/jx41ein0DIjx+/ovwMjAHgcnvvD378+AmEvjD8+HXmJwgCEAy9P/jx4ycQ+sLw49eZn8mhAHqfSOr9wY8fP4HQgvDj16WfIAhAMDzsfKH3Bz9+/ARCfvz4NeNneygAHLeN1PuDHz9+AiE/fvyq9xMEAWBeMPR+48ePn0DIjx+/qv1sDwWA+dtIvd/48eMnEPLjx69KP11BADi9W+j9xo8fP4GQHz9+Vfndffvy8y/cgiAAnBYM41kaz1TvN378+AmE/Pjxq8IvCpeXH58r5gBgIeKZumQo9H7jx4+fQMiPH7/F/aJYef/53f3TN08UcACwMPFsjWfsEsHQ+40fP34CIT9+/Bb1iwLl8vpc0QYAKxPP2lNDofcbP378BEJ+/Pgt4jdsD9UVBIC03cJTtpF6v/Hjx08g5MeP38l+sXVJVxAA8nYL41ns/caPHz+BkB8/fsn8dAUBoO5uofcbP378BEJ+/PjN8tMVBID6u4Xeb/z48RMI+fHjd5SfriAAtNMt9H7jx4+fQMiPH7+D/UwQBYC2JpF6v/Hjx08g5MeP30F+7hUEgLrvLfR+48eP385A6AfIjx+/TX7ff3y9f/3pxf2zt2cKKwComHiWxzPd+40fP36bEAj58eP3yO/D3c391e2FQgoAGiGe6fFs9/7lx4+fQMiPH7+dfrqCANAm8WwfuoXev/z48RMI+fHj92hwjK4gAPTRLTzmzkLvX378BEILwo9f434GxwCAgTPev/z4CYQWhB+/zvzcLQgA7ixcolvo/cuPn0BoQfjxq8zP3YIAgEPuLPT+5cdPILQg/Pg15hfbhIRBAMA4FJ6yhdT7lx8/gdCC8ONXiZ/zggCApc8Vev/y4ycQWhB+/Ar3G84LKnoAALuYc67Q+5cfP4HQgvDjV7Cf84IAgDXPFXr/8uMnEFoQfvwK9bNFFACw9hZS719+/ARCC8KPX4F+rpQAAKS4msL7lx8/gdCC8ONXkJ/zggCAlOcKvX/58RMILQg/foX4OS8IAEh9rtD7lx8/gdCC8ONXgJ/zggCAHOcK1Qf8+AmEFoQfv8x+wiAAIFcoVB/w4ycQWhB+/DL5DecFhUEAQK5hM+oDfvwEQgvCj18GP8NjAAAlDJtRH/DjJxBaEH78Evt9//FVGAQAFBEK452kPuDHr9JA6AfIj199fiaJAgBqmUCqPuDHr2w/gZAfv8r84iC/MAgAKDEUbppAqj7gx08gtCD8+C3kZ5IoAKDGaynUB/z4CYQWhB+/E/2EQQBAL6FQfcCPn0DoC8OP3wjXSgAAaryWQn3Aj59AaEH48TvBz7USAIAWrqVQH/DjJxBaEH78jvQTBgEAvYZC9QE/fgKhLwy/rv2EQQBAz6FQfcCPn0DoC8OvWz9hEADQeyhUH/DjJxD6wvDr0k8YBAAIheoDfvwEQl8Yfh36xQvShfMAgB4usN8XCtUH/PgJhL4w/LryEwYBAEKh+oAfP4HQgvDr0E8YBAAIheoDfvwEQgvCr0M/YRAAIBR+UR/w4ycQWhB+/fkJgwAAbA6F6hd+/ARCXxh+TfsJgwAAbA+F6hd+/ARCXxh+zfoJgwAA7A6F6hd+/ARCXxh+TfoJgwAA7A+F6hd+/ARCXxh+zfl9//FVGAQA4IBQGO9M9Qs/fgKhLwy/ZvzixXZ1e+FFDwDAAcQ7c8lQqH7hx29HIPQD5MdvXb/Y+vLy43MveAAAjiDenbsur1e/8OO3DAIhP34r+gmDAADkD4XqF378BEJ+/JL7CYMAAJQRCtUv/PgJhPz4JfUTBgEAKCcUql/48RMI+fFL6icMAgCwfChUv/DjJxDy41e8nzAIAEBZoVD9wo+fQMiPXxK/95/f3T9988RLGwCAFYh3bLxr1S/8+AmE/PgV5ycMAgBQZihUv/DjJxDy47eqnzAIAEC5oVD9wo+fQMiP32p+MfXs8vrcCxoAgITEu/fQyaPqF378BEJ+/FbxEwYBACg/FKpf+PETCPnxW9zPXYMAANRxR6H6hR8/gZAfv0X9hEEAAOoJheoXfvwEQn78FvUTBgEAqOeOQvULP34CIT9+i/mZKAoAQF2TR9Uv/PgJhPz4LeInDAIAUF8oVF/x4ycQ8uN3sl+cTRAGAQAoPxROzxOqr/jxEwj58TvJz/USAADUex2F+oofP4GQH7/ZfiaKAgBQ9+RR9RU/fgIhP36z/YRBAADqnjyqvuLHb0cg9APkx287H+5u7p+9PfNSBQCgQuIdHu9y9RU/fts/AiE/fjsunxcGAQCoPxTuurRefcVPILQg/PhtDIOGyAAA0OaQGfUVP34CIT9+O3FuEACANs8Tqq/48RMI+fHbSVxo68UJAEB7bLq0Xn3FTyC0IPz4PQiDLp8HAKBN4h2/RChUX/ETCC0Ivwb9nBsEAMB5QvUVP4HQgvDr0E8YBABAKFRf8RMILQi/Tv0MkQEAwJAZ9RU/gdCC8OvQz7lBAACcJ1Rf8RMILQi/Dv1iu4gwCABAv6FwztZR9RU/gdCC8GvAz7lBAAAw5zyh+oqfQGhB+DXg59wgUDd//+dfN/IfH//xk//xP//7g/97yv/+P/9r4//7JoZ/zphN/27rAvRxnlB9xU8gtCD8KvdzbhCoK/SNg9g40AX/71//9yc5PsO/O5gGzE3B0ZoCbZwnVF/xEwgtCL+K/WwVBcoOfZvCXq7At2RgHIfGaVj0PQDq2jqqvuInEFoQfhX72SoK5A1/mzp9tQa+pUKjoAjUtXVUfcVPILQg/Cr1s1UUyBf+cm/vrLGzOA2JvlfA+hyydVR9xU8gtCD8KvRzxQSQNgAKf+t2EnURgXxXUaiv+AmEFoRfZX7ODQLrBsDet32WEhB9L4E05wnVV/wEQgvCrzI/5waBZUOgDqAtpkDP5wnVV/yaCoR+gPxa9/twd3P/7O2ZlxtwYgDUBdQ9BHoiaoeoIdRX/Fr3Ewj5Ne33/cfX+6vbCy82QBew+4AoHALHEzVE1BLqK34CoQXhV6nf608vvNCAA9EJFA4BPCZqCfUVP4HQgvCr0M9WUUAI9Nn9sa0UmLd1VP3HTyC0IPwK97NVFNi/JVQI9Bl3DeP7IBgCh20dVf/xEwgtCL/C/WwVBbZ3A4VAH1tKgdO2jqr/+AmEFoRfwX62igK6gT7LhcPhGgu/T7B19OxXl1D9x08gtCD8CvWzVRTQDfTRNQTW3jqq/uMnEFoQfoX6RXfQCwuCoCDos97HWUP0TtQa6j9+AqEF4Veg3923L7aKwrZQQdBHMARW3zoaNYf6j59AaEH4FeQXD+aXH597UaHbIOjjk3s7qWCInoiaY8lQqP7jJxBaEH4n8v7zOy8odBcEdQN9BEMgH1F7qP/4CYQWhF8BfvEXuqdvnng5QRD08REMgWRE7bFUl1D9x08gtCD8TsBWUQiCPj6CIZBr66j6j59AaEH4ZfSL7Rq6g3BG0MdHMARydQmX2Dqq/uMnEFoQfjO3il5en3shodnrIwRBn9aCoamkaJGoRU7dOqr+4ycQWhB+tooCD+4R9PFp9TNcV+H3HbaOqv/4CYQWhJ9BMsBoe6gL5Y/vOI2JoBHEz3Hg1atXj7i8/K972fTfC4Z/7vDvmjr4HP6Jn6NgCANm1H/8BEILwk93EM4JGhizN/SNg9402P3++99+8u///tsD/u3fzjay6T+37787/f8fGP7d0yA5Do7C4u71db4QuoTqP34CoQXhZ5AMnBMUDB4Ev02Bbwh9m8LartB2aLjb9t875j87/e9sCoyC4ub1d74QPQ+YUf/xyxoI/QD51eZ3dXvhxQPbQxsMf5s6fXPDXClsch/+7yEojruKvYdE5wtRO1GjfP/xVf3Hryo/gZBfVX4f7m68cFB9V7DHgn9X+NsWmHpgU0dxUyfRNlKgHqJWUf/xEwgtCL8V/OIvbrqDqL0r2FMHcBoAp2Gvp+A3Jyj2HhB1C9FTl1D9x08gtCD8Dvi8/vTCiwaGxhQcAqOAnwbAY8/iYfeW02lA7OF7pVuIGomaRf3HTyC0IPwW9Iu/tD17e+Ylg+rCYMtDYw7pAmI9hm234+5hy9813ULURNQsx3QJ1X/8BEILwk93EI3RavdmGgJ1AcvoHgZD97D1755uIVrsEqr/+AmEFoTfjk8cztYdhLOCZYRAg2Dq6R62uq3U2ULU1CU8dMCM+o+fQGhB+O3YKmqQDEwQzRMCx2cCdQHrHkzTWjh0byFaGzCj/uMnEFoQfju6g14ocK9g2u5L/G9xJrDNqy2GgTStnDe0hRStXEOh/uMnEFoQfrqDqLgrWHtxPe4GTkOgMKhrWEu30PMINXcJ1X/8BEILwk93ELaIZimkdQN1DYeuYQvfZd1C1NolVP/xEwgtCD/dQRgckyUI6gZi2jWsueMd7kIhauwSqv/4CYQWhJ/uINwtmKRY3rQtFNg0oTS+LzV2DW0hRY1dQvUfP4HQgvDTHYQtooIgiguGw72GQiGwbpdQ/cdPILQg/EYfl9CjxK5gjWFwGgSBY7eR1n7hvXOFqKVLqP7jJxBaEH6j7qBL6OG8oI4gnDF0rhCtXla/qUuoPuUnEFoQfrqDcF5wkW1ygiDWnEo6dAxrC4a2kKIkotZR//ETCC0Ivw1+uoNwv6AgiDpCYY3BUChEyV1C9Sk/gdCC8NMdhOExswrcTddHAKlC4XgraS3nC4VClNglVJ/yEwgtSPd+uoMQBo8/FyUIooSL7QdqGjxj2AxK6xKqT/llDYR+gPxK8Hv58bkXBEwSPTAIDttDBUGUSATDGraRCoXITdQ+6lN+JfgJhPyy+919+3L/9M0TLweYJHrA9lDnBFHT5fY1/IFFKEQuovaJGkh9yk8gtCDd++kOQhi0PRTtdgtr+P0SCpG7S6g+5ScQWpBu/XQHIQzu7graHorazxrW0C0UCpG7S6g+5ScQWpBu/d5/fueFAGFwT1cQaGEiaelDZ+J3zgRS5CBqIfUpP4HQgnTpF9O1Lq/PvQzgwnldQXR0TUXJ3UJ3FSIHUQtN7yVUn/ITCH1huvD7cHfjRQBh0FlBdBYKx91CnULgD6ImUp/yEwgtSFd+8Zewq9sLLwEIg/cPJ4gKguglHJZ8tlCnEKmJmmjJLqH6lJ9AyK94v/hLmIvoIQz+uUVUVxA9Xmo/dAtL/d0UCpHyovolu4TqU34CIb/i/V5/euEFgO7DYHQFDY6BgPhHt7DEgTO2jyIlURupT/kJhBakC7/YEqE7iN7DoMExwMNQWOrAGaEQKbuES20bVZ/yEwj5Fe2nO4ier5awRRTYHQxL3ELqnkLU1iVUn/ITCPkV66c7iJ7DoLsFgcPOFw5bSIVC6BKqT/kJhL4wjfnpDqLXMGiKKHD8ucLStpAKhailS6g+5ScQ8ivST3cQqSgtDA7nBRX6wPFEV10ohCso1Kf8BEJ+Dfi5iB4piOEPzgsC7YXCks4Vxh+dhEKUfFG9+pSfQMivOD8X0SNVGCylk+C8ILAspZ0rDBfPXZTaJVSf8hMI+RXn5yJ6CIMAWguFrqNAqRfVq0/5CYT8ivMzTAZrD5EpJQwaHgOsP4G0pGEzQiFKHC6jPuUnEPIrys8wGfRy8bwwCKwfCEu7xD4chEKUdgWF+pTfUYHQD5Df2n7vP7/zYEfzYdDwGCA9pYTCeA4JhViDqKHUp/zW9hMI+a3qd/fty/3l9bmHOpq9XmI8SRRA+q5hKddSuI4CaxA1VNRS6lN+AiG/av3iL1tP3zzxUEez10sIg4C7CsfbxoVCLEnUUHO6hOpTfgIhv2L8Xn587oGOJieK6gwCQuGmj62jWJqopdSn/ARCflX6xRYH3UG0OFFUGASEQqEQKbuEx24bVZ/yEwj5FeFnmAxaHCIjDAJC4SHPCVtHkXO4jPqUn0DIL7ufYTJocYiMMAjUcTVFCaHQkBnkHC6jPuUnEPLL7meYDFobIiMMAnXdVVhCKIw/Ynl+I8dwGfUpP4GQX3Y/w2TQ2hAZYRCoJxSWtH3UeULkGC6jPuUnEPLL6meYDFo7NygMAs4UnrK7QChE6uEy6lN+AiG/rH6GyaClc4PCIFA/8XucMxQ6T4jUw2XUp/wEQn5Z/QyTQStbRSOMKqYBodB5QpQ0XEZ9yk8g5Fe0n+2iaOW+wSjefv/9bw/OIwGoPxTaOooeto2qT/kJhPyy+dkuiha2isb2LmEQaI/4vc75bHE/IVJtG1Wf8hMI+WXzs10UtV8xEWEwhlAIg0CbV1LkDoW2jiLFtlH1KT+BkF8WP9tFUfu5wfj3Rhicjq4H0NYdhREKc04vtnUUa28bVZ/yEwj5ZfFz9yBqvmLCxfNAX8Ew53UUto5i7TsJ1af8BEJ+yf3iL1W2i6LmraLCICAU2jqKmraN7uoSqk/5CYT8sgRC20VR61RRE0UBk0dtHUVL20bVp/wEQn7J/WwXxank2io6TBR1bhDol1xDZmwdxVrbRtWn/I4KhH6A/Jbwu7q98HBGdVtFTRQFMFxHkeuPUraOYi5Re33/8VV9yu9kBEJ+J/vFw+jZ2zMPZ1S3VXQ4NygQAsh1ntCF9ZhL1F4CIT+BkF8Rfq8/vfBgxuwwmGurliEyAMZDZnKGwuhO2jqKOUQNpj7lJxDyy+oXf5myXRS13TloiAyA0obM2DqKJbeNqp/5CYT8kgZC20VR052Dw+XzwiCAbecJc+xcMGAGS24bVT/zEwj5JfOzXRQ1DZIZXz4vEAIo7TyhLiGW2jaqfuYnEPJL5me7KGoaJBPFlmIXwCGX1ufYOmrADJbaNqp+5icQ8kviZ7so5pJjO9Zw36DOIIBDAmGu+wkNmMES20bVz/wEQn5J/D7c3XgQo4pBMs4NApgTDHPdT6hLiGOJmkx9yk8g5Jfcz/lB1NIddMUEgJrOExowg1PPEaqf+QmE/Fb3s10UtQySsVUUwKnk+EOWATM4Zduo+pmfQMhvdb/YmiAQovRrJmwVBbDUVRQ5nl+2juKYQDjeNqp+5icQ8lvdz3ZR1NAdtFUUwJIX1qfeOqpLiLnbRtXP/ARCfqv6xZYE102g9O7gsFVUIQug1q2juoSYe/2E+pmfQMhv9UBouyhK7w7aKgpgja2juoSo4Ryh+pmfQMhvVT/XTaD0S+hdQA9gza2jqT+6hDj2+gn1Mz+BkN+qfs4PouTuYIRPU0UBrHVhfTxfUm8d1SXEsecI1c/8BEJ+q/k5P4jSu4MGyQBYOxSmvpvQWUIce45Q/cxPIOS3mp/rJlByd9CdgwBShMIcA2Z0CXHM9RPqZ34CIb/V/GwXRandQXcOAkgZCnMMmNElxKHbRtXP/I4KhH6A/I75XF6fe9iiyO6gQTIAWh8wo0uIQ4habZg2qn7md8hHIOR38CceLk/fPPGwRXH3DuoOAsh1DUXqZ50uIfYRtZpAyE8g5LeKn+smUGp30CAZALlIPWBGlxDHXD+hfuYnEPJb1M35QRxK6r+YGyQDICcpB8zEMy92YXjX4JDrJ9TP/ARCfou6uW4Ch3YHU/61XHcQQG9dQttGccj1E+pnfgIhv0X9Yi+66yZwCCn/Uu6aCQC6hMDm6yeWPEeofhYILQg/9w9CdxAAdAlR2X2E6md+AiG/RQOhByx0BwGgjC5hPAN1CZFqsIz6WSC0IPwMlEFxF9HrDgIo7bL6lF1CV1Ag5WAZ9bNAaEE694s96AbKoKSrJnQHAegSuoIC+wfLLHWOUP0sEFoQgdD5QRR1Eb3uIIASO4Q5uoS2jSLFYBn1s0BoQTr3c34QJQ2TGbqDClAAJYbC1F1C20aR4hyh+lkgtCCd+zk/iJKGyegOAjBx1HAZpD1HqH4WCC1Ix37OD6KkYTLx73F2EEDpxHNKlxAtnSNUPwuEFqTzQOj8IEoZJhMFlmITQA1bR2M3g+EyaOUcofpZILQgHfs5P4h9pBomE93B2IalOwighkAYXcKUz0fbRrHmOUL1s0BoQTr2c34QpQyT0R0EUNtwmZRdQttGseY5QvWzQGhBOvZzfhAlDJPRHQRQa5cw5XAZ7yVsO0eofuYnEPIzUAZV3z3oqgkALqq3bRT5BsuonwVCC9JxIDRQBiVMFx2umtAhBFBblzDlFRS2jWKtwTLq58YDoR8gv228//zu/umbJx6myL5d1FUTAHQJbRvFPKKWi5pO/cxvGwIhv52B0IMUubeLGiYDoHZSDZexbRTbEAj5CYT8ZvHy43MPUWSdLmqYDIBWLqq3bRQ5iZpO/cxPIOR3FHffvtxfXp97iCLrdlHDZADYNnr8c1OXEFOipovaTv3MTyDkdxTOD6KUYTIAUDuphsvEv0OXEJvOEQqE/ARCfkd3CAVC2C4KAMttG0119loghEDITyDkd7KfgTLIvV3UMBkAhsuYNooyBsuonwVCC9Khn4Ey2Eaqv3BH4aQ7CMC2UdNGkX+wjPpZILQgAiGQ9PyguwcBtHZBfWDbKARC9b1AaEGq8DNhFLvOD9ouCgDzQ2GqbaPxHPXewlKTRtXPAqEF6TAQGiiDnOcHTRcF0GogTLVt1PUTWHKwjPpZILQgnfnFoWOBEDm3i5ouCqDVUBjbRlP8cc31E9gUCOcOllE/C4QWpMNA6MGJXNdN2C4KwLRR5whR1qRR9bNAaEE68zNQBjnPD9ouCsC00eW2jXp/YYnBMupngdCCCIRAksl4tosCMG102Weqc4QQCPkJhPyOxoRR5Do/GAWS6yYA9BAKUw3psm0U00mj6md+AiE/gRC2iwJAAdtGBUIIhOp7gdCCFOfnygnkCoS2iwLobdpoqkFd3mM49eoJ9bNAaEEEQrh/MEkgjAJJsQigF1I9W50jhEDITyDk5w5CnHR+MMXwA9dNAHD9xDqB0LZRnHoXofq58UDoB8hv/Plwd+OBiSz3Dzo/CKC3baOprp8QCDEmaj31M7/xRyDk9+Dz+tMLD0tkGSjj/CCA3nCOEDmIWk/9zE8g5CcQoqjzg66bAOAc4brPWOcIIRDyEwj57f18//H1/ur2wsMSyS+kd34QgHOEBssgDVHrRc2nfuYnEPITCFHMhfRREOkOAnAfoXOEEAjV9wKhL0zmQPjs7ZmHJZIPlHF+EIBzhAIh0hC1nkDITyDkJxCiqAvp3T8IwDlCg2UgEKrvBUILktnPlRPIOVBGUQhAIFz3Weu9hrlXT6ifBUILIhBCIDRQBgBWuIswMFgGAqH6XiC0IEX4uXIC04EyKSaMGigDwAX1619QH/985wgx9+oJ9bNAaEEEQpgwulqBYqAMgN4DocEyEAjV9wKhBREI0fVAGYEQQO+TRg2WgUCovhcILUh2P3cQInUgNFAGAEwaRZ67CNXP/ARCfgIhihkoo0MIoPdtoykGy8Qf4QyWgUDITyDkt/ET99EIhBiTaqCMYhAAfks2WEYgxBAIj7mLUP0sEFoQgRAC4SofA2UAQCCEQKi+FwgtSCGB8NnbMw9JmDAKABnuIozz1Cn+EGfSKIKo+QRCfgIhP4EQ2QOhCaMA8Oc56hRntwVCCIT8BEJ+Gz8f7m4EQjyYMLp2IBwmjAqEAPCbQIjkgTBqP/UzP4GQn0CIbFdOROHjygkA+JNUk0a95yAQ8nsQCP0A+QXvP7/zgETyQKgABID0V094zyGI2k/9zC8QCPkJhMhyB2EUPraLAsCfgTAGbaUIhCaNQiDkJxDye8TLj889HPFroIxACAB5AqGrJ5CKqP3Uz/wEQn4CITYGwrVHn7tyAgAeB8I4Vy0QQiBU3wuEvjACIQRCAHAX4WrPX5NGIRDyEwj5CYQo4g5ChSAAPOwQrr1lXyCEQMhPIOS3kcvrcw9HJAuEwx2EikAAcBch8hC1n/qZn0DITyBEtkCo8AMAgRACofpeILQgAiE6vINQIASAzecIBUIIhOp7gdAXRiCES+kBwOX0qz6Dve8gEPITCPkJhBAIAaCwDqFACIFQfS8Q+sIIhBAIAUCHUCCEQMhPIPSFEQjRZiCMgkfxBwCPiTta1x7sJRBCIOQnEPJ7xNM3Tzwc8ZMUAw0EQgDY3CFMEQhjsJf3HaL2Uz/zEwj5CYQQCAGgoDOEAiEEQvW9QOgLIxBCIAQAHUKBEAIhP4HQF0YgRLuBMAofBSAA6BBCIFTfC4QWRCBEZ4EwCh6BEAAeh8Lff/+bQAiBUH0vEPrCCIQQCAGgR1IEwvjne99BIOQnEPJ7gAcjBEIAEAjRF+pnfj8DoR8gv/h4KEIgBIB+AuHf//lX7zyon/n9/AiE/ARCPCDOlgiEACAQQiBUPwuEFkQghA6hQAgAjQ2VEQghEPITCPk9+jx7e+bBCIEQADoJhN53iNpP/cxPIOQnEEIgBABDZSAQqp8FQgsiEAqEEAgBoIdA6B5CCIT8BEJ+AiGyBsJXr14JhAAw2S4axB/MBEIIhOp7gdAXRiBE84FQAQgAj0OhQAiBUH0vEPrCCIQQCAFAh1AghEDITyD0hUnnd3V74eEIgRAAdAjRCVH7qZ/5CYT8BEI84j8+/kMgBIBMpAiE8Yc/7zsIhPwEQn4CIQRCACiwQ7j2RyCEQMhPIOQnECJrIIxiRPEHAI/PEMYfzARCCITqe4HQF0YghEAIAB2GQoEQAqH6XiD0hREIkZW///OvqxcjMdBA8QcAj0kRCOMPf953EAj5CYT8BEIIhABQGCkmPQuEEAj5CYT8Hn1ef3rh4YhfgXDtCXfxz//9978p/gBAIEQmovZTP/MTCPkJhMgSCKNDKBACgEAIgVB9LxBaEIEQnXYIY7R6DFBQAALAHwNl4g9l8QeztZ+/AiEEQn4CIT+BEDsDYYqCRCAEgDyBMJ7z3ncQCPn9CoR+gPyC95/feTjiFym2LMUkPYEQAP68gzD+UJZih4ZAiCBqP/Uzv0Ag5CcQ4hFr/4VaIASAx6EwAuHan3i+C4QQCPkJhPw2BsKnb554QCJZh9Dl9ADwsEOY4g7CCITec4iaTyDkJxDyEwixlRg4IBACQNpQmCIQxrPXew4CIT+BkN8j7r59EQjxIBCmunrCtlEASHflhECIIRBG7ad+5icQ8hMIkf1yeoEQANxBCIFQfS8QWpACAuHl9bmHJNxFCACZSDHQSyBEEDWfQMhPIOQnECJrIIyPQAgAfxA7Jlw5AYFQfS8QWpCsfgIhclw9oRAEgN/cQYjkgVD9zE8g5CcQwtUTAFAIqa6cEAghEPITCPlt5eXH5x6SSHr1RBQnCkEA+M2VE0hK1HzqZ34CIT+BENkDoUmjAPDH+UFXTkAgVN8LhBZEIIRJowDQ2WX0QQRCE0YhEKrvBUILkt3v/ed3HpJIPmk0tkkJhAB6DoWpJowKhBiImk/9zE8g5CcQwqRRAChkwmiKLfoGykAg5CcQ8tt7F+HTN088KGHSKAA0OGHUew1B1HrH3EGofhYILYhACINlkgyWURQC6BUDZSAQqu8FQgtSTCB0FyGmgdBgGQBYd8KogTJIfQehQMhPIOQnEMJgGQAoYKBM/EEsxXNWIIRAyE8g5OfqCRQbCJ0jBNBrIExxfjA+Bspg7pUT6ucOAqEfIL/x5/WnFx6WSD5YJrZLuaAegPODJoxifaLWUz/zG38EQn4PPh/ubjwskWWwjHOEAJwfNFAG6xO1nvqZn0DIb2cgfPb2zAMTSQfLDOcIFYgAetkq6vwgchA1nkDITyDkt/Pz/cdXgRDOEQJAQ+cHBUKMA2HUeupnfgIhP4EQR5FiS9NwjlChCKCXQOj8IARC9b1AaEGK9Lu6vfDQRPLBMs4RAugpDKY6Pxj/Du8xDESNp37mJxDyEwhR5GAZ5wgB9ET8ASzFx0AZCIT8BEJ+R39cPYGc5whtGwXQA84PopYrJ9TPAqEFEQiBn4EwxdamCJ3uIwTQA6meqc4PQiDkJxDyO/rjLkLkOkc4bBsVCAG0vl00xa4L5wexxB2E6meB0IJ0GghNGkWuc4SunwDQ+v2DqbaLOj+IJe4gVD8LhBakQz9XTyDnOcLh+gldQgCtkmrHhfODWOLKCfWzQGhBOvUzaRQ5t426fgJAq8QfvFL9cc35QUwnjAqE/ARCfgbLwLZRAOhguqjtolhqoIz6WSC0IAIh8CAQpvjL9jBtVPEIwHZR20UhEPITCPll8DNpFDmvn4iPaaMATBed/0c120Wx1IRR9bNAaEE69TNYBrnPEdo2CsB00fnnB72vsNRAGfWzQGhBBEIgyzlC00YB2C7q/CAEQn4CoS9MRj+TRpHz+gnbRgG01B1MtV3U+UEsPWFU/SwQWpCO/QyWgW2jAFDXdFHXTWDpgTLq5w4CoR8gv228//zOQxRZt43GX9PdSQig9u5gbH9PNZDLdlFsImo69TO/bQiE/HYGwqdvnniQIvu2UYUlgJpDYfxhK9Uf0WwXxZSo5QRCfgIhv1ncffsiECL7tlHDZQAYJmO7KE4LhFHTqZ/5CYT8ZgXCy+tzD1Nk3TZquAwAdw/aLor5RC0nEPITCPnNRiBECdtGDZcBYJiM7aKYHwjVz/wEQn6zefnxuYcpsm8bNVwGQI1nB1MOk7FdFNuIWk79zE8g5GfSKFbbNmq4DABsni6aqjtouyjWnDCqfhYILUjnfgbLYN+20VR//Y7gabgMgFqI51XKXRS6g1hroIz6WSC0IAKhc4QoariMQhOAYTKPt4t6H2GtgTLqZ4HQgvBzjhDFDJdxBQUAV008/hgmgzXPD6qfBUILws85QhQzXEaXEEANZwdTdgdtF8Xa5wfVzwKhBeHnHCGK2jY6dAkVnwB0Bw2TwfrnB9XPAqEF4eccIYraNuoKCgClD5NJ+Ty0XRRrnx9UPwuEFoSfc4Qobtto/Lt0CQH0fBG9YTJIdX5Q/SwQWhB+zhGiuC5hfHQJAfTcHTRMBqnOD6qfBUILwu9XIHSOEPtIdSehLiGA3ruDhslg3/lBgZCfQMhvUT+DZVDacJkohqL40iUE0NtkUd1BpBwoo34WCC0Iv18YLIPSuoQmjgLocbKo7iAOGSijfuYnEPJb3M9gGZTWJYyPLiGA3rqDrppAyoEy6meB0ILwM1gGRw+XydElFAoB9NIdtF0UKQfKqJ87CIR+gPwO/Xz/8dU5QhTbJVSUAtAdBP44Pxg1m/qZ36EfgZDfUYHQOUKUeAWFLiGAHrqDhsng0PODAiE/gZDfan7OEaLEi+p1CQHkIHV30EX0OPT8oPqZn0DIbzU/9xGi1C5h/LtcVg8g5SX0Kc9L6w7imPsH1c/8BEJ+q/nFnTa2jaLULmH8+xSqAFq7hH7oDrpqAodsF41aTf3MTyDkt6qfbaMotUsYH11CAGsPk4nuYOpnm+4gjrluQv3MTyDkt6qf6ydQcpfQZfUAWhskozuIY6+bUD/zEwj5reoXWxGcI0TJXUIDZgC0MkhGdxDHnB+MGk39zE8g5JckEDpHiJK7hAbMAFjjzsEcg2R0B3Hs+UH1Mz+BkF8SP+cIUXqXMEKoraMAah4kozuIOecH1c/8BEJ+SfxcP4HSu4S2jgJYsjuYY6uoewdx7HUT6md+AiG/ZH7OEaKGLmEUU7aOAljizsEcW991BzHn/KD6mZ9AyC+Zn22jOJYoblJ/3E0I4NTuYI6tovHs8t7AnO2i6md+AiG/ZH6un8CcLmHqgQzxV3ZbRwHMDYQ5torqDmLudRPqU34CIb+kfraNYm6X0NZRALVMFc1x/ll3EKdsF1U/8xMI+SUNhK6fwJwuYa4Cy9RRAKVPFY0/mLlmAnOvm1Cf8hMI+SX3c44QtXQJ42PrKICSL6CPj62iOPX8oPqUn0DIL6mfbaOo6RqK4cJ6xS6AXdtFc1xAP2xv1x3EqdtF1af8BEJ+yQOhbaOo5RqKoeCKYs95QgDbyPUHK91BLLFdVH3KTyDkl9zPtlHUdA3FcJ5Q0Qtg27nBHH+sMkgGS20XVZ/yOzoQ+gHyO9Xv+4+v98/ennkwo4prKIa/xDtPCGA6VTTXuUGDZDCHqL2iBlOf8jsVgZDfIoHw6vbCwxlVbR0dzhPaOgog57lBg2Qwl6i9BEJ+AiG/Yvxef3rh4YyqBsw4Twgg932DBsngFKL2Up/yEwj5FeNn2yhq3Do6nNtxPyHg3GCOj0EyWGO7qPqUn0DIL1sgtG0UNd5NGB/nCQH3Ddoqila2i6pP+QmE/LL52TaKWreOup8Q6DcM5tqdYKso1touqj7lJxDyy+Zn2yhqHTAjFAL9kfPcoK2iWHO7qPqUn0DIL6ufbaOoeeuoITOAMJjq7LLnPU7ZLqo+5ScQ8ivW78PdjYc1qt06Oh4yIxQChsjYKooSiVpLfcpPIORXrJ9to6h96ug4FCqcgTbDYM6t6baKYu3toupTfgIhv+x+to2i9q2j8TF5FGjvzsGcYTA+wiBSbBdVn/ITCPll97NtFEuGwlyfKBqFQsD1Es4NorbtoupTfgIhv+x+to1iya2jOc8TCoVA/V3BIHcYjH+3c4NItV1UfcpPIORXhJ87CdHCVRRDIec6CqDeQJjzrkHnBpHy7kH1KT+BkF9RfrGlQZcQrZwnFAqBejuDOcOgraJYsjt46HZR9Sk/gZBfEX6xpcFwGbRyFYVQCNQXCGNScO4w6IoJLDlM5tDtoupTfgIhv2L8DJdBS1dRjEOhOwoBF887N4gSh8moT/kJhPyK8jNcBq2dJ9QpBOroDJYQBp0bRI5hMupTfgIhv+L8DJdBa+cJh21gQiGgM7jtIwwi1zAZ9Sk/gZBfcX6Gy6C1+wl1CgGdQUNkUOowGfUpv1mB0A+Q35p+d9++3F9en3uoo6n7CYVCwDTRbbsHnBvEkkQNFbWU+pTfmn4CIb/V/d5/fuehjiaHzAiFQH5KCYPODWINooZSn/ITCPlV7xd/2Xr65okHO5ocMjMUgq9evVKcA51dOi8MYk2idprTHVSf8hMI+RXp9/Ljcw93NDtkZhoKXUsBpOkMlvC7Hx9hEGsQtZP6lJ9A6AvTjF9sedAlRC+hMIZbCIXAesTvWSlh0BAZrNUdnLtdVH3KTyDkV6Sf4TJYmxKGzIwLRKEQ6CMMGiKDkobJqE/5CYT8ivYzXAZCIYC5k0SHayVKCYMmiqLEYTLqU34CIb+i/QyXQS/XUYwLRhNIgXbuGBQGUUN3UH3KTyDkV7Sf4TLo5TqK8blCoRA4bZJoaWHQEBmUOkxGfcpPIORXvJ8uIXoNhSaQAvXeMTj+XRYGUepVE+pTfgIhv2r8dAnRYyh0rhA47rxgScNjhEHU1B1Un/ITCPkV76dLiN4urneuEKj3vKAwiNq6g+pTfgIhvyoCoS4heg6FzhUC288LltbZFwZRW3dQfcpPIORXhZ+L6tHjxfWbzhXaQgpB8Ky4+wWFQdR2Eb36lJ9AyK9KPxfVo/dQOJwr1C1Ez5R2v+D4Iwyipqsm1Kf8BEJ+1fm5qB5C4cNuoSmk6K0rWOIWUZ1B1HgRvfqUn0DIr0q/+EvY1e2FFwGEwlG3MLolAgNMEdUZRD9ELbRkd1B9yk8g5FeV34e7Gy8DGDQz+oynkOoWotW7BUubIqoziJxELaQ+5ScQWpBu/b7/+Hr/7O2ZFwKEwklRqlsIXUFhEO0TNVDUQupTfgKhBena7/WnF14KcHn9lm6hs4Vo5axgqV1BYRA5iRpIfcoveyD0A+SX289F9RAKdQvR7iXzJXcFhUGUchG9+pRfTj+BkF8Rfi6qh1C4v2h1byFMEBUG0eZF9OpTfgKhBeneT5cQJYTCkre0DZ/xvYWCIdwreNqWbGEQJXQH1af8BEILwk+XEELhSdtIBUPYHnp8GIzfd889lNAdVJ/yEwgtCD9dQhQWCku+q3DbNlKhBLmvkih9e+i4yy4MoqTuoPqUn0BoQfjpEsIF9id3O2wjRc7pobX8rgiDKLE7qP7jJxBaEH66hBAKnS9ElZfL1/T74bwgSu0Oqv/4CYQWhJ8uIUwgFQyhI7ji1mphEKXw/vM79R8/gdCC8NvnF385u7w+9+KAYTMnFsGCIZYKgjUNjJlupxYGUQpR22zqDqr/+AmEFoTfBuIvaF4eMGxGMIQg6LwgWu8Oqv/4CYQWhJ8uIZwrTBoMXVeBFs8IOi+IWruD6j9+AqEF4adLCOcKk3dOxtdVCIa6gcM9grUHQecFUWN3UP3HTyC0IPx0CeFcYbbzVYKhbaHDttCag+DwfbZFFDV2B9V//ARCC8JPlxC2kBZ1zlA4bL8bOGwLjSBYc7d7/P0VBlFrd1D9x08gtCD8dAlReaew9i2k08Ja17DtbmDt20JtEUVr3UH1Hz+B0ILwO6BL6LJ61LKFtIUie9o1FA7rDoEtdQPHH11B1HAJ/SHdQfUfP4HQgvA7AJfVwxbSfMFwOGs4DYcCYh0hsKU/VOgKoiaidlH/8RMILQi/hfxiu4UuIQycKTccCmNlnAtsZUDMto+L5lFTd/CQraLqP34CoQXhd8S/W5cQuoXlbSnVOcwbAFvuBG76vtkiiha7g+o/fgKhBeF3RJfQgBk4W1hu53DTmUPhcJ0u4PhMYMvfLV1BtDxIRv3Hr5hA6AfIrya/D3c3XjaoMhS23C08tHsoJM7rAI4DYPxcWxoMs+97FL83uoKojahV1H/8avITCPlV5ff9x9f7q9sLLxzoFlZU1O8KiL2HxOF/+74A2NN3RlcQNRM1StQq6j9+AqEF4beiX/zl7dnbMy8eVH22sJcuz66AOA2J062mLYbETeFPANQVRBtEbTKnO6j+4ycQWhB+Mz6vP73w8oFuYeMhcVM3cRoYSwmNU6dNXuPgJ/xt3mYsCKJmojZR//ETCC0Iv0R+sR1DlxCCYfshcRhWMwTFaVgcdxa3BbNDwtq+cLfvnzHu9E1D3zj4WWfbQ9Fud3DOVlH1Hz+B0ILwO+GjSwjbSAXGcWCcBsdxeBwzDpLb2PTfGwe9cdgbAp9un+2h0B1U//ETCC0Iv4R+BszANFKfY8LjqfjYHgosOUhG/cdPILQg/BbwM2AGtpH6+NQVBG0PhUEy6j9+AqEF4beon62jaHkbqWDo08LHOUHYKqr+4ycQWhB+q/kZMAPB0MdHEARqGySj/uMnEFoQfgv6xXYNLycIhj4+ZQVB5wTRMktsFVX/8RMILQi/hT7xFzpbRyEY+vgIgkCqraJLdQfVf/wEQgvCb8FQ+PTNEy8qCIY+Pgk/w/UfgiB6IWqNJcOg+o+fQGhB+C34ef/5nZcVBEMfn0RB0NRQ9EjUGuo/fgKhBeFXqN/dty/3l9fnXlhwj6GPjyAILE7UGFFrqP/4CYQWhF/BfvGXO1tHIRj+4+c2Ph+fJYOgbaHofatohEH1Hz+B0ILwq8Dv5cfnXl4QDP8zGNpO6nNKCHQ+EPiDqC3Uf/wEQgvCrxI/W0eB7V1D4dDHtlBg3lZR9R8/gdCC8KvIz9ZRQNfQ57jPEAJ1A4GHW0WjplBf8RMILQi/Cv1sHQV0DX32bwmNICgEAvu3iqqv+DUZCP0A+bXsF/cEXd1eeKEBe4KhcNhnCNQNBHYTNcSmOwfVf/xa8hMI+TXv9+Hu5v7Z2zMvNkA47PojBALHEbVD1BDqK34CoQXh14Df608vvNyAmZfeC4c6gUCPRO2gvuInEFoQfg352ToKLDeQxh2H5YZAARBYb6uo+oqfQGhB+FXsFw92W0cB3UNdQAD7toruCoPqK34CoQXhV7Gf84TAut3D8ZUWQuLy4U8ABPKdG1Rf8RMILQi/RvycJwTSdhCHLaYC4rwAOIQ/ARDIe25QfcVPILQg/BrxcxUFkHd66TQk9h4UN3X+hvAnAALlnBtUX/ETCC0Iv4b8bB0Fytxq2nJQnAY/nT+gvq2i6it+AqEF4deQn62jQNndxHFYHHcVx4GxlOA4dhkcN4U+XT+g7q2i6it+AqEF4deYn62jQDuBcRoexx3HKdNAuSnQjRn/88Yhb4zAB7S/VVR9xU8gtCD8GvNzFQXQX5jcFi53/ecA9HvFhPqKn0BoQfg17uc8IQAAzg2qr/gJhBaEX8d+zhMCAODcoPqKn0BoQfh17Oc8IQAAzg2qr/gJhBaEX6d+7icEAEAYVF/xEwgtCL+O/ZwnBADAuUH1FT+B0ILw69gvXhRemgAAtMcSYVB9xU8gtCD8OvAzZAYAAENk1Ff8BEILwq9TP+cJAQBwblB9xa+LQOgHyI/fZu6+fXGeEACABs4NxjtdfcWP3+aPQMiP3w4MmQEAoP4hMuorfvwEQn78Zvs5TwgAQN3nBtVX/PgJhPz4neQnFAIAUF8YHM4Nqq/48RMI+fE7yc+QGQAA6h0io77ix08g5MfvZL94sThPCABA+ecGpxNF1Vf8+AmE/Pgt4mfIDAAA5Q+RUb/w4ycQ8uO3mp9QCABAPWFQ/cKPn0DIj9/ifobMAABQ5kRR9Qs/fgIhP36r+8XZBKEQAIDyJoqqX/jxEwj58UviJxQCAFB+GFS/8OMnEPLjt5qf6ygAACjnegn1Cz9+AiE/fsn9hEIAAMoNg+oXfvwEQn78VvczeRQAgDImiqpf+PETCPnxy+InFAIAUF4YVL/w4ycQ8uOXzE8oBACgrDCofuHHTyDkxy+pn8mjAACkv2tQ/cKPn0DIj18xfkIhAABlhEH1Cz9+AiE/fsn93FEIAEDauwbVL/z4CYT8+BXlJxQCAJA/DKpf+PHbEwj9APnxW8/v7tuX+5cfn3uhAwAwg3iHxrtU/cKP33p+AiE/fiv7CYUAAOQLg+oXfvwEQn78svvFC+3y+twLHgCAA4h35lJhUP3Cj59AyI9fEX7xYru6vfCiBwBgB/GuXDIMql/48RMI+fErxi8OxQuFAABsD4PxrlS/8OMnEPrC8GvWTygEAGB7GFS/8OMnEPrC8GveTygEAGBzGFS/8OMnEPrC8OvCTygEAOBxGFS/8OMnEPrC8OsmEAqFAABh8Kv6gB8/gdCC8OvXTygEAAiD6gN+/ARCC8KvYz+hEAAgDKoP+PETCC0Iv479hEIAgDCoPuDHTyD0heHXsV+8IF9/eqFgAAA0Sbzj9oVB9QE/fgKhLwy/rv2EQgBAz2FQfcCPn0DoC8Ovez+hEADQaxhUH/DjJxD6wvDjJxQCADoNg+oDfvwEQl8YfvyEQgBAp2FQfcCPn0DoC8OP3+QTL9Rnb88UFwCAKoh3Vry71Af8+AmEFoQfv4X8PtzdCIUAgCrCYLyz1Af8+AmEFoQfv4X9hEIAQOthUH3Aj1/iQOgHyI9fXX7vP7+7v7w+V3gAAIoi3k3xjlIf8ONXl59AyI9fhX53374IhQCAosJgvJvUB/z4CYQWhB+/RH7x4jWBFABQwiTRJcOg+oAfP4HQF4YfvwNxLQUAoIRrJdQH/PgJhBaEH79MfkMoNGwGAJD6WonhjkH1AT9+AqEF4ccvs58JpACAXJNE1Qf8+AmEFoQfvwL8hEIAQI5rJdQH/PgJhBaEH79C/GL7ztXthcIFALAo8W4Ztoh6//LjJxBaEH78CvYzbAYAsMbwGO9ffvwEQgvCj18lfobNAACWHh7j/cuPn0BoQfjxq8zPuUIAwJLnBb1/+fETCC0IP36V+TlXCABY6ryg9y8/fgKhBeHHr0I/5woBAEucF/T+5cdPILQg/PhV7GcLKQDg1C2i3r/8+AmEFoQfv4r94oVvCykAYLxFdG4Y9P7lx08gtCD8+FXo51whAGDOeUHvX378BEILwo9fQ36upgAAV0p4//LjJxBaEH78OvZzrhAAnBf0/uXHTyC0IPz4dewXfyG+vD5XKAFA48SzfomuoPcvP34CoQXhx68xv7tvX+5ffnx+//TNE0UTADRGPNvjGR/Peu9ffvz4/QqEfoD8+PGb+plCCgBtTxH1/uXHj9+AQMiPH7+NfsNF9s4WAkB7g2O8f/nx4ycQ8uPH7yA/A2cAoL3BMd5v/PjxEwj58eN3sJ87CwGgrbsFvd/48eMnEPLjx+9oP1tIAaCNuwW93/jx4ycQ8uPHb5afgTMAUMfgGO83fvz4CYT8+PFbxc/AGQCoryvo/caPHz+BkB8/fov66RYCQD1dQe83fvz4CYT8+PFbxU+3EADK7wp6v/Hjx08g5MeP32p+JpECQBkTRL3f+PHjJxDy48cvi18UKO4tBIB17xU8NQx6v/Hjx08g5MeP36p+w9AZBRwALMMp20O93/jx4ycQ8uPHL7lfFC7vP7+7f/rmiWIOAGYSz9B4li4ZBr3f+PHjJxDy48cvmd/dty/3Lz8+FwwB4MggGM/OeIZ6v/Hjx08g5MePX/V+8Rfuy+tzhR4A7CGelfHM9P7gx4+fQOgLw49fU366hQBweFfQ+4MfP34CoS8MP35N+gmGAHBYEPT+4MePn0DIjx+/Zv1sIwXQexDctD3U+4MfP34CoS8MP37d+MVfxAVDAL2eE9zVFfT+4MePn0DoC8OPXzd+tpECsD3U+4MfP34ZAqEfID9+/EryGy61f/b2TPEIoBnimXbK5fLeH/z48VvLTyDkx49fkX4f7m7ur24vFJIAqieeZfFM8/7gx4+fQGhB+PHjd2S3UDAEUHsQnNsV9P7gx4+fQOgLw48fv1EwNHgGQC0DY5YKgt4f/PjxEwj58ePH7z8/JpICqGVyqPcHP378BEILwo8fv5X8hmBoIimAUiaHTq+Q8P7gx4+fQGhB+PHjt7KfqyoAlHqFhPcHP378BEILwo8fv0R+giGA0u4S9Hzmx4+fQGhB+PHjl9hPMARQyqXyns/8+PETCC0IP378MvkJhgByBUHPZ378+AmEFoQfP36F+JlKCmCpqaGez/z48RMILQg/fvwq9RsHQ11DAPu6gacEQc9nfvz4CYQWhB8/fgX7RZFnOymAbdtCTw2Cns/8+PETCC0IP378KvCLgu/1pxf3z96eKYaBjolnQDwLlgiBns/8+PETCC0IP378KvP7/uPrz2Lw6vZCcQx0RPzOx+9+PAM8n/nx4ycQWhB+/Ph17hdF4Ye7G8EQ6CAIxu/6EAQ9//jx4ycQWhB+/PjxexQMbScF2tsWuikIev7x48dPILQg/Pjx47czHEZHQTgE6guB27qBnn/8+PHjJxDy48eP38H/Xl1DoK1uoOcfP378+AmE/Pjx4zfLQdcQqL8b6PnHjx8/fqNA6AfIjx8/fu40BHq/O9Dzjx8/fr36CYT8+PHjt8CdhlGQ6hoC6bqBS10g7/nHjx8/gdCC8OPHj9+i9xraUgqsvyXU848fP378BEJ+/PjxK9pvfOm9cAjMC4Hjy+M9X/jx48dPIOTHjx+/6vyimBUOgeND4K4BMZ4v/Pjx4ycQ8uPHj1+VfsIhMC8Eer7w48ePn0DIjx8/fs346RxCCDwuBHq+8OPHj59AyI8fP37N+g0DaaJIjoLZdRZo6XqI6YXxc+8L9Hzhx48fP4GQHz9+/LrwG+45vLw+Fw5RZQiM7+5wT+CpAdDzhR8/fvwEQn78+PHr1m+461BARC0BML6z43sCPV/48ePHTyC0IPz48eO3gJ9wiJJDoN9ffvz48RMILQg/fvz4JfTbFBCFRKwR/vZ1Af3+8uPHj59AaEH48ePHL7PfEBB1EbFk929fB9DvLz9+/PgJhBaEHz9+/Ar0G7o4wwRTV1xg31UQ8V05pvvn95cfP378BEILwo8fP36V+A0j/8cBcQiJgmIfwW8If+MAOL0Kwu8vP378+AmEFoQfP378OvEbh8RpJ1FIbCP8DcHv0HsA/X7w48ePn0BoQfjx48evc79pN3EcFJ1LLO/i9yH4jbt+wzr6/eDHjx8/fgIhP378+PE7+TOExPHgmmF4zXjKqcC4/ITPYdDLMOxlPPDlkK6f3w9+/Pjx4ycQ8uPHjx+/Vf2GYST7AqOgt/1ah02Bb9+QF98/fvz48eMnEPLjx48fv2L9hkCzLTCOB9xMB93UdpZx6j393xX/W7cFvrnTPX3/+PHjx4/frEDoB8iPHz9+/Erz2xYepyFy2n0csy1UbguX2/5zwz9n079j6jH13BXyfP/48ePHj18JfgIhP378+PHjx48fP378+AmEFoQfP378+PHjx48fP378BEILwo8fP378+PHjx48fP34CoQXhx48fP378+PHjx48fP4HQgvDjx48fP378+PHjx4+fQGhB+PHjx48fP378+PHjx08gtCD8+PHjx48fP378+PHjJxBaEH78+PHjx48fP378+PETCC0IP378+PHjx48fP378+AmEFoQfP378+PHjx48fP378BEILwo8fP378+PHjx48fP34CoQXhx48fP378+PHjx48fP4HQgvDjx48fP378+PHjx4+fQGhB+PHjx48fP378+PHjx08g9IXhx48fP378+PHjx48fP4GQHz9+/Pjx48ePHz9+/PgJhPz48ePHjx8/fvz48ePHTyDkx48fP378+PHjx48fP34CIT9+/Pjx48ePHz9+/PjxOz4Q+gHy48ePHz9+/Pjx48ePX59+AiE/fvz48ePHjx8/fvz4CYQWhB8/fvz48ePHjx8/fvwEQgvCjx8/fvz48ePHjx8/fgKhBeHHjx8/fvz48ePHjx8/gdCC8OPHjx8/fvz48ePHj59AaEH48ePHjx8/fvz48ePHTyC0IPz48ePHjx8/fvz48eMnEFoQfvz48ePHjx8/fvz48RMILQg/fvz48ePHjx8/fvz4CYQWhB8/fvz48ePHjx8/fvwEQgvCjx8/fvz48ePHjx8/fgKhBeHHjx8/fvz48ePHjx8/gdCC8OPHjx8/fvz48ePHj59AaEH48ePHjx8/fvz48ePHTyD0heHHjx8/fvz48ePHjx8/gZAfP378+PHjx48fP378+AmE/Pjx48ePHz9+/Pjx48dPIOTHjx8/fvz48ePHjx8/fgIhP378+PHjx48fP378+PE7PhD6AfLjx48fP378+PHjx49fn37/H0JnFzycWWbzAAAAAElFTkSuQmCC;" vertex="1" parent="1">
          <mxGeometry x="-880" y="1080" width="900" height="721" as="geometry" />
        </mxCell>
      </root>
    </mxGraphModel>
  </diagram>
</mxfile>
